<?xml version="1.0" encoding="UTF-8" standalone="no"?>
<!DOCTYPE svg PUBLIC "-//W3C//DTD SVG 1.1//EN" "http://www.w3.org/Graphics/SVG/1.1/DTD/svg11.dtd">
<svg width="100%" height="100%" viewBox="0 0 260 280" version="1.1" xmlns="http://www.w3.org/2000/svg" xmlns:xlink="http://www.w3.org/1999/xlink" xml:space="preserve" xmlns:serif="http://www.serif.com/" style="fill-rule:evenodd;clip-rule:evenodd;stroke-linejoin:round;stroke-miterlimit:2;">
    <g id="g1">
        <path d="M147.685,213.557C80.47,227.789 23.909,157.849 52.043,95.294C76.717,40.434 148.028,27.627 190.5,70.43C237.785,118.083 213.386,199.645 147.685,213.557ZM112,201.872C148.495,207.013 183.659,184.443 196.167,147.851C201.559,132.076 200.595,100.805 194.592,96.765C190.192,93.804 185.664,98.539 184.449,107.372C180.681,134.764 156.005,161.451 124,172.746C111.028,177.324 109.183,177.806 99.574,179.126C78.353,182.042 87.284,198.391 112,201.872ZM63.389,112.572C64.684,115.946 67.608,113.278 72.243,104.491C76.624,96.186 82.45,89.471 92.163,81.533C99.907,75.204 120.516,69 133.794,69C143.894,69 146.038,67.926 143.415,64.182C138.722,57.481 104.642,64.894 88.232,76.185C73.822,86.098 60.64,105.407 63.389,112.572ZM59.016,136.031C59.736,137.376 60.913,138.011 62.318,137.811C65.127,137.411 66.075,126.832 63.6,123.498C59.975,118.614 55.802,130.025 59.016,136.031Z" style="fill:rgb(82,143,255);"/>
    </g>
</svg>
