<?xml version="1.0" encoding="UTF-8" standalone="no"?><!DOCTYPE svg PUBLIC "-//W3C//DTD SVG 1.1//EN" "http://www.w3.org/Graphics/SVG/1.1/DTD/svg11.dtd"><svg width="100%" height="100%" viewBox="0 0 45 35" version="1.1" xmlns="http://www.w3.org/2000/svg" xmlns:xlink="http://www.w3.org/1999/xlink" xml:space="preserve" xmlns:serif="http://www.serif.com/" style="fill-rule:evenodd;clip-rule:evenodd;"><path d="M26.899,23.864c1.766,0 3.675,-0.685 4.717,-2.19l-1.388,-1.345c-0.759,0.971 -1.965,1.442 -3.177,1.442c-1.866,0 -3.105,-1.405 -3.373,-3.134l0,-0.054l8.133,0l0,-1.117c0,-3.144 -1.994,-5.769 -5.216,-5.769c-3.332,0 -5.53,2.931 -5.53,6.051l-0,0.445c-0,3.276 2.668,5.671 5.834,5.671Zm-0.315,-10.063c1.61,0 2.668,1.362 2.668,2.885l-5.52,-0c0.261,-1.472 1.247,-2.885 2.852,-2.885Z" style="fill:#f9f9f9;fill-rule:nonzero;"/><path d="M42.202,23.581l2.646,-0l-0,-0.185c-0.292,-0.611 -0.445,-1.467 -0.445,-2.515l-0,-5.216c-0,-2.655 -2.006,-4.034 -4.858,-4.034c-2.273,-0 -4.798,1.124 -4.836,3.611l2.602,-0c0,-1.144 1.109,-1.627 2.093,-1.627c1.553,0 2.407,0.804 2.407,2.028l0,0.792l-1.887,-0c-1.834,-0 -4.147,0.37 -5.085,2.168c-0.711,1.382 -0.442,3.188 0.759,4.197c1.781,1.564 4.688,1.275 6.289,-0.39c0.072,0.442 0.154,0.878 0.315,1.171Zm-3.156,-1.865c-1.018,-0 -1.995,-0.537 -1.995,-1.659c-0,-1.609 1.768,-1.985 3.09,-1.985l1.67,0l0,2.169c-0.491,0.982 -1.722,1.475 -2.765,1.475Z" style="fill:#ffb800;fill-rule:nonzero;"/><path d="M15.044,5.283c-12.19,1.812 -13.815,21.016 -0,23.916" style="fill:none;fill-rule:nonzero;stroke:#f9f9f9;stroke-width:2.56px;"/><path d="M16.613,10.898c-6.964,1.035 -7.66,11.393 0.232,13.05" style="fill:none;fill-rule:nonzero;stroke:#f9f9f9;stroke-width:2.56px;"/></svg>