<?xml version="1.0" encoding="UTF-8" standalone="no"?>
<svg
   id="Layer_1"
   data-name="Layer 1"
   viewBox="0 0 300 300"
   class="h-full w-full py-3"
   data-v-dad07da3=""
   version="1.1"
   sodipodi:docname="test.svg"
   inkscape:version="1.3.2 (091e20e, 2023-11-25)"
   xmlns:inkscape="http://www.inkscape.org/namespaces/inkscape"
   xmlns:sodipodi="http://sodipodi.sourceforge.net/DTD/sodipodi-0.dtd"
   xmlns="http://www.w3.org/2000/svg"
   xmlns:svg="http://www.w3.org/2000/svg">
  <defs
     id="defs1" />
  <sodipodi:namedview
     id="namedview1"
     pagecolor="#ffffff"
     bordercolor="#000000"
     borderopacity="0.25"
     inkscape:showpageshadow="2"
     inkscape:pageopacity="0.0"
     inkscape:pagecheckerboard="0"
     inkscape:deskcolor="#d1d1d1"
     inkscape:zoom="2.06"
     inkscape:cx="150"
     inkscape:cy="149.75728"
     inkscape:window-width="1392"
     inkscape:window-height="1212"
     inkscape:window-x="0"
     inkscape:window-y="25"
     inkscape:window-maximized="0"
     inkscape:current-layer="Layer_1" />
  <path
     fill="currentColor"
     class="cls-2"
     d="m201.49,55.51c.7,12.84-6.19,25-14.17,36.85-1.54,2.28-6.1,5.27-3.09,7.54,3.63,2.74,4.87-2.9,6.58-5.09,9.45-12.07,19.53-22.89,34.76-27.74,26.3-8.38,54.93,6.33,63.45,33.14,4.91,15.43,5.7,30.74-1.93,45.51-10.62,20.56-36.34,31.89-59.33,26.33-5.62-1.36-11.14-3.18-16.72-4.72-1.58-.43-3.43-.86-4.06,1.36-.62,2.19,1.1,2.82,2.69,3.35,5.32,1.78,10.89,3.01,15.92,5.4,25.87,12.28,41.45,37.54,32.4,65.32-9.69,29.7-42.74,47.3-70.88,36.62-18.28-6.94-33.82-30.43-34.53-53.22-.12-3.67-.11-7.35-.23-11.02-.05-1.46-.09-3.24-2.01-3.35-2.29-.13-2.39,1.81-2.46,3.48-.27,6.61-.02,13.28-.82,19.81-3.14,25.63-22.31,48.79-51.82,48.97-19.57.12-43.76-16.43-51.11-35.39-7.83-20.2-2.29-42.37,13.79-57.97,8.4-8.15,18.44-12.67,29.12-16.37,2.13-.74,6.24-.77,5.22-4.15-1.09-3.61-4.38-.94-6.5-.31-9.36,2.76-18.48,6.65-28.53,5.74-15.81-1.43-30.5-6.09-40.53-19.29-13.98-18.4-14.59-38.83-4.71-59.16,9.58-19.71,25.37-31.33,47.69-30,18.25,1.08,32.86,10.31,44.03,25.04,1.98,2.62,3.97,5.24,6,7.82.93,1.18,2.1,2.38,3.66,1.31,2.02-1.39.62-2.96-.23-4.26-3.57-5.52-7.81-10.69-10.74-16.54-9.25-18.45-10.81-37.2-.03-55.72C115.43,2.34,142.99-3.85,164.81,2.17c23.25,6.41,36.38,25.25,36.68,53.34Zm-52.65,46.11c-29.19-.16-48.3,27.22-47.56,49.83.99,30.55,27.49,48.7,49.01,47.86,30.74-1.19,47.47-27.27,47.25-48.56-.32-31.55-25.8-49.91-48.7-49.13Z"
     id="path1"
     style="fill:#ffffff;fill-opacity:1" />
</svg>
