<?xml version="1.0" encoding="UTF-8" standalone="no"?><!DOCTYPE svg PUBLIC "-//W3C//DTD SVG 1.1//EN" "http://www.w3.org/Graphics/SVG/1.1/DTD/svg11.dtd"><svg width="100%" height="100%" viewBox="0 0 5925 5484" version="1.1" xmlns="http://www.w3.org/2000/svg" xmlns:xlink="http://www.w3.org/1999/xlink" xml:space="preserve" xmlns:serif="http://www.serif.com/" style="fill-rule:evenodd;clip-rule:evenodd;stroke-linejoin:round;stroke-miterlimit:2;"><path d="M714.758,1762.85c12.15,67.362 31.771,138.021 58.679,211.458l0,1.388c151.217,416.495 476.217,891.841 865.971,1347.57c416.321,486.805 901.392,944.096 1330.38,1284.72c396.008,-322.046 832.466,-724.129 1220.14,-1159.03c358.163,-401.912 670.313,-826.216 860.417,-1230.73l-0,-1.391c60.937,-128.992 106.079,-252.95 135.246,-371.7l-0,-1.388c27.95,-113.717 41.837,-226.737 41.837,-338.892c0,-112.15 -20.137,-210.066 -60.242,-300.866c-41.145,-93.229 -104.512,-180.384 -189.758,-260.763l-2.775,-2.779c-85.767,-82.117 -179.862,-142.883 -282.121,-182.638c-104.512,-40.625 -222.741,-60.937 -354.512,-60.937c-131.771,0 -253.471,21.875 -363.367,65.796c-381.6,152.083 -816.146,734.896 -1011.63,1038.2c-218.404,-308.334 -624.134,-881.425 -1017.01,-1035.42c-110.937,-43.575 -232.641,-65.45 -364.933,-65.45c-132.292,-0 -249.129,20.658 -353.817,61.804c-103.996,40.8 -198.787,102.604 -284.375,184.896c-82.987,81.596 -144.791,170.658 -184.896,267.533c-40.8,98.438 -61.112,210.417 -61.112,336.113c-0,75.866 5.904,146.875 17.883,212.5m-594.791,451.042c-38.542,-105.034 -68.059,-214.759 -88.542,-328.646c-21.008,-115.8 -31.425,-227.605 -31.425,-335.071c-0,-214.234 38.542,-414.234 115.625,-600.171c77.429,-186.979 192.187,-354.517 344.096,-502.954l1.391,-1.388c152.255,-146.7 323.438,-257.637 513.021,-331.946c187.846,-73.608 390.275,-110.762 607.117,-110.762c216.842,-0 423.958,38.367 618.054,114.408c192.883,75.696 370.142,187.675 531.25,335.767c82.813,75.171 160.071,162.5 231.425,261.804c67.013,-95.658 139.929,-180.383 219.271,-254.342l1.387,-1.387c162.85,-150.175 341.667,-264.063 536.288,-341.667c196.525,-78.3 402.95,-117.533 619.271,-117.533c216.316,-0 416.316,36.458 604.858,109.896c188.371,73.262 358.683,182.116 510.767,327.083c154.858,146.179 271.7,308.679 350.346,486.804c80.208,181.425 120.137,375.346 120.137,581.25c0,163.717 -21.179,332.117 -63.712,505.034l-0.35,-0c-41.146,167.537 -101.563,335.416 -181.25,503.82l-0.521,0c-223.608,474.825 -573.438,954.513 -968.75,1398.09c-485.067,544.271 -1045.83,1042.88 -1524.13,1411.63l-207.642,160.071l-210.242,-154.687c-511.804,-376.388 -1135.42,-944.271 -1656.6,-1553.65c-438.02,-512.325 -808.333,-1060.07 -990.625,-1561.46l-0.52,0Zm4735.25,-951.908l-1005.38,946.875l-22.566,-569.967l-855.384,1334.03l-855.383,-1334.03l-22.567,569.792l-1005.38,-946.875l1331.77,1948.26l-13.717,-540.275l458.163,470.137l-412.155,642.708l519.096,-532.812l519.1,532.812l-412.154,-642.708l458.158,-470.137l-13.887,540.275l1331.77,-1948.26l0.521,0.175Z" style="fill:#fff;fill-rule:nonzero;"/></svg>