<?xml version="1.0" encoding="UTF-8" standalone="no"?><!DOCTYPE svg PUBLIC "-//W3C//DTD SVG 1.1//EN" "http://www.w3.org/Graphics/SVG/1.1/DTD/svg11.dtd"><svg width="100%" height="100%" viewBox="0 0 4105 2974" version="1.1" xmlns="http://www.w3.org/2000/svg" xmlns:xlink="http://www.w3.org/1999/xlink" xml:space="preserve" xmlns:serif="http://www.serif.com/" style="fill-rule:evenodd;clip-rule:evenodd;stroke-linejoin:round;stroke-miterlimit:2;"><g><rect x="456.6" y="0" width="3190.97" height="1885.42" style="fill:none;"/><path d="M2690.97,1894.1l303.817,-321.179l-1243.05,-1180.56c-241.321,-223.958 -428.821,-392.358 -713.542,-392.358c-411.458,0 -581.596,321.179 -581.596,706.596l0,1118.05l473.958,0l0,-1145.83c0,-133.679 36.459,-241.317 142.359,-241.317c71.183,0 125,53.817 223.958,133.679l1394.1,1322.92Z" style="fill:#fff;fill-rule:nonzero;"/><rect x="3173.61" y="62.5" width="473.958" height="1751.74" style="fill:#fff;"/></g><g><rect x="1.737" y="2406.25" width="4102.43" height="564.238" style="fill:none;"/><rect x="1.737" y="2406.25" width="4098.96" height="564.238" style="fill:none;"/><path d="M875,2779.51l154.517,-0l-0,182.291l71.179,0l-0,-182.291l152.779,-0l0,-59.03l-378.475,0l0,59.03Z" style="fill:#fff;fill-rule:nonzero;"/><path d="M1578.12,2850.69c12.154,-5.209 19.1,-13.888 27.779,-22.567c5.209,-12.154 12.154,-22.571 12.154,-36.458c0,-22.571 -8.683,-39.934 -22.57,-52.084c-13.888,-12.154 -34.721,-17.362 -57.292,-17.362l-258.679,-0l-0,244.791l67.708,0l0,-45.137l270.833,52.083l0,-59.029l-293.404,-53.821l213.542,0c15.625,-1.733 29.512,-3.471 39.929,-10.416Zm-230.9,-39.929l0,-34.721l177.083,-0c5.209,-0 12.15,3.471 13.888,5.208c3.471,3.471 5.208,8.679 5.208,12.15c0,5.208 -3.471,8.683 -5.208,12.154c-3.471,3.471 -8.679,5.209 -13.888,5.209l-177.083,-0Z" style="fill:#fff;fill-rule:nonzero;"/><rect x="1.737" y="2720.48" width="71.179" height="244.792" style="fill:#fff;"/><path d="M852.433,2842.01c-13.891,-12.155 -39.933,-19.096 -74.654,-22.571l-154.512,-19.096c-5.209,-0 -12.154,-3.471 -13.892,-3.471c-1.733,0 -5.208,-3.475 -8.679,-3.475c-3.471,0 -3.471,-3.471 -3.471,-5.208c0,-3.471 3.471,-5.209 8.679,-8.679c5.209,-3.471 13.888,-5.209 26.042,-5.209c12.154,-3.471 27.779,-3.471 45.137,-3.471c34.725,0 65.975,3.471 93.75,8.68c26.042,5.208 53.821,17.362 83.334,27.779l-0,-60.767c-17.359,-8.679 -39.93,-17.358 -65.971,-22.567c-26.042,-5.208 -57.292,-8.683 -92.013,-8.683c-34.725,0 -62.5,3.475 -88.541,8.683c-26.042,5.209 -45.142,13.888 -59.029,27.775c-13.888,12.155 -19.096,26.042 -19.096,45.142c-0,17.358 8.679,31.25 22.566,39.929c13.892,12.154 39.934,17.363 74.654,22.571l142.363,19.096c8.679,-0 17.358,3.471 19.096,3.471c5.208,-0 8.679,3.475 12.154,3.475c3.471,3.471 3.471,3.471 3.471,5.208c-0,5.208 -3.471,8.679 -12.154,12.15c-5.209,3.475 -17.359,5.208 -31.25,8.683c-13.888,3.471 -27.775,3.471 -48.609,3.471c-31.25,0 -62.5,-3.471 -92.016,-12.154c-27.775,-5.208 -57.292,-19.096 -85.067,-34.721l-0,67.709c22.567,12.154 45.137,19.095 71.179,26.041c26.042,5.209 57.292,8.679 92.013,8.679c36.458,0 71.183,-3.47 97.225,-12.15c26.041,-8.683 45.137,-17.362 57.291,-31.25c12.15,-13.891 19.096,-27.779 19.096,-45.141c3.471,-13.888 -5.208,-27.775 -19.096,-39.929Z" style="fill:#fff;fill-rule:nonzero;"/><path d="M427.083,2951.39l-185.762,-230.905l-128.471,0l0,244.792l71.179,0l0,-190.971l8.679,0l154.517,190.971l151.042,0l-0,-244.792l-71.184,0l0,230.905Z" style="fill:#fff;fill-rule:nonzero;"/><path d="M3366.32,2779.51l154.512,-0l0,182.291l71.184,0l-0,-182.291l154.512,-0l0,-59.03l-376.737,0l-0,59.03l-3.471,-0Z" style="fill:#fff;fill-rule:nonzero;"/><path d="M3267.36,2951.39l-185.763,-230.905l-128.475,0l0,244.792l71.183,0l0,-190.971l8.679,0l154.513,190.971l151.042,0l-0,-244.792l-71.18,0l0,230.905Z" style="fill:#fff;fill-rule:nonzero;"/><path d="M2579.86,2965.28l342.012,0l0,-59.025l-274.304,0l-0,-38.196l243.054,0l0,-53.821l-243.054,0l-0,-31.25l274.304,0l0,-59.025l-342.012,0l-0,241.317Z" style="fill:#fff;fill-rule:nonzero;"/><path d="M4079.86,2842.01c-13.888,-12.155 -39.93,-19.096 -74.655,-22.571l-154.512,-19.096c-5.208,-0 -12.154,-3.471 -13.888,-3.471c-1.737,0 -5.208,-3.475 -8.683,-3.475c-3.471,0 -3.471,-3.471 -3.471,-5.208c0,-3.471 3.471,-5.209 8.679,-8.679c5.209,-3.471 13.892,-5.209 26.042,-5.209c12.154,-3.471 27.779,-3.471 45.142,-3.471c34.721,0 65.971,3.471 93.75,8.68c26.041,5.208 53.816,17.362 83.333,27.779l0,-60.767c-17.362,-8.679 -39.933,-17.358 -65.975,-22.567c-26.042,-5.208 -57.292,-8.683 -92.012,-8.683c-34.721,0 -62.5,3.475 -88.542,8.683c-26.042,5.209 -45.138,13.888 -59.029,27.775c-13.888,12.155 -19.096,26.042 -19.096,45.142c-0,17.358 8.679,31.25 22.571,39.929c13.887,12.154 39.929,17.363 74.65,22.571l142.362,19.096c8.679,-0 17.363,3.471 19.096,3.471c5.208,-0 8.683,3.475 12.154,3.475c3.471,3.471 3.471,3.471 3.471,5.208c0,5.208 -3.471,8.679 -12.15,12.15c-5.208,3.475 -17.362,5.208 -31.25,8.683c-13.892,3.471 -27.779,3.471 -48.612,3.471c-31.25,0 -62.5,-3.471 -92.013,-12.154c-27.779,-5.208 -57.292,-19.096 -85.071,-34.721l0,67.709c22.571,12.154 45.138,19.095 71.179,26.041c26.042,5.209 57.292,8.679 92.017,8.679c36.458,0 71.179,-3.47 97.221,-12.15c26.042,-8.683 45.137,-17.362 57.292,-31.25c12.154,-13.891 19.095,-27.779 19.095,-45.141c3.475,-13.888 -5.208,-27.775 -19.095,-39.929Z" style="fill:#fff;fill-rule:nonzero;"/><path d="M2296.88,2951.39l-105.9,-230.905l-133.683,0l-0,244.792l71.183,0l-0,-190.971l8.679,0l88.542,190.971l138.887,0l88.542,-190.971l8.683,0l0,190.971l71.179,0l0,-244.792l-133.679,0l-102.433,230.905Z" style="fill:#fff;fill-rule:nonzero;"/><path d="M1946.18,2842.01c0,13.887 -5.208,26.041 -13.891,34.72c-8.68,12.155 -19.096,19.1 -36.459,26.042c-17.358,5.208 -36.458,8.683 -59.025,8.683c-22.57,0 -45.141,-3.475 -59.029,-8.683c-17.362,-5.208 -27.779,-13.887 -36.458,-26.042c-8.679,-12.15 -13.888,-22.566 -13.888,-34.72l0,-123.263l-74.654,0l0,123.263c0,26.041 8.679,48.612 22.571,67.708c13.888,19.096 36.458,34.721 65.971,43.404c27.779,12.15 59.029,13.888 97.221,13.888c38.196,-0 67.708,-5.209 97.225,-13.888c27.775,-12.154 48.608,-26.042 65.971,-43.404c13.887,-19.096 22.57,-43.404 22.57,-67.708l0,-123.263l-71.183,0l-6.942,123.263Z" style="fill:#fff;fill-rule:nonzero;"/><path d="M914.933,2651.04l71.18,-0l-0,-182.292l154.512,0l0,-59.029l-380.208,-0l-0,59.029l154.516,0l0,182.292Z" style="fill:#fff;fill-rule:nonzero;"/><path d="M526.042,2592.01l185.766,-0l36.459,57.291l83.333,0l-164.933,-244.791l-97.221,-0l-164.929,244.791l83.333,0l38.192,-57.291Zm88.541,-131.946l12.154,-0l52.084,79.862l-114.584,0l50.346,-79.862Z" style="fill:#fff;fill-rule:nonzero;"/><rect x="1163.2" y="2406.25" width="71.179" height="244.792" style="fill:#fff;"/><path d="M383.683,2651.04l0,-244.792l-71.183,0l0,230.9l-185.762,-230.9l-126.738,0l0,244.792l71.183,-0l0,-190.975l8.68,-0l154.512,190.975l149.308,-0Z" style="fill:#fff;fill-rule:nonzero;"/><path d="M1675.35,2651.04l342.013,-0l-0.001,-59.029l-274.304,-0l0,-36.459l243.054,0l0,-53.821l-243.054,0l0,-32.983l274.304,0l0,-59.029l-342.012,-0l0,241.321Z" style="fill:#fff;fill-rule:nonzero;"/><path d="M1527.78,2651.04l125,-244.792l-79.862,0l-116.317,230.9l-116.321,-230.9l-79.862,0l125,244.792l142.362,-0Z" style="fill:#fff;fill-rule:nonzero;"/></g></svg>