<?xml version="1.0" encoding="UTF-8" standalone="no"?>
<!-- Created with Inkscape (http://www.inkscape.org/) -->

<svg
   version="1.1"
   id="svg1"
   width="614.65924"
   height="623.37775"
   viewBox="0 0 614.65924 623.37775"
   xmlns="http://www.w3.org/2000/svg"
   xmlns:svg="http://www.w3.org/2000/svg">
  <defs
     id="defs1" />
  <g
     id="g1"
     style="fill:#ffffff"
     transform="translate(-9.2799997,-8.2769251)">
    <path
       style="fill:#ffffff"
       d="m 46.24,631.149 c -1.232,-0.26335 -3.536,-0.98137 -5.12,-1.59559 -1.584,-0.61422 -4.217874,-1.61101 -5.853052,-2.21509 -1.980385,-0.7316 -3.531294,-1.09832 -4.644993,-1.09832 -1.003318,0 -2.11784,0.23481 -2.786948,0.58715 -0.613254,0.32293 -1.639325,1.35955 -2.280158,2.30359 -0.640833,0.94404 -1.432833,1.81373 -1.76,1.93265 -0.327167,0.11891 -0.841773,0.0879 -1.143568,-0.0688 -0.301796,-0.15676 -0.699173,-0.82267 -0.883061,-1.4798 -0.183888,-0.65713 -1.124964,-7.23656 -2.091281,-14.62097 C 18.710623,607.50941 17.92,600.79504 17.92,599.973 c 0,-0.91623 0.179813,-1.64387 0.464644,-1.88026 0.255554,-0.21209 0.761133,-0.29151 1.123509,-0.1765 0.362377,0.11501 0.857884,0.59491 1.101128,1.06644 0.243244,0.47153 0.976926,2.29732 1.630404,4.05732 0.653478,1.76 1.88021,4.59173 2.726071,6.29272 0.845862,1.701 2.279617,4.19186 3.186123,5.53525 0.906507,1.34338 2.598859,3.45027 3.760783,4.68197 1.161924,1.2317 3.302192,3.03099 4.756151,3.99842 1.453959,0.96743 3.777176,2.17268 5.162703,2.67834 1.385528,0.50565 3.724559,1.09563 5.197847,1.31105 1.568022,0.22927 3.884422,0.31248 5.586605,0.20067 1.599344,-0.10506 3.915029,-0.49939 5.145965,-0.87629 1.230937,-0.3769 3.246067,-1.20748 4.478067,-1.84572 1.594548,-0.82606 3.12415,-2.03871 5.308386,-4.20843 1.687612,-1.67639 3.51161,-3.83998 4.053328,-4.80798 0.541718,-0.968 1.308097,-2.696 1.703065,-3.84 0.564511,-1.63507 0.719182,-2.79873 0.723077,-5.44 0.0037,-2.49464 -0.175492,-4.00361 -0.695678,-5.85898 -0.385349,-1.37444 -1.078103,-3.24644 -1.539453,-4.16 -0.461351,-0.91356 -1.277234,-2.30902 -1.813074,-3.10102 -0.53584,-0.792 -2.136468,-2.64418 -3.556952,-4.11596 -1.420485,-1.47177 -3.806699,-3.7163 -5.302699,-4.98783 -1.496,-1.27154 -4.376,-3.53911 -6.4,-5.03905 -2.024,-1.49995 -6.488,-4.64214 -9.92,-6.98266 -3.432,-2.34052 -7.847351,-5.45564 -9.811891,-6.92249 -1.96454,-1.46684 -4.456197,-3.5513 -5.537017,-4.63212 -1.08082,-1.08082 -2.546171,-2.82075 -3.256335,-3.86651 -0.710165,-1.04577 -1.653138,-2.71859 -2.095495,-3.71739 -0.442357,-0.99879 -1.064677,-2.83228 -1.382934,-4.07441 -0.318256,-1.24214 -0.674341,-3.54614 -0.7913,-5.12 -0.116959,-1.57387 -0.0642,-4.12342 0.117249,-5.66567 0.181446,-1.54225 0.564242,-3.77425 0.850657,-4.96 0.286416,-1.18575 1.242305,-3.65458 2.124198,-5.48629 1.404506,-2.91718 1.966926,-3.69539 4.533155,-6.27238 1.768808,-1.77622 3.817318,-3.46075 5.169713,-4.25113 1.232,-0.72003 3.337289,-1.67474 4.67842,-2.12158 1.341131,-0.44685 3.820934,-0.9666 5.510672,-1.15502 2.201155,-0.24544 3.795576,-0.24354 5.623326,0.007 1.403091,0.19211 3.339831,0.55474 4.303867,0.80584 0.964035,0.2511 4.168464,1.33198 7.120952,2.40196 2.952487,1.06997 5.966989,2.02749 6.698891,2.12781 0.928138,0.12721 1.695921,0.009 2.537825,-0.39041 0.891446,-0.42302 1.392602,-0.9732 1.91651,-2.104 0.390179,-0.84216 0.893576,-1.7531 1.118659,-2.02431 0.225083,-0.27121 0.657292,-0.49311 0.960464,-0.49311 0.303172,0 0.790763,0.26469 1.083536,0.5882 0.430798,0.47603 0.817919,3.55299 2.029926,16.13452 1.244939,12.92337 1.426833,15.6316 1.0781,16.0518 -0.230732,0.27801 -0.744249,0.50548 -1.141148,0.50548 -0.396899,0 -0.869519,-0.18 -1.050265,-0.4 -0.180746,-0.22 -0.785332,-1.97109 -1.343523,-3.89131 -0.558191,-1.92022 -1.550647,-4.734 -2.205459,-6.25285 -0.654811,-1.51885 -1.72022,-3.70865 -2.367574,-4.86623 -0.647355,-1.15758 -1.831928,-2.97592 -2.632385,-4.04076 -0.800457,-1.06485 -2.615289,-3.02724 -4.03296,-4.36089 -1.911192,-1.79791 -3.336412,-2.79932 -5.512709,-3.87343 C 57.480806,519.35808 55.152,518.49587 53.92,518.2388 c -1.232,-0.25707 -3.469746,-0.4699 -4.972768,-0.47295 -1.503023,-0.003 -3.591023,0.2126 -4.64,0.47925 -1.048978,0.26665 -2.980561,1.00901 -4.292408,1.64969 -1.69711,0.82884 -3.042991,1.8227 -4.66549,3.4452 -1.506644,1.50664 -2.622173,2.98263 -3.287906,4.35031 -0.554176,1.13849 -1.226705,2.92824 -1.49451,3.97722 C 30.299113,532.71621 30.08,534.73795 30.08,536.16 c 0,1.42205 0.220549,3.44379 0.490109,4.49277 0.26956,1.04898 0.994107,2.97575 1.610104,4.28172 0.615996,1.30597 1.823131,3.32197 2.682521,4.48 0.85939,1.15803 2.690844,3.19432 4.069897,4.5251 1.379053,1.33077 3.659369,3.28343 5.067369,4.33924 1.408,1.05581 7.672,5.57505 13.92,10.04275 9.208865,6.5849 11.965954,8.73261 14.56,11.3419 1.76,1.77034 3.963632,4.33286 4.896959,5.69449 0.933328,1.36163 2.272959,3.6265 2.976958,5.03305 0.703999,1.40654 1.651846,3.96397 2.106326,5.68317 0.686279,2.59604 0.826124,3.83086 0.825126,7.28581 -9.38e-4,3.24425 -0.152471,4.72354 -0.688373,6.72 -0.377945,1.408 -1.192811,3.62722 -1.810815,4.9316 -0.618004,1.30438 -1.749607,3.24838 -2.514674,4.32 -0.765066,1.07162 -2.539166,3.04492 -3.942442,4.3851 -1.403277,1.34019 -3.553662,3.03213 -4.778633,3.75987 -1.224972,0.72774 -3.411016,1.7552 -4.857876,2.28324 -1.44686,0.52804 -3.869445,1.1761 -5.383522,1.44013 -1.554038,0.271 -4.511388,0.4687 -6.790951,0.45397 -2.267857,-0.0146 -5.02006,-0.23599 -6.278083,-0.50491 z m 72.8,-0.0704 c -1.496,-0.32596 -3.81177,-1.04736 -5.14616,-1.6031 -1.33439,-0.55574 -3.56639,-1.7537 -4.96,-2.66214 -1.39361,-0.90844 -3.9061,-3.02909 -5.58332,-4.71255 -1.78989,-1.79657 -3.945849,-4.40735 -5.219622,-6.32076 -1.193582,-1.79295 -2.866201,-4.67295 -3.716929,-6.4 -0.850729,-1.72705 -2.054506,-4.50809 -2.675061,-6.18009 -0.620555,-1.672 -1.501986,-4.51522 -1.958735,-6.31827 -0.45675,-1.80305 -1.105844,-4.89905 -1.442431,-6.88 -0.336586,-1.98095 -0.787182,-5.67646 -1.001324,-8.21225 -0.249869,-2.95887 -0.319602,-7.20038 -0.194655,-11.84 0.107082,-3.97621 0.421302,-8.88548 0.698268,-10.90948 0.276966,-2.024 0.872791,-5.336 1.324056,-7.36 0.451265,-2.024 1.182202,-4.8276 1.624303,-6.23022 0.442101,-1.40262 1.422323,-3.99462 2.178271,-5.76 0.755947,-1.76538 2.042159,-4.39402 2.858248,-5.84143 0.816089,-1.4474 2.332363,-3.77611 3.369499,-5.17489 1.037132,-1.39879 2.957382,-3.61493 4.267212,-4.92476 1.30984,-1.30984 3.31466,-3.04739 4.45516,-3.86124 1.14051,-0.81385 3.24319,-2.06509 4.67262,-2.78055 1.42944,-0.71545 4.00559,-1.66619 5.72479,-2.11274 2.57325,-0.66839 3.88947,-0.8146 7.44581,-0.82714 3.33718,-0.0118 4.95241,0.13795 7.09976,0.65807 1.52887,0.3703 3.65455,1.02874 4.72374,1.46319 1.06918,0.43445 2.82433,1.3247 3.90032,1.97833 1.076,0.65363 3.016,2.04086 4.31112,3.08273 1.29511,1.04187 3.30673,3.00048 4.47026,4.35248 1.16353,1.35199 2.96424,3.74101 4.00157,5.30893 1.03733,1.56792 2.53372,4.17335 3.32531,5.78985 0.79159,1.61651 1.94287,4.33036 2.5584,6.03079 0.61553,1.70043 1.48379,4.53022 1.92947,6.28842 0.44568,1.75819 1.08356,4.8175 1.41752,6.79845 0.33395,1.98095 0.78445,5.75832 1.00111,8.39416 0.25277,3.07515 0.32388,7.3178 0.19845,11.84 -0.10751,3.87616 -0.42164,8.70357 -0.69806,10.72757 -0.27641,2.024 -0.87217,5.336 -1.3239,7.36 -0.45173,2.024 -1.31494,5.192 -1.91824,7.04 -0.60329,1.848 -1.96556,5.16 -3.02725,7.36 -1.0617,2.2 -2.85664,5.39147 -3.98876,7.09217 -1.13213,1.70069 -3.15307,4.25579 -4.49098,5.678 -1.33791,1.42221 -3.39046,3.31315 -4.56121,4.20208 -1.17074,0.88894 -3.42463,2.25073 -5.00863,3.02621 -1.584,0.77548 -3.96,1.72225 -5.28,2.10395 -1.89605,0.54827 -3.4751,0.71865 -7.52,0.81144 -4.11863,0.0945 -5.65198,0.002 -7.84,-0.47521 z m 11.04,-3.39843 c 1.232,-0.25778 3.392,-1.03789 4.8,-1.73358 1.408,-0.69569 3.352,-1.93967 4.32,-2.76441 0.968,-0.82473 2.4534,-2.31012 3.30089,-3.30087 0.84749,-0.99074 2.18697,-2.76796 2.97662,-3.94938 0.78965,-1.18142 2.1292,-3.62942 2.97677,-5.44 0.84757,-1.81058 1.98901,-4.65997 2.53654,-6.33197 0.54752,-1.672 1.3521,-4.552 1.78795,-6.4 0.43585,-1.848 1.01017,-4.872 1.27626,-6.72 0.26609,-1.848 0.65059,-5.376 0.85444,-7.84 0.23275,-2.81335 0.30404,-7.8133 0.19162,-13.44 -0.10639,-5.32514 -0.38295,-10.45289 -0.68173,-12.64 -0.2765,-2.024 -0.87182,-5.46975 -1.32292,-7.65723 -0.45111,-2.18748 -1.38363,-5.69307 -2.07227,-7.7902 -0.68863,-2.09713 -1.9039,-5.189 -2.70058,-6.87082 -0.79669,-1.68182 -2.26916,-4.29623 -3.27215,-5.8098 -1.003,-1.51357 -2.92074,-3.83195 -4.26166,-5.15195 -1.34091,-1.32 -3.25102,-2.88306 -4.24469,-3.47348 -0.99366,-0.59041 -2.67288,-1.42335 -3.73158,-1.85098 -1.05871,-0.42763 -3.11485,-0.93078 -4.56922,-1.11811 -2.1298,-0.27433 -3.20394,-0.24388 -5.52069,0.15653 -1.99194,0.34427 -3.6789,0.89478 -5.48629,1.79038 -1.76953,0.87684 -3.41188,2.04067 -5.10055,3.61446 -1.36986,1.27666 -3.3022,3.4135 -4.2941,4.74852 -0.9919,1.33503 -2.4803,3.73783 -3.30756,5.33956 -0.82726,1.60173 -2.01435,4.23341 -2.63798,5.84818 -0.62362,1.61478 -1.62411,4.84877 -2.223304,7.18666 -0.599193,2.33789 -1.379346,6.24591 -1.733674,8.6845 -0.354327,2.43858 -0.789584,6.59378 -0.967236,9.23378 -0.177653,2.64 -0.323005,6.672 -0.323005,8.96 0,2.288 0.145352,6.32 0.323005,8.96 0.177652,2.64 0.612909,6.7952 0.967236,9.23378 0.354328,2.43859 1.134481,6.34661 1.733674,8.6845 0.599194,2.33789 1.584704,5.53311 2.190024,7.10048 0.60532,1.56738 1.56548,3.77936 2.13368,4.91551 0.5682,1.13615 1.82279,3.24789 2.78797,4.69275 0.96518,1.44486 2.64619,3.54055 3.73558,4.65708 1.08939,1.11653 2.66275,2.49931 3.49636,3.07285 0.83361,0.57354 2.43155,1.4714 3.55099,1.99524 1.11943,0.52385 2.95248,1.15146 4.07345,1.39469 1.12097,0.24323 2.97413,0.45119 4.11813,0.46212 1.144,0.0109 3.088,-0.19102 4.32,-0.44879 z m 146.18573,3.54354 c -1.26185,-0.23873 -3.42185,-0.81012 -4.8,-1.26975 -1.37815,-0.45964 -3.44173,-1.30747 -4.58573,-1.88408 -1.144,-0.5766 -2.88295,-1.58159 -3.86432,-2.23331 -0.98138,-0.65171 -2.87734,-2.11754 -4.21324,-3.25739 -1.3359,-1.13985 -3.31656,-3.12248 -4.40147,-4.40584 -1.0849,-1.28336 -2.76637,-3.5216 -3.7366,-4.97388 -0.97023,-1.45227 -2.45891,-4.04427 -3.3082,-5.76 -0.84928,-1.71572 -2.11284,-4.7755 -2.80791,-6.7995 -0.69508,-2.024 -1.56931,-5.048 -1.94275,-6.72 -0.37344,-1.672 -0.89547,-4.408 -1.16005,-6.08 -0.26459,-1.672 -0.64904,-5.6797 -0.85433,-8.90599 -0.28649,-4.50226 -0.28463,-7.20304 0.008,-11.61721 0.20969,-3.16318 0.66328,-7.36348 1.00797,-9.33401 0.3447,-1.97054 0.98427,-4.91081 1.42127,-6.53394 0.437,-1.62314 1.32046,-4.35914 1.96325,-6.08 0.64278,-1.72087 1.74385,-4.28085 2.44681,-5.68885 0.70297,-1.408 2.0731,-3.784 3.04475,-5.28 0.97164,-1.496 2.59471,-3.73345 3.60681,-4.97212 1.01211,-1.23866 3.05242,-3.39866 4.53402,-4.8 1.48161,-1.40133 3.79195,-3.30602 5.13409,-4.23263 1.34214,-0.92661 3.63762,-2.25372 5.10108,-2.94913 1.46346,-0.6954 3.91312,-1.62236 5.44369,-2.05991 1.53057,-0.43754 4.31705,-0.96071 6.19218,-1.1626 2.53476,-0.27291 4.20142,-0.27529 6.49714,-0.009 1.6983,0.19677 4.27725,0.65273 5.73099,1.01323 1.45374,0.36051 4.3475,1.28225 6.43057,2.04832 2.08307,0.76607 4.38038,1.55252 5.10513,1.74768 1.0488,0.28241 1.54543,0.25969 2.43343,-0.11134 0.66806,-0.27914 1.58577,-1.12048 2.28733,-2.09699 0.64439,-0.89696 1.45557,-1.78279 1.80262,-1.96852 0.4881,-0.26123 0.76949,-0.21236 1.24257,0.21578 0.33638,0.30441 0.75559,1.07188 0.9316,1.7055 0.17601,0.63362 0.32089,2.23203 0.32197,3.55203 0.001,1.32 0.43388,7.41789 0.96178,13.55086 0.52791,6.13298 0.95983,11.98335 0.95983,13.00082 0,1.22685 -0.1565,1.97984 -0.46464,2.23558 -0.25556,0.21209 -0.75478,0.29353 -1.10939,0.18098 -0.44702,-0.14188 -0.80674,-0.76331 -1.17301,-2.02643 -0.29055,-1.002 -1.0812,-3.62181 -1.757,-5.82181 -0.67579,-2.2 -1.88717,-5.35072 -2.69194,-7.00159 -0.80477,-1.65088 -2.20191,-4.07014 -3.10474,-5.37613 -0.90283,-1.30599 -2.67995,-3.33928 -3.94915,-4.51841 -1.2692,-1.17913 -3.10601,-2.62206 -4.08181,-3.20652 -0.9758,-0.58446 -2.77745,-1.41156 -4.00367,-1.838 -1.22622,-0.42643 -3.36241,-0.93431 -4.74707,-1.12861 -1.42698,-0.20024 -3.61478,-0.2589 -5.05039,-0.13541 -1.39305,0.11983 -3.58665,0.48739 -4.87466,0.81681 -1.28802,0.32942 -3.34032,1.01846 -4.56066,1.53119 -1.22034,0.51273 -3.23736,1.60938 -4.48227,2.437 -1.24492,0.82761 -3.12437,2.36564 -4.17656,3.41783 -1.0522,1.0522 -2.79317,3.22883 -3.86884,4.83697 -1.07566,1.60813 -2.6529,4.3731 -3.50498,6.14438 -0.85208,1.77127 -2.11725,4.87649 -2.8115,6.90049 -0.69424,2.024 -1.56436,4.976 -1.9336,6.56 -0.36923,1.584 -0.8872,4.248 -1.15104,5.92 -0.26383,1.672 -0.63662,4.61512 -0.82841,6.54028 -0.19179,1.92515 -0.34871,6.61414 -0.34871,10.41997 0,4.36866 0.18729,8.44598 0.50802,11.05973 0.27942,2.27701 0.87584,5.7847 1.32538,7.79486 0.44954,2.01016 1.24992,4.8804 1.77862,6.37831 0.52869,1.49791 1.52721,3.94846 2.21892,5.44567 0.69171,1.49721 2.21535,4.17097 3.38585,5.94169 1.43153,2.16557 3.34273,4.42415 5.83833,6.89949 2.57806,2.55712 4.50717,4.15309 6.32222,5.23043 1.43664,0.85274 3.81012,1.96258 5.27439,2.46631 1.46427,0.50374 3.74231,1.08374 5.06231,1.28889 1.38596,0.2154 3.81965,0.29775 5.76,0.1949 1.848,-0.098 4.296,-0.41434 5.44,-0.70308 1.144,-0.28874 3.664,-1.30648 5.6,-2.26164 2.20647,-1.0886 4.57339,-2.58804 6.34289,-4.01819 1.55259,-1.25485 4.19982,-3.85416 5.88273,-5.77624 2.33053,-2.66175 3.22125,-3.47166 3.7371,-3.39804 0.49158,0.0702 0.7032,0.36075 0.77183,1.05984 0.0645,0.65751 -0.23382,1.46993 -0.94015,2.56 -0.56907,0.87825 -2.77288,3.32482 -4.89736,5.43682 -2.20946,2.1965 -5.12242,4.69947 -6.80604,5.84812 -1.61886,1.10446 -4.13759,2.57557 -5.59719,3.26913 -1.45959,0.69355 -3.94981,1.64598 -5.53381,2.11652 -2.51124,0.74597 -3.55606,0.86886 -8.16,0.95977 -3.52234,0.0696 -6.04374,-0.0402 -7.57427,-0.32979 z m -111.91937,-1.8849 c -0.31677,-0.23163 -0.52326,-0.69477 -0.45886,-1.02919 0.0816,-0.42374 0.81282,-0.86486 2.41231,-1.45527 1.26237,-0.46597 2.93815,-1.22401 3.72397,-1.68453 0.78582,-0.46052 1.82672,-1.30813 2.31311,-1.88358 0.48638,-0.57546 1.14454,-1.6317 1.46257,-2.34721 0.31803,-0.71552 0.81874,-2.51552 1.11269,-4 0.4754,-2.4008 0.55006,-6.81296 0.67561,-39.92611 0.0923,-24.32982 0.0233,-39.07464 -0.1991,-42.56 -0.18713,-2.93313 -0.53617,-6.05296 -0.77564,-6.93296 -0.23948,-0.88 -0.73218,-2.176 -1.09491,-2.88 -0.36272,-0.704 -1.06868,-1.65562 -1.5688,-2.11471 -0.50012,-0.45909 -1.34131,-1.07697 -1.86931,-1.37306 -0.528,-0.2961 -2.02452,-0.92848 -3.3256,-1.40529 -1.30108,-0.47682 -2.52264,-1.11624 -2.71457,-1.42094 -0.27053,-0.42945 -0.2218,-0.68123 0.21678,-1.12 0.52274,-0.52295 1.76077,-0.5741 16.27767,-0.67252 8.98714,-0.0609 18.19301,0.0427 21.50881,0.24209 3.19314,0.19203 7.01864,0.62223 8.51691,0.95778 1.496,0.33505 3.90951,1.0446 5.36336,1.57679 1.45386,0.53218 3.50428,1.49058 4.5565,2.12977 1.05222,0.6392 2.69056,1.79546 3.64076,2.56949 0.95019,0.77402 2.41366,2.31255 3.25214,3.41896 0.83848,1.1064 2.06275,3.16364 2.7206,4.57164 0.65784,1.408 1.43175,3.52032 1.71979,4.69405 0.28804,1.17373 0.68157,3.40573 0.87451,4.96 0.19295,1.55427 0.26556,4.33795 0.16137,6.18595 -0.1042,1.848 -0.48415,4.512 -0.84433,5.92 -0.36018,1.408 -1.13653,3.568 -1.72523,4.8 -0.58869,1.232 -1.71551,3.10931 -2.50404,4.1718 -0.78853,1.06249 -2.21258,2.59283 -3.16456,3.40075 -0.95198,0.80793 -2.57659,2.00639 -3.61025,2.66323 -1.03366,0.65685 -2.68966,1.55652 -3.68,1.99928 -0.99034,0.44275 -3.22713,1.28904 -4.97064,1.88064 -1.74351,0.5916 -3.43551,1.31591 -3.76,1.60957 -0.32449,0.2937 -0.58998,0.95508 -0.58998,1.46977 0,0.59872 4.12076,9.01448 11.44,23.36371 8.63881,16.93622 11.7832,22.80987 12.84161,23.98789 0.77089,0.858 1.85089,1.80319 2.4,2.10042 0.54912,0.29723 2.07684,0.97525 3.39494,1.5067 1.66407,0.67095 2.43269,1.15542 2.5148,1.58513 0.065,0.34037 -0.14094,0.80837 -0.45771,1.04 -0.43643,0.31912 -2.34807,0.42115 -7.89069,0.42115 -5.97843,0 -7.48982,-0.0905 -8.27311,-0.4956 -0.78957,-0.4083 -1.51319,-1.6343 -4.10798,-6.96 -1.73228,-3.55542 -7.3433,-15.0324 -12.46894,-25.5044 -6.7683,-13.82804 -9.59629,-19.29308 -10.33103,-19.96454 l -1.01168,-0.92454 -4.6867,0.16612 c -3.383,0.11991 -4.9592,0.30703 -5.66632,0.6727 -0.5388,0.27863 -1.10128,0.76392 -1.24996,1.07842 -0.14867,0.31451 -0.31961,7.05138 -0.37986,14.97081 -0.0603,7.91943 0.0361,16.48743 0.21404,19.04 0.2039,2.92464 0.56391,5.4153 0.97342,6.7346 0.35742,1.15147 1.08034,2.7435 1.6065,3.53785 0.52615,0.79435 1.5736,1.87551 2.32765,2.4026 0.75406,0.52708 1.94702,1.19092 2.65102,1.47521 0.704,0.28428 2.13248,0.781 3.17441,1.10382 1.04192,0.32282 2.04992,0.84738 2.24,1.16569 0.27387,0.45864 0.21668,0.67447 -0.27557,1.04 -0.52114,0.38699 -3.15204,0.46126 -16.33884,0.46126 -12.49006,0 -15.83595,-0.0865 -16.29364,-0.42115 z M 194.08,571.34668 c 1.76,-0.10507 4.856,-0.46932 6.88,-0.80943 2.024,-0.34011 4.832,-0.99557 6.24,-1.45658 1.408,-0.46102 3.35296,-1.23715 4.32213,-1.72474 0.96917,-0.48759 2.66641,-1.56628 3.77164,-2.3971 1.10524,-0.83082 2.66435,-2.31446 3.4647,-3.29697 0.80035,-0.98251 1.86157,-2.59144 2.35827,-3.5754 0.4967,-0.98396 1.24063,-2.86394 1.65318,-4.17774 0.67052,-2.13536 0.75008,-2.99965 0.75008,-8.14872 0,-5.06448 -0.0891,-6.06776 -0.73789,-8.30876 -0.40583,-1.40182 -1.19116,-3.41782 -1.74518,-4.48 -0.61309,-1.17546 -2.01493,-2.93826 -3.58211,-4.50449 -2.10273,-2.10144 -3.1322,-2.84583 -5.61482,-4.05996 -1.672,-0.8177 -4.12,-1.77797 -5.44,-2.13393 -1.32,-0.35597 -3.696,-0.81624 -5.28,-1.02283 -1.72401,-0.22486 -4.37403,-0.29613 -6.60217,-0.17756 -2.04719,0.10893 -4.47054,0.35856 -5.38523,0.55472 -1.00902,0.2164 -2.08543,0.72752 -2.73706,1.29965 -0.5907,0.51864 -1.33534,1.62027 -1.65477,2.44807 -0.54032,1.40027 -0.58077,3.00196 -0.58077,22.99919 v 21.4941 l 0.75938,0.80844 c 0.41766,0.44465 1.13766,0.86813 1.6,0.94107 0.46234,0.0729 1.63262,0.0848 2.60062,0.0263 0.968,-0.0585 3.2,-0.19227 4.96,-0.29735 z m 123.04,58.1283 c -0.48094,-0.13299 -0.83965,-0.4945 -0.89942,-0.90645 -0.0596,-0.41078 0.13265,-0.80729 0.48,-0.98998 0.31868,-0.16762 1.70596,-0.61181 3.08285,-0.9871 1.37688,-0.37529 3.05341,-0.96293 3.72561,-1.30586 0.67221,-0.34293 1.73429,-1.22178 2.36018,-1.953 0.6259,-0.73122 1.43618,-2.21218 1.80063,-3.29104 0.36445,-1.07885 0.81201,-3.25755 0.99458,-4.84155 0.21867,-1.89717 0.29273,-16.9672 0.21703,-44.16 -0.087,-31.23177 -0.21019,-41.63052 -0.50627,-42.72 -0.21523,-0.792 -0.69053,-2.19133 -1.05621,-3.10962 -0.4024,-1.01047 -1.21185,-2.17379 -2.05033,-2.94668 -0.762,-0.70238 -1.93517,-1.50908 -2.60705,-1.79267 -0.67188,-0.28358 -2.19823,-0.73825 -3.3919,-1.01036 -1.19366,-0.27212 -2.48966,-0.7568 -2.88,-1.07707 -0.68174,-0.55937 -0.68719,-0.60519 -0.13833,-1.16296 0.54369,-0.55251 2.21048,-0.58476 34.4,-0.66561 24.68033,-0.062 34.06623,0.0133 34.70724,0.27825 0.60793,0.25131 0.97661,0.72114 1.19669,1.52497 0.17494,0.63896 0.44009,4.90575 0.58923,9.48175 0.14914,4.576 0.17628,8.68 0.0603,9.12 -0.11597,0.44 -0.44341,0.84481 -0.72764,0.89957 -0.28423,0.0548 -0.72869,-0.23323 -0.98768,-0.64 -0.259,-0.40676 -0.64085,-1.57988 -0.84857,-2.60692 -0.20772,-1.02704 -0.72339,-2.88379 -1.14593,-4.12612 -0.42254,-1.24233 -1.12876,-2.87394 -1.56938,-3.62579 -0.44062,-0.75186 -1.40271,-1.88195 -2.13798,-2.51131 -0.73528,-0.62937 -2.06829,-1.41608 -2.96226,-1.74825 -0.89396,-0.33217 -2.70539,-0.80132 -4.02539,-1.04256 -1.81321,-0.33138 -6.09098,-0.43862 -17.49631,-0.43862 -14.84665,0 -15.11126,0.0111 -16,0.67345 -0.49703,0.3704 -1.19169,1.1624 -1.54369,1.76 -0.61877,1.05051 -0.64305,1.74991 -0.73193,21.08655 -0.0506,11 -0.0128,20.32001 0.0839,20.71114 0.0967,0.39113 0.48922,1.00313 0.87227,1.36 0.6764,0.63017 1.07502,0.6487 13.83613,0.6433 10.06177,-0.004 13.63768,-0.11111 15.26573,-0.45618 1.16934,-0.24785 2.70071,-0.74379 3.40303,-1.10209 0.70232,-0.3583 1.74858,-1.12308 2.32501,-1.69952 0.57644,-0.57643 1.36684,-1.76999 1.75645,-2.65236 0.3896,-0.88236 1.03429,-3.01664 1.43264,-4.74285 0.39835,-1.72621 0.9833,-3.45421 1.29989,-3.84 0.55295,-0.67381 0.59849,-0.67893 1.15627,-0.13001 0.54651,0.53784 0.58064,1.57856 0.58064,17.70579 0,16.6321 -0.0183,17.14778 -0.62544,17.59171 -0.53199,0.38899 -0.69148,0.3913 -1.06735,0.0154 -0.24304,-0.24305 -0.7806,-1.87506 -1.19456,-3.62668 -0.41396,-1.75162 -1.00232,-3.82217 -1.30747,-4.60122 -0.30516,-0.77905 -0.94804,-1.99789 -1.42864,-2.70853 -0.50757,-0.75053 -1.5535,-1.66201 -2.49545,-2.17468 -0.8919,-0.48543 -2.59801,-1.0895 -3.79136,-1.34237 -1.68679,-0.35743 -5.08997,-0.45874 -15.28973,-0.45515 -9.81608,0.003 -13.24786,0.10279 -13.62773,0.39445 -0.27925,0.2144 -0.67525,0.70435 -0.88,1.08878 -0.27227,0.51121 -0.37227,6.40538 -0.37227,21.94192 0,18.10362 0.0721,21.48575 0.48789,22.88586 0.26834,0.9036 0.8477,2.07052 1.28747,2.59315 0.43977,0.52264 1.40822,1.24046 2.15211,1.59515 0.74389,0.3547 2.50453,0.80487 3.91253,1.00039 1.408,0.19551 6.16,0.43967 10.56,0.54258 5.2352,0.12245 9.18981,0.0571 11.44273,-0.18924 1.89349,-0.20699 4.55749,-0.65803 5.92,-1.00232 1.3625,-0.34428 3.52189,-1.13825 4.79864,-1.76437 1.27676,-0.62612 3.16459,-1.91906 4.19517,-2.8732 1.03059,-0.95414 2.60732,-2.79589 3.50386,-4.09277 0.89653,-1.29688 2.64537,-4.39605 3.8863,-6.88704 1.73323,-3.4792 2.39927,-4.52907 2.87321,-4.52907 0.33933,0 0.70645,0.28195 0.81582,0.62655 0.10938,0.34461 -0.82671,5.70861 -2.08019,11.92 -1.25348,6.2114 -2.49279,11.62388 -2.75403,12.02773 -0.26124,0.40386 -0.83682,0.87186 -1.27908,1.04 -0.49464,0.18807 -13.88076,0.29344 -34.78326,0.27382 -18.68854,-0.0175 -34.33917,-0.13144 -34.77917,-0.25312 z m 75.70636,-0.13613 c -0.31677,-0.23163 -0.52326,-0.69477 -0.45886,-1.02919 0.0816,-0.42374 0.81282,-0.86486 2.41231,-1.45527 1.26237,-0.46597 2.93815,-1.22401 3.72397,-1.68453 0.78582,-0.46052 1.82672,-1.30813 2.31311,-1.88358 0.48638,-0.57546 1.14454,-1.6317 1.46257,-2.34721 0.31803,-0.71552 0.81874,-2.51552 1.11269,-4 0.4754,-2.4008 0.55006,-6.81296 0.67561,-39.92611 0.0922,-24.32982 0.0233,-39.07464 -0.1991,-42.56 -0.18713,-2.93313 -0.53617,-6.05296 -0.77564,-6.93296 -0.23948,-0.88 -0.73218,-2.176 -1.09491,-2.88 -0.36272,-0.704 -1.06868,-1.65562 -1.5688,-2.11471 -0.50012,-0.45909 -1.34131,-1.07697 -1.86931,-1.37306 -0.528,-0.2961 -2.02452,-0.92848 -3.3256,-1.40529 -1.30108,-0.47682 -2.52264,-1.11624 -2.71457,-1.42094 -0.27053,-0.42945 -0.2218,-0.68123 0.21678,-1.12 0.52274,-0.52295 1.76077,-0.5741 16.27767,-0.67252 8.98714,-0.0609 18.19301,0.0427 21.50881,0.24209 3.19314,0.19203 7.01864,0.62223 8.51691,0.95778 1.496,0.33505 3.90951,1.0446 5.36336,1.57679 1.45386,0.53218 3.50428,1.49058 4.5565,2.12977 1.05222,0.6392 2.69056,1.79546 3.64076,2.56949 0.95019,0.77402 2.41366,2.31255 3.25214,3.41896 0.83848,1.1064 2.06275,3.16364 2.7206,4.57164 0.65784,1.408 1.43175,3.52032 1.71979,4.69405 0.28804,1.17373 0.68157,3.40573 0.87451,4.96 0.19295,1.55427 0.26556,4.33795 0.16137,6.18595 -0.1042,1.848 -0.48415,4.512 -0.84433,5.92 -0.36018,1.408 -1.13653,3.568 -1.72523,4.8 -0.58869,1.232 -1.71551,3.10931 -2.50404,4.1718 -0.78853,1.06249 -2.21258,2.59283 -3.16456,3.40075 -0.95198,0.80793 -2.57659,2.00639 -3.61025,2.66323 -1.03366,0.65685 -2.68966,1.55652 -3.68,1.99928 -0.99034,0.44275 -3.22713,1.28904 -4.97064,1.88064 -1.74351,0.5916 -3.43551,1.31591 -3.76,1.60957 -0.32449,0.29366 -0.58998,0.95504 -0.58998,1.46973 0,0.59863 4.12192,9.01858 11.44,23.36879 9.1345,17.91207 11.74073,22.76271 12.93222,24.06907 0.84497,0.92643 2.26059,2.01232 3.26367,2.50348 0.97429,0.47706 2.47612,1.03005 3.33739,1.22885 1.27424,0.29413 2.00754,0.26298 3.93634,-0.16723 1.30371,-0.29079 3.09839,-0.86669 3.98817,-1.27979 0.88979,-0.4131 2.14241,-1.36398 2.78361,-2.11308 0.6412,-0.74909 1.464,-2.24468 1.82845,-3.32354 0.36445,-1.07885 0.81201,-3.25755 0.99458,-4.84155 0.21867,-1.89717 0.29273,-16.9672 0.21703,-44.16 -0.087,-31.23177 -0.21019,-41.63052 -0.50627,-42.72 -0.21523,-0.792 -0.69351,-2.19867 -1.06283,-3.12592 -0.44194,-1.10957 -1.19962,-2.16075 -2.21633,-3.07486 -1.15236,-1.03607 -2.13818,-1.56604 -3.88043,-2.08609 -1.28458,-0.38344 -2.9116,-0.87175 -3.6156,-1.08514 -0.93525,-0.28349 -1.30752,-0.58177 -1.38219,-1.10747 -0.0755,-0.53175 0.11779,-0.80312 0.74083,-1.04 0.54338,-0.20659 12.71633,-0.32052 34.24713,-0.32052 24.73714,0 33.61635,0.0967 34.22212,0.37271 0.52741,0.2403 0.92946,0.78027 1.13174,1.52 0.17256,0.63101 0.43576,4.89129 0.5849,9.46729 0.14914,4.576 0.17628,8.68 0.0603,9.12 -0.11597,0.44 -0.44341,0.84481 -0.72764,0.89957 -0.28423,0.0548 -0.72869,-0.23323 -0.98768,-0.64 -0.259,-0.40676 -0.64085,-1.57988 -0.84857,-2.60692 -0.20772,-1.02704 -0.72339,-2.88379 -1.14593,-4.12612 -0.42254,-1.24233 -1.12876,-2.87394 -1.56938,-3.62579 -0.44062,-0.75186 -1.40271,-1.88195 -2.13798,-2.51131 -0.73528,-0.62937 -2.06829,-1.41608 -2.96226,-1.74825 -0.89396,-0.33217 -2.70539,-0.80132 -4.02539,-1.04256 -1.81321,-0.33138 -6.09098,-0.43862 -17.49631,-0.43862 -14.84665,0 -15.11126,0.0111 -16,0.67345 -0.49703,0.3704 -1.19169,1.1624 -1.54369,1.76 -0.61877,1.05051 -0.64305,1.74991 -0.73193,21.08655 -0.0506,11 -0.0128,20.32001 0.0839,20.71114 0.0967,0.39113 0.48922,1.00313 0.87227,1.36 0.6764,0.63017 1.07502,0.6487 13.83613,0.6433 10.06177,-0.004 13.63768,-0.11111 15.26573,-0.45618 1.16934,-0.24785 2.70071,-0.74379 3.40303,-1.10209 0.70232,-0.3583 1.74858,-1.12308 2.32501,-1.69952 0.57644,-0.57643 1.36684,-1.76999 1.75645,-2.65236 0.3896,-0.88236 1.03429,-3.01664 1.43264,-4.74285 0.39835,-1.72621 0.9833,-3.45421 1.29989,-3.84 0.55295,-0.67381 0.59849,-0.67893 1.15627,-0.13001 0.54651,0.53784 0.58064,1.57856 0.58064,17.70579 0,16.6321 -0.0183,17.14778 -0.62544,17.59171 -0.53199,0.38899 -0.69148,0.3913 -1.06735,0.0154 -0.24304,-0.24305 -0.7806,-1.87506 -1.19456,-3.62668 -0.41396,-1.75162 -1.00232,-3.82217 -1.30747,-4.60122 -0.30516,-0.77905 -0.94804,-1.99789 -1.42864,-2.70853 -0.50757,-0.75053 -1.5535,-1.66201 -2.49545,-2.17468 -0.8919,-0.48543 -2.59801,-1.0895 -3.79136,-1.34237 -1.68679,-0.35743 -5.08997,-0.45874 -15.28973,-0.45515 -9.81608,0.003 -13.24786,0.10279 -13.62773,0.39445 -0.27925,0.2144 -0.67525,0.70435 -0.88,1.08878 -0.27227,0.51121 -0.37227,6.40538 -0.37227,21.94192 0,18.10362 0.0721,21.48575 0.48789,22.88586 0.26834,0.9036 0.8477,2.07052 1.28747,2.59315 0.43977,0.52264 1.40822,1.24046 2.15211,1.59515 0.74389,0.3547 2.50453,0.80487 3.91253,1.00039 1.408,0.19551 6.16,0.43967 10.56,0.54258 5.2352,0.12245 9.18981,0.0571 11.44273,-0.18924 1.89349,-0.20699 4.55749,-0.65803 5.92,-1.00232 1.3625,-0.34428 3.52189,-1.13825 4.79864,-1.76437 1.27676,-0.62612 3.16459,-1.91906 4.19517,-2.8732 1.03059,-0.95414 2.60732,-2.79589 3.50386,-4.09277 0.89653,-1.29688 2.64537,-4.39605 3.8863,-6.88704 1.73323,-3.4792 2.39927,-4.52907 2.87321,-4.52907 0.33933,0 0.70645,0.28195 0.81582,0.62655 0.10938,0.34461 -0.82671,5.70861 -2.08019,11.92 -1.25348,6.2114 -2.49279,11.62388 -2.75403,12.02773 -0.26124,0.40386 -0.83682,0.87186 -1.27908,1.04 -0.49633,0.18871 -17.03069,0.30572 -43.19915,0.30572 -37.65168,0 -42.50229,-0.0554 -43.35344,-0.4956 -0.78957,-0.4083 -1.51319,-1.6343 -4.10798,-6.96 -1.73228,-3.55542 -7.3433,-15.0324 -12.46894,-25.5044 -6.7683,-13.82804 -9.59629,-19.29308 -10.33103,-19.96454 l -1.01168,-0.92454 -4.6867,0.16612 c -3.383,0.11991 -4.9592,0.30703 -5.66632,0.6727 -0.5388,0.27863 -1.10128,0.76392 -1.24996,1.07842 -0.14867,0.31451 -0.31961,7.05138 -0.37986,14.97081 -0.0602,7.91943 0.0361,16.48743 0.21404,19.04 0.2039,2.92464 0.56391,5.4153 0.97342,6.7346 0.35742,1.15147 1.08034,2.7435 1.6065,3.53785 0.52615,0.79435 1.5736,1.87551 2.32765,2.4026 0.75406,0.52708 1.94702,1.19092 2.65102,1.47521 0.704,0.28428 2.13248,0.781 3.17441,1.10382 1.04192,0.32282 2.04992,0.84738 2.24,1.16569 0.27387,0.45864 0.21668,0.67447 -0.27557,1.04 -0.52114,0.38699 -3.15204,0.46126 -16.33884,0.46126 -12.49006,0 -15.83595,-0.0865 -16.29364,-0.42115 z M 422.56,571.34668 c 1.76,-0.10507 4.856,-0.46932 6.88,-0.80943 2.024,-0.34011 4.832,-0.99557 6.24,-1.45658 1.408,-0.46102 3.35296,-1.23715 4.32213,-1.72474 0.96917,-0.48759 2.66641,-1.56628 3.77164,-2.3971 1.10524,-0.83082 2.66435,-2.31446 3.4647,-3.29697 0.80035,-0.98251 1.86157,-2.59144 2.35827,-3.5754 0.4967,-0.98396 1.24063,-2.86394 1.65318,-4.17774 C 451.92044,551.77336 452,550.90907 452,545.76 c 0,-5.06448 -0.0891,-6.06776 -0.73789,-8.30876 -0.40583,-1.40182 -1.19116,-3.41782 -1.74518,-4.48 -0.61309,-1.17546 -2.01493,-2.93826 -3.58211,-4.50449 -2.10273,-2.10144 -3.1322,-2.84583 -5.61482,-4.05996 -1.672,-0.8177 -4.12,-1.77797 -5.44,-2.13393 -1.32,-0.35597 -3.696,-0.81624 -5.28,-1.02283 -1.72401,-0.22486 -4.37403,-0.29613 -6.60217,-0.17756 -2.04719,0.10893 -4.47054,0.35856 -5.38523,0.55472 -1.00902,0.2164 -2.08543,0.72752 -2.73706,1.29965 -0.5907,0.51864 -1.33534,1.62027 -1.65477,2.44807 -0.54032,1.40027 -0.58077,3.00196 -0.58077,22.99919 v 21.4941 l 0.75938,0.80844 c 0.41766,0.44465 1.13766,0.86813 1.6,0.94107 0.46234,0.0729 1.63262,0.0848 2.60062,0.0263 0.968,-0.0585 3.2,-0.19227 4.96,-0.29735 z m 122.58636,57.99217 c -0.31677,-0.23163 -0.52326,-0.69477 -0.45886,-1.02919 0.0816,-0.42374 0.81282,-0.86486 2.41231,-1.45527 1.26237,-0.46597 2.93815,-1.22401 3.72397,-1.68453 0.78582,-0.46052 1.82672,-1.30813 2.31311,-1.88358 0.48638,-0.57546 1.14454,-1.6317 1.46257,-2.34721 0.31803,-0.71552 0.81874,-2.51552 1.11269,-4 0.4754,-2.4008 0.55006,-6.81296 0.67561,-39.92611 0.0923,-24.32982 0.0233,-39.07464 -0.1991,-42.56 -0.18713,-2.93313 -0.53617,-6.05296 -0.77564,-6.93296 -0.23948,-0.88 -0.73218,-2.176 -1.09491,-2.88 -0.36272,-0.704 -1.06868,-1.65562 -1.5688,-2.11471 -0.50012,-0.45909 -1.34131,-1.07697 -1.86931,-1.37306 -0.528,-0.2961 -2.02452,-0.92848 -3.3256,-1.40529 -1.30108,-0.47682 -2.52264,-1.11624 -2.71457,-1.42094 -0.27053,-0.42945 -0.2218,-0.68123 0.21678,-1.12 0.52274,-0.52295 1.76077,-0.5741 16.27767,-0.67252 8.98714,-0.0609 18.19301,0.0427 21.50881,0.24209 3.19314,0.19203 7.01864,0.62223 8.51691,0.95778 1.496,0.33505 3.90951,1.0446 5.36336,1.57679 1.45386,0.53218 3.50428,1.49058 4.5565,2.12977 1.05222,0.6392 2.69056,1.79546 3.64076,2.56949 0.95019,0.77402 2.41366,2.31255 3.25214,3.41896 0.83848,1.1064 2.06275,3.16364 2.7206,4.57164 0.65784,1.408 1.43175,3.52032 1.71979,4.69405 0.28804,1.17373 0.68157,3.40573 0.87451,4.96 0.19295,1.55427 0.26556,4.33795 0.16137,6.18595 -0.1042,1.848 -0.48415,4.512 -0.84433,5.92 -0.36018,1.408 -1.13653,3.568 -1.72523,4.8 -0.58869,1.232 -1.71551,3.10931 -2.50404,4.1718 -0.78853,1.06249 -2.21258,2.59283 -3.16456,3.40075 -0.95198,0.80793 -2.57659,2.00639 -3.61025,2.66323 -1.03366,0.65685 -2.68966,1.55652 -3.68,1.99928 -0.99034,0.44275 -3.22713,1.28904 -4.97064,1.88064 -1.74351,0.5916 -3.43551,1.31591 -3.76,1.60957 -0.32449,0.29366 -0.58998,0.95504 -0.58998,1.46973 0,0.59872 4.12076,9.01448 11.44,23.36371 8.63881,16.93622 11.7832,22.80987 12.84161,23.98789 0.77089,0.858 1.85089,1.80319 2.4,2.10042 0.54912,0.29723 2.07684,0.97525 3.39494,1.5067 1.66407,0.67095 2.43269,1.15542 2.5148,1.58513 0.065,0.34037 -0.14094,0.80837 -0.45771,1.04 -0.43643,0.31912 -2.34807,0.42115 -7.89069,0.42115 -5.97843,0 -7.48982,-0.0905 -8.27311,-0.4956 -0.78957,-0.4083 -1.51319,-1.6343 -4.10798,-6.96 -1.73228,-3.55542 -7.3433,-15.0324 -12.46894,-25.5044 -6.7683,-13.82804 -9.59629,-19.29308 -10.33103,-19.96454 l -1.01168,-0.92454 -4.6867,0.16612 c -3.383,0.11991 -4.9592,0.30703 -5.66632,0.6727 -0.5388,0.27863 -1.10128,0.76392 -1.24996,1.07842 -0.14867,0.31451 -0.31961,7.05138 -0.37986,14.97081 -0.0602,7.91943 0.0361,16.48743 0.21404,19.04 0.2039,2.92464 0.56391,5.4153 0.97342,6.7346 0.35742,1.15147 1.08034,2.7435 1.6065,3.53785 0.52615,0.79435 1.5736,1.87551 2.32765,2.4026 0.75406,0.52708 1.94702,1.19092 2.65102,1.47521 0.704,0.28428 2.13248,0.781 3.17441,1.10382 1.04192,0.32282 2.04992,0.84738 2.24,1.16569 0.27387,0.45864 0.21668,0.67447 -0.27557,1.04 -0.52114,0.38699 -3.15204,0.46126 -16.33884,0.46126 -12.49006,0 -15.83595,-0.0865 -16.29364,-0.42115 z M 574.88,571.34668 c 1.76,-0.10507 4.856,-0.46932 6.88,-0.80943 2.024,-0.34011 4.832,-0.99557 6.24,-1.45658 1.408,-0.46102 3.35296,-1.23715 4.32213,-1.72474 0.96917,-0.48759 2.66641,-1.56628 3.77164,-2.3971 1.10524,-0.83082 2.66435,-2.31446 3.4647,-3.29697 0.80035,-0.98251 1.86157,-2.59144 2.35827,-3.5754 0.4967,-0.98396 1.24063,-2.86394 1.65318,-4.17774 0.67052,-2.13536 0.75008,-2.99965 0.75008,-8.14872 0,-5.06448 -0.0891,-6.06776 -0.73789,-8.30876 -0.40583,-1.40182 -1.19116,-3.41782 -1.74518,-4.48 -0.61309,-1.17546 -2.01493,-2.93826 -3.58211,-4.50449 -2.10273,-2.10144 -3.1322,-2.84583 -5.61482,-4.05996 -1.672,-0.8177 -4.12,-1.77797 -5.44,-2.13393 -1.32,-0.35597 -3.696,-0.81624 -5.28,-1.02283 -1.72401,-0.22486 -4.37403,-0.29613 -6.60217,-0.17756 -2.04719,0.10893 -4.47054,0.35856 -5.38523,0.55472 -1.00902,0.2164 -2.08543,0.72752 -2.73706,1.29965 -0.5907,0.51864 -1.33534,1.62027 -1.65477,2.44807 -0.54032,1.40027 -0.58077,3.00196 -0.58077,22.99919 v 21.4941 l 0.75938,0.80844 c 0.41766,0.44465 1.13766,0.86813 1.6,0.94107 0.46234,0.0729 1.63262,0.0848 2.60062,0.0263 0.968,-0.0585 3.2,-0.19227 4.96,-0.29735 z M 11.286376,510.495 C 10.893883,510.4192 10.281883,509.98738 9.9263761,509.53542 9.5708692,509.08347 9.28,508.45314 9.28,508.13469 c 0,-0.31845 0.3475319,-0.98303 0.772293,-1.47685 L 10.824586,505.76 H 316.05229 c 167.87524,0 305.62784,0.11178 306.11689,0.2484 0.56564,0.15802 1.07862,0.64566 1.40981,1.34016 0.48158,1.00989 0.48112,1.15204 -0.006,1.89572 -0.29503,0.45027 -1.05603,0.95095 -1.7298,1.13806 -0.83246,0.23118 -94.94378,0.32122 -305.52303,0.2923 C 148.944,510.65165 11.678869,510.57081 11.286376,510.495 Z M 270.06488,494.62084 c -0.62431,-0.23145 -1.81464,-0.88834 -2.64517,-1.45976 -0.83053,-0.57142 -1.8138,-1.35442 -2.18506,-1.74001 -0.37125,-0.38559 -1.03403,-1.47139 -1.47285,-2.4129 -0.59878,-1.2847 -0.75907,-2.05595 -0.6424,-3.09102 0.0855,-0.75856 0.46474,-2.01809 0.84275,-2.79896 0.38901,-0.80359 1.0495,-1.5848 1.52188,-1.80003 0.67639,-0.30818 0.97413,-0.28882 1.57079,0.10212 0.52652,0.34499 0.84031,1.00893 1.10171,2.33105 0.20103,1.01677 0.50878,2.30928 0.68389,2.87226 0.20046,0.64446 1.25937,1.87188 2.85898,3.3139 2.01213,1.81391 2.5406,2.4748 2.5406,3.17723 0,0.4878 -0.20315,1.05552 -0.45145,1.26158 -0.24829,0.20607 -0.93229,0.44007 -1.52,0.52001 -0.5877,0.0799 -1.57935,-0.044 -2.20367,-0.27547 z m 100.9976,-10.756 c -0.3062,-0.33834 -0.63437,-1.19412 -0.72928,-1.90173 -0.0949,-0.7076 0.001,-2.19478 0.21423,-3.30483 0.21274,-1.11006 0.62659,-2.51182 0.91968,-3.11503 0.29309,-0.60322 0.70858,-1.15378 0.92332,-1.22348 0.21473,-0.0697 0.69264,0.35184 1.06201,0.93675 0.57729,0.91416 0.64838,1.40047 0.50627,3.46348 -0.0909,1.32 -0.32226,2.93514 -0.51407,3.5892 -0.19182,0.65406 -0.56962,1.41006 -0.83956,1.68 -0.26994,0.26994 -0.60219,0.4908 -0.73834,0.4908 -0.13615,0 -0.49807,-0.27682 -0.80426,-0.61516 z m 0.35554,-12.76073 c -0.28664,-0.31673 -0.74145,-1.20022 -1.01068,-1.96329 -0.26922,-0.76308 -0.61821,-3.05993 -0.77551,-5.10412 -0.19233,-2.49933 -0.55882,-4.54238 -1.11892,-6.23755 -0.70039,-2.11978 -0.83291,-3.09919 -0.83291,-6.156 0,-2.93812 0.16308,-4.23417 0.8505,-6.75915 0.76972,-2.82726 0.85331,-3.68633 0.88,-9.044 0.0286,-5.74447 0.006,-5.9627 -0.7705,-7.36 -0.56995,-1.02592 -1.21408,-1.64347 -2.24,-2.14757 -0.96907,-0.47618 -2.74815,-0.8642 -5.44,-1.18648 -2.2,-0.26339 -6.16,-0.70966 -8.8,-0.99171 -2.64,-0.28205 -5.952,-0.79486 -7.36,-1.13958 -1.408,-0.34472 -3.72179,-0.74912 -5.14176,-0.89867 -2.25421,-0.23742 -3.06902,-0.52033 -6.42223,-2.2299 -3.66054,-1.86626 -3.98999,-2.11933 -7.03223,-5.40204 -1.75547,-1.89423 -3.87531,-4.30805 -4.71074,-5.36405 -0.83544,-1.056 -2.60045,-3.216 -3.92225,-4.8 -1.3218,-1.584 -3.17094,-3.888 -4.1092,-5.12 -0.93826,-1.232 -2.07138,-2.57822 -2.51803,-2.99161 -0.44666,-0.41338 -0.97974,-1.15632 -1.18463,-1.65097 -0.27057,-0.65321 -0.2777,-1.07653 -0.0261,-1.54672 0.19056,-0.35604 0.62742,-0.73653 0.97081,-0.84552 0.34339,-0.10898 1.02754,0.0157 1.52034,0.2772 0.49279,0.26145 2.84247,2.39287 5.22151,4.73649 2.37904,2.34362 5.40886,5.48513 6.73295,6.98113 1.32409,1.496 3.09186,3.61718 3.92837,4.71374 0.83651,1.09656 2.41469,2.62702 3.50705,3.40102 1.09236,0.774 2.58619,1.70966 3.31962,2.07925 0.73342,0.36958 2.38942,0.83529 3.68,1.03492 1.29057,0.19963 3.57049,0.87322 5.06649,1.49687 2.50167,1.04289 3.07961,1.15329 7.2,1.37538 2.48432,0.13391 5.76294,0.53566 7.36,0.90188 1.584,0.36322 3.96,0.96042 5.28,1.32712 1.6756,0.46549 2.86259,0.60903 3.93259,0.47558 0.84293,-0.10513 2.69702,-0.62048 4.1202,-1.14522 1.54995,-0.57149 3.71551,-1.07077 5.4003,-1.24508 1.547,-0.16005 3.26531,-0.52505 3.81849,-0.8111 0.55584,-0.28744 1.39108,-1.19209 1.86709,-2.02223 0.47373,-0.82617 2.09378,-2.79813 3.60011,-4.38213 1.68489,-1.77178 3.32038,-3.89981 4.25022,-5.53025 0.83358,-1.46164 1.65453,-3.39912 1.83048,-4.32 0.17546,-0.91836 0.46495,-3.47669 0.6433,-5.68517 0.22906,-2.83631 0.21885,-5.18548 -0.0348,-8 -0.19748,-2.19152 -0.47584,-7.36858 -0.61858,-11.50458 -0.23639,-6.84992 -0.33347,-7.74066 -1.08944,-9.99634 -0.45646,-1.36198 -1.04819,-4.14136 -1.31496,-6.17639 -0.26676,-2.03502 -0.48503,-4.32871 -0.48503,-5.09708 0,-0.97569 -0.331,-2.02096 -1.09747,-3.46573 -0.6036,-1.13779 -1.25225,-2.64354 -1.44144,-3.34613 -0.18919,-0.70259 -0.47118,-2.85984 -0.62664,-4.79389 -0.17899,-2.22664 -0.49778,-3.96976 -0.86912,-4.7523 -0.32255,-0.67972 -1.9587,-2.62386 -3.63589,-4.32031 -2.2411,-2.26683 -3.65208,-3.39695 -5.32287,-4.26331 -1.25039,-0.64837 -3.79348,-2.39863 -5.65131,-3.88947 -1.85784,-1.49084 -4.41405,-3.86002 -5.68048,-5.26484 -1.98949,-2.2069 -2.44556,-2.55421 -3.35407,-2.55421 -0.79584,0 -1.4415,0.35065 -2.65556,1.4422 -0.88224,0.79321 -1.75269,1.86852 -1.93434,2.38959 -0.26537,0.76125 -0.22303,1.07981 0.2155,1.62137 0.36213,0.44721 1.29563,0.83117 2.77441,1.14115 1.22576,0.25694 2.95105,0.7993 3.83397,1.20525 0.88292,0.40595 2.71562,1.62233 4.07266,2.70306 1.35704,1.08074 3.33721,3.01176 4.40037,4.29118 1.06317,1.27941 2.23001,2.93057 2.59299,3.66924 0.52114,1.06053 0.586,1.48123 0.30837,2 -0.23088,0.43139 -0.6711,0.65696 -1.28211,0.65696 -0.66849,0 -1.54389,-0.5204 -3.10874,-1.84804 -1.19803,-1.01643 -2.97023,-2.44159 -3.93823,-3.16704 -0.968,-0.72545 -2.84,-1.9855 -4.16,-2.80013 -1.32,-0.81462 -2.80206,-1.7981 -3.29348,-2.1855 -0.68045,-0.53644 -1.51969,-0.75592 -3.52,-0.92058 -2.14354,-0.17645 -3.13939,-0.45922 -5.41556,-1.53772 -1.53397,-0.72682 -3.00997,-1.63693 -3.28,-2.02245 -0.27003,-0.38552 -0.49096,-0.93748 -0.49096,-1.22659 0,-0.2891 0.28925,-0.89337 0.64279,-1.34281 0.35353,-0.44945 1.61092,-1.35859 2.7942,-2.02031 1.28655,-0.71948 3.02326,-2.11279 4.32022,-3.46599 1.19284,-1.24456 2.43597,-2.83884 2.76251,-3.54284 0.32653,-0.704 0.84434,-1.97252 1.15068,-2.81893 0.30634,-0.8464 0.85506,-1.81661 1.21936,-2.15601 0.3643,-0.3394 1.17714,-0.70624 1.80631,-0.81519 0.62916,-0.10895 3.01593,-0.82133 5.30393,-1.58307 2.288,-0.76173 6.35047,-2.47091 9.0277,-3.79818 2.67724,-1.32727 5.55724,-2.57651 6.4,-2.7761 0.84277,-0.19959 3.9803,-1.57154 6.9723,-3.04879 3.66835,-1.81118 6.06345,-3.22009 7.35436,-4.32616 1.0529,-0.90215 2.2049,-1.81862 2.56,-2.0366 0.3551,-0.21798 2.42167,-1.45937 4.59237,-2.75865 2.17069,-1.29928 4.40269,-2.63789 4.96,-2.9747 0.5573,-0.33682 2.02959,-1.29329 3.27175,-2.1255 1.24216,-0.83221 3.40216,-2.08442 4.8,-2.78268 1.39784,-0.69825 3.2833,-1.51263 4.18992,-1.80972 0.90661,-0.29709 3.304,-0.88348 5.32752,-1.30309 2.02352,-0.41962 4.37775,-1.11311 5.23161,-1.5411 0.85386,-0.42799 2.11412,-0.96013 2.80059,-1.18254 0.68647,-0.22241 2.64115,-1.30836 4.34374,-2.41323 1.86389,-1.20953 3.87596,-2.86044 5.0568,-4.14913 1.16388,-1.27016 2.18052,-2.74611 2.50069,-3.63046 0.29672,-0.81959 0.87598,-2.21017 1.28724,-3.09017 0.41126,-0.88 1.54133,-2.68 2.51126,-4 0.96994,-1.32 2.19099,-3.02998 2.71344,-3.79995 0.52246,-0.76998 1.10868,-2.16466 1.3027,-3.09929 0.19403,-0.93463 0.25635,-2.21335 0.13849,-2.8416 -0.11786,-0.62824 -0.63449,-1.72233 -1.14806,-2.4313 -0.51358,-0.70897 -1.39742,-1.57173 -1.9641,-1.91725 -0.56667,-0.34552 -1.40618,-0.62876 -1.86557,-0.62941 -0.45939,-6.6e-4 -2.10518,0.58551 -3.65732,1.3026 -1.55214,0.71709 -3.63553,1.94289 -4.62975,2.724 -0.99422,0.7811 -3.36299,3.08253 -5.26392,5.11427 -2.06939,2.2118 -4.43481,4.36068 -5.895,5.35536 -1.34132,0.9137 -3.66276,2.41716 -5.15876,3.34103 -1.496,0.92386 -4.304,2.49268 -6.24,3.48626 -1.936,0.99357 -4.95229,2.28998 -6.70287,2.88089 -1.75059,0.59091 -3.70306,1.07439 -4.33884,1.07439 -0.63578,0 -1.43549,-0.20631 -1.77713,-0.45846 -0.40937,-0.30214 -0.51205,-0.56319 -0.30116,-0.76564 0.176,-0.16895 1.184,-0.65531 2.24,-1.08079 1.056,-0.42548 3.792,-2.11789 6.08,-3.76091 2.288,-1.64302 4.33011,-3.19636 4.53802,-3.45186 0.20791,-0.2555 0.30051,-0.66655 0.20576,-0.91344 -0.0947,-0.2469 -0.53077,-0.4489 -0.96896,-0.4489 -0.43819,0 -2.61878,0.57083 -4.84576,1.2685 -2.22699,0.69768 -5.34506,1.42545 -6.92906,1.61728 -1.584,0.19183 -3.528,0.51013 -4.32,0.70735 -0.792,0.19721 -2.952,0.9898 -4.8,1.76131 -1.848,0.77151 -3.72,1.64077 -4.16,1.9317 -0.44,0.29092 -2.312,1.05874 -4.16,1.70626 -1.848,0.64752 -5.592,1.97256 -8.32,2.94455 -2.728,0.97198 -5.752,2.11856 -6.72,2.54796 -0.968,0.4294 -2.84,1.04195 -4.16,1.36124 -1.32,0.31928 -3.696,1.19822 -5.28,1.9532 -2.70359,1.28861 -3.13482,1.3935 -7.04,1.71241 -2.32363,0.18975 -5.57259,0.70417 -7.36,1.16534 -2.96363,0.76463 -3.92094,0.84219 -12.96,1.05003 -8.01905,0.18438 -9.93138,0.31565 -10.72076,0.73588 -0.52841,0.28131 -1.24824,0.82913 -1.59961,1.21739 -0.35137,0.38826 -1.28703,1.07618 -2.07924,1.5287 -0.79221,0.45252 -2.08839,1.27766 -2.88039,1.83364 -0.792,0.55598 -2.26098,1.33668 -3.2644,1.7349 -1.00342,0.39822 -2.75698,1.39415 -3.8968,2.21319 -1.13982,0.81905 -2.86582,2.11172 -3.83555,2.87262 -1.53955,1.20799 -2.05991,1.42295 -4.1032,1.69495 -2.07492,0.27621 -2.6301,0.51145 -4.90005,2.07628 -1.408,0.97063 -3.64,2.62779 -4.96,3.68258 -1.32,1.05479 -3.768,2.83156 -5.44,3.94837 -1.9522,1.30397 -3.71639,2.81489 -4.93027,4.22247 -1.03965,1.20554 -2.21979,2.93423 -2.62253,3.84152 -0.40274,0.90729 -1.06016,1.87929 -1.46093,2.16 C 279.2255,311.77033 278.56964,312 278.1688,312 c -0.40084,0 -1.0168,-0.288 -1.3688,-0.64 -0.44065,-0.44065 -0.63903,-1.06361 -0.63687,-2 0.002,-0.76562 0.34571,-2.09586 0.787,-3.04372 0.50904,-1.0934 1.77011,-2.6721 3.59687,-4.50283 1.54715,-1.55051 3.893,-3.52008 5.213,-4.37683 1.32,-0.85674 4.09945,-2.8286 6.17654,-4.38191 2.0771,-1.55331 4.9571,-3.41727 6.4,-4.14212 1.44291,-0.72485 3.35364,-1.98272 4.24608,-2.79525 0.89245,-0.81254 2.04445,-1.68603 2.56,-1.94111 0.51556,-0.25507 1.40538,-0.8024 1.97738,-1.21628 0.74564,-0.53953 1.04,-1.00559 1.04,-1.64664 0,-0.49176 -0.27591,-1.14382 -0.61314,-1.449 -0.33723,-0.30519 -1.73533,-1.26351 -3.10691,-2.1296 -1.37157,-0.86609 -2.61339,-1.57471 -2.7596,-1.57471 -0.14622,0 -0.83037,0.288 -1.52035,0.64 -0.68998,0.352 -1.58424,0.63356 -1.98725,0.62568 -0.40301,-0.008 -4.11675,-1.69988 -8.25275,-3.76 l -7.52,-3.74568 -0.76009,-1.53274 c -0.68201,-1.3753 -0.78214,-2.12274 -0.97471,-7.27624 -0.18988,-5.08144 -0.28996,-5.84536 -0.86826,-6.62726 -0.3595,-0.48607 -1.27014,-1.22807 -2.02366,-1.6489 -1.04105,-0.58142 -1.55293,-1.16466 -2.13175,-2.42898 -0.41895,-0.91511 -0.99573,-2.61207 -1.28173,-3.77103 -0.48002,-1.94517 -0.48001,-2.28429 10e-5,-4.41028 0.28605,-1.26669 0.5201,-3.06027 0.5201,-3.98572 0,-1.03421 -0.32033,-2.52973 -0.83123,-3.88075 -0.6553,-1.73289 -0.79181,-2.53672 -0.645,-3.7981 0.10241,-0.88 0.41034,-2.464 0.68427,-3.52 0.27393,-1.056 1.26961,-3.21649 2.21262,-4.8011 0.94302,-1.5846 2.03247,-3.1686 2.42101,-3.52 0.38854,-0.35139 0.99532,-1.2149 1.3484,-1.9189 0.35309,-0.704 1.21355,-2.04543 1.91215,-2.98096 0.69859,-0.93553 1.59763,-2.66353 1.99786,-3.84 0.40023,-1.17647 1.11295,-2.89914 1.58382,-3.82816 0.47087,-0.92902 0.99592,-2.44102 1.16679,-3.36 0.17086,-0.91898 0.81631,-2.64271 1.43434,-3.83051 0.61802,-1.18779 1.42448,-2.96359 1.79213,-3.94622 0.36765,-0.98263 1.11374,-2.29377 1.65799,-2.91363 0.54425,-0.61987 2.43749,-2.32031 4.2072,-3.77876 1.76971,-1.45845 4.16576,-3.63949 5.32456,-4.84674 1.1588,-1.20726 2.48472,-2.77102 2.94649,-3.47502 0.46449,-0.70813 1.13293,-2.54235 1.49615,-4.10549 0.36111,-1.55403 1.17617,-4.07403 1.81124,-5.6 0.63507,-1.52598 1.48023,-3.9485 1.87812,-5.38337 0.39788,-1.43487 1.24238,-3.45087 1.87665,-4.48 0.63428,-1.02913 1.29975,-2.64679 1.47883,-3.59482 0.17909,-0.94802 0.32561,-2.36403 0.32561,-3.14669 0,-0.83502 0.39668,-2.41366 0.96,-3.8205 0.528,-1.31862 0.96,-2.79629 0.96,-3.28371 0,-0.48743 -0.28432,-1.14354 -0.63183,-1.45803 -0.53679,-0.48578 -0.77065,-0.5143 -1.55463,-0.18957 -0.50754,0.21023 -1.21411,0.77626 -1.57016,1.25785 -0.35605,0.48158 -1.02885,1.58857 -1.4951,2.45997 -0.46625,0.8714 -1.52735,2.75576 -2.358,4.18746 -0.83066,1.43171 -2.53132,3.95171 -3.77926,5.6 -1.24793,1.6483 -3.05476,3.7889 -4.01518,4.7569 -0.96041,0.968 -2.42247,2.09365 -3.24902,2.50145 -0.82655,0.4078 -1.89971,0.6958 -2.38482,0.64 -0.63048,-0.0725 -0.91102,-0.30567 -0.98375,-0.81761 -0.071,-0.49992 0.37492,-1.22456 1.47697,-2.4 0.8683,-0.92611 2.33317,-2.90784 3.25526,-4.40384 0.92209,-1.496 2.22528,-3.31557 2.89597,-4.04349 0.67069,-0.72793 1.60506,-1.95193 2.07638,-2.72 0.47133,-0.76808 1.25694,-1.97251 1.7458,-2.67651 0.48887,-0.704 1.39927,-2.29629 2.02312,-3.53842 0.62385,-1.24213 1.38643,-2.46613 1.69461,-2.72 0.30819,-0.25387 0.96834,-1.02319 1.46699,-1.70959 0.57546,-0.79212 0.90665,-1.64773 0.90665,-2.34225 0,-0.60183 -0.45895,-2.19667 -1.01988,-3.5441 -0.58494,-1.40508 -1.56797,-3.04447 -2.30506,-3.84411 -0.70684,-0.76684 -2.34335,-2.24551 -3.63669,-3.28595 -1.29334,-1.04044 -2.71468,-1.98286 -3.15855,-2.09426 -0.44386,-0.1114 -1.14063,-0.0505 -1.54837,0.13524 -0.40775,0.18578 -1.56311,1.60806 -2.56746,3.16061 -1.00436,1.55256 -2.3668,3.39883 -3.02766,4.10283 -0.66086,0.704 -2.06483,2.576 -3.11993,4.16 -1.0551,1.584 -2.65169,3.99654 -3.54796,5.36121 -1.13581,1.72938 -1.69281,2.94141 -1.83825,4 -0.11476,0.83533 -0.34273,2.05014 -0.50659,2.69958 -0.20818,0.82509 -0.85004,1.68001 -2.13076,2.83806 -1.00806,0.9115 -3.27284,2.6008 -5.03284,3.75399 -1.76,1.1532 -4.31681,2.56371 -5.6818,3.13447 -1.365,0.57076 -3.76656,1.8484 -5.33682,2.8392 -2.26695,1.4304 -3.21404,2.27643 -4.59808,4.10747 -0.98078,1.29753 -2.02997,3.14569 -2.39908,4.22602 -0.36081,1.056 -1.39628,3.72 -2.30107,5.92 -0.90478,2.2 -2.02344,4.648 -2.4859,5.44 -0.46247,0.792 -1.40516,2.592 -2.09487,4 -0.85144,1.73817 -1.39515,3.42907 -1.69365,5.26713 -0.30658,1.88787 -0.70732,3.11409 -1.32418,4.05188 -0.4865,0.73962 -1.63184,2.41799 -2.54518,3.72972 -0.91335,1.31174 -3.21701,4.00917 -5.11924,5.9943 -2.9006,3.02701 -3.74519,4.15429 -5.23501,6.98719 -1.42194,2.70383 -2.06063,3.57748 -3.20077,4.37823 -0.78339,0.5502 -1.74835,1.47868 -2.14435,2.06328 -0.396,0.5846 -0.72,1.32669 -0.72,1.64909 0,0.35957 0.48427,0.83323 1.25274,1.22527 0.88188,0.4499 1.35875,0.96033 1.61084,1.72417 0.25489,0.77231 0.26259,1.51128 0.0267,2.56375 -0.18226,0.81327 -0.78363,2.34144 -1.33638,3.39593 -0.98633,1.88164 -1.01053,2.03477 -1.30272,8.24366 -0.16375,3.47952 -0.24248,8.4144 -0.17495,10.9664 0.10869,4.10732 0.22492,4.91553 1.01244,7.04 0.48931,1.32 1.07742,3.1469 1.30691,4.05977 0.28513,1.13419 0.49165,5.74479 0.65219,14.56 0.21224,11.65415 0.18019,13.17605 -0.33187,15.75568 -0.54139,2.72744 -0.54158,2.96246 -0.004,5.24232 0.35465,1.50434 1.41595,4.05725 2.87038,6.90455 1.26922,2.48472 2.60989,5.02168 2.97927,5.63768 0.36937,0.616 0.7637,1.6255 0.87629,2.24333 0.11258,0.61783 0.0547,1.51783 -0.12862,2 -0.25641,0.67441 -0.54513,0.87667 -1.25143,0.87667 -0.76758,0 -1.31407,-0.47927 -3.33286,-2.92291 -1.83918,-2.22624 -3.03205,-4.1521 -5.00469,-8.08 -1.44223,-2.87175 -2.82669,-6.11992 -3.12418,-7.32981 -0.49114,-1.99746 -0.49332,-2.30721 -0.027,-3.84 0.27896,-0.917 0.80868,-2.50088 1.17716,-3.51972 0.43896,-1.21372 0.78674,-3.33442 1.00864,-6.15045 0.23634,-2.99939 0.23821,-5.92039 0.006,-9.66756 -0.25075,-4.04958 -0.53207,-6.05706 -1.14437,-8.16631 -0.44654,-1.53822 -0.96654,-3.41022 -1.15555,-4.16 -0.18901,-0.74978 -0.45923,-5.61124 -0.6005,-10.80324 -0.23021,-8.4607 -0.32759,-9.63088 -0.93869,-11.28 -0.37501,-1.012 -0.97717,-2.64864 -1.33815,-3.63697 -0.3949,-1.08123 -0.85456,-3.71335 -1.15405,-6.60835 -0.45213,-4.37058 -0.4515,-4.9987 0.007,-6.85597 0.38233,-1.5493 0.97401,-2.68097 2.4425,-4.67165 1.06587,-1.44488 2.33015,-3.11781 2.8095,-3.71762 0.75237,-0.94142 0.87073,-1.37902 0.86555,-3.2 -0.005,-1.8575 -0.14545,-2.33875 -1.17366,-4.02944 -0.64221,-1.056 -1.39667,-2.83619 -1.67659,-3.95597 -0.27992,-1.11978 -1.00745,-2.84778 -1.61675,-3.84 -0.60929,-0.99222 -1.3266,-2.74003 -1.59402,-3.88403 -0.26741,-1.144 -1.33039,-3.75902 -2.36217,-5.81115 -1.03178,-2.05213 -2.39741,-4.35613 -3.03473,-5.12 -0.63733,-0.76387 -1.7832,-2.18085 -2.54638,-3.14885 -0.76318,-0.968 -1.95507,-2.09189 -2.64865,-2.49753 -1.11081,-0.64966 -1.56498,-0.71941 -3.81209,-0.58539 -1.74807,0.10425 -2.88186,0.0139 -3.60204,-0.28699 -0.61901,-0.25864 -1.18762,-0.7985 -1.38341,-1.31345 -0.23446,-0.6167 -0.22749,-1.12762 0.0237,-1.73397 0.19584,-0.47281 0.74234,-1.04028 1.21445,-1.26104 0.4721,-0.22077 1.79674,-0.47239 2.94363,-0.55916 1.35953,-0.10286 2.78848,0.0224 4.10585,0.35988 1.11132,0.28471 2.55985,0.51765 3.21895,0.51765 0.86567,0 1.40779,-0.22291 1.95265,-0.80289 0.69041,-0.7349 0.7747,-1.18875 0.99553,-5.36 0.1327,-2.50641 0.47102,-5.78111 0.75183,-7.27711 0.28081,-1.496 0.64106,-4.52 0.80054,-6.72 0.15948,-2.2 0.28954,-6.232 0.28902,-8.96 -8.7e-4,-4.54393 0.0721,-5.17978 0.86961,-7.58001 0.84145,-2.53236 0.85192,-2.64846 0.31321,-3.47063 -0.30654,-0.46785 -0.99827,-1.08885 -1.53718,-1.38 -0.5389,-0.29115 -1.48779,-0.96136 -2.10865,-1.48936 -0.62086,-0.528 -1.53558,-1.60019 -2.03273,-2.38265 -0.49934,-0.78593 -0.90389,-1.87368 -0.90389,-2.4304 0,-0.5699 0.25426,-1.23786 0.5852,-1.53735 0.32671,-0.29567 1.11809,-0.5296 1.79164,-0.5296 0.66354,0 1.68821,0.22862 2.27705,0.50804 0.58884,0.27942 1.87899,1.21542 2.86699,2.08 1.02923,0.90066 2.10887,1.57196 2.52815,1.57196 0.40248,0 0.94671,-0.252 1.20941,-0.56 0.26269,-0.308 1.05586,-1.64 1.76259,-2.96 0.70673,-1.32 1.54845,-3.12 1.8705,-4 0.32204,-0.88 1.44979,-3.256 2.50611,-5.28 1.05632,-2.024 2.24262,-4.112 2.63622,-4.64 0.3936,-0.528 1.01936,-1.73239 1.39058,-2.67642 0.37121,-0.94404 1.102,-2.33714 1.62396,-3.09579 0.52197,-0.75865 1.08358,-1.73326 1.24803,-2.165797 0.16445,-0.432536 0.45582,-1.919432 0.64748,-3.304211 0.19167,-1.38478 0.93925,-4.965782 1.66129,-7.957782 1.30007,-5.3872 1.31125,-5.485302 1.15202,-10.107464 -0.12917,-3.749639 -0.28855,-4.956284 -0.81049,-6.136214 -0.35734,-0.807813 -1.24989,-2.119883 -1.98346,-2.915712 -0.84066,-0.912008 -1.88639,-1.642401 -2.82852,-1.975595 -0.82211,-0.29075 -2.03961,-0.754381 -2.70554,-1.030293 -1.02717,-0.425575 -1.37805,-0.8541 -2.31358,-2.825543 -0.60653,-1.278137 -1.42571,-2.550077 -1.82041,-2.826533 C 228.98053,60.386191 228.06464,60.16 227.33991,60.16 c -0.83153,0 -2.04559,0.363736 -3.29061,0.98588 -1.13389,0.566611 -2.92477,1.90799 -4.21111,3.154149 -1.231,1.192548 -2.23819,2.39873 -2.23819,2.680404 0,0.281674 -0.66471,1.772438 -1.47713,3.31281 -0.81243,1.540371 -1.68988,3.526543 -1.94991,4.413716 -0.26003,0.887172 -0.9023,2.369775 -1.42728,3.294671 -0.52499,0.924897 -1.28082,2.508897 -1.67963,3.52 -0.39882,1.011104 -1.28783,2.727248 -1.97559,3.813655 -0.68775,1.086407 -2.17659,3.572629 -3.30853,5.524938 -1.8098,3.121444 -2.33094,3.756316 -4.32,5.262805 -1.24406,0.942234 -2.99425,2.421186 -3.8893,3.28656 -1.01711,0.983382 -1.81351,2.109092 -2.12374,3.001912 -0.273,0.78567 -0.93904,2.6525 -1.4801,4.1485 -0.54106,1.496 -1.13348,3.44 -1.3165,4.32 -0.18301,0.88 -0.78012,3.976 -1.32691,6.88 -0.64421,3.42139 -1.32379,6.008 -1.93059,7.34811 -0.51503,1.13747 -1.07808,3.08147 -1.25122,4.32 -0.20949,1.49858 -0.73778,3.10827 -1.57924,4.81189 -0.96582,1.95539 -1.37178,3.29418 -1.7189,5.66861 -0.30609,2.0938 -0.78743,3.81747 -1.47443,5.28 -0.74889,1.59427 -1.09905,2.92729 -1.31744,5.01542 -0.22266,2.12898 -0.58206,3.47439 -1.4295,5.35126 -0.87957,1.94806 -1.23281,3.31209 -1.58386,6.11598 -0.2485,1.9848 -0.59935,4.61673 -0.77967,5.84873 -0.18032,1.232 -0.3307,3.78289 -0.33419,5.66865 -0.004,2.12035 0.23367,4.66679 0.62265,6.67341 0.44312,2.28585 0.96846,3.86233 1.77769,5.33454 0.63178,1.14938 1.3674,2.97035 1.63472,4.04659 0.26731,1.07625 0.96534,2.74881 1.55118,3.71681 0.58584,0.968 1.2989,2.5657 1.58459,3.55043 0.28568,0.98474 0.965,2.49304 1.50959,3.35177 0.54459,0.85873 1.91521,3.50904 3.04581,5.88957 1.13061,2.38052 2.28104,4.76023 2.55651,5.28823 0.27548,0.528 0.84123,1.608 1.25723,2.4 0.416,0.792 1.06006,2.66078 1.43125,4.15285 0.44262,1.77922 1.03355,3.21087 1.71707,4.16 0.57321,0.79593 1.28919,2.09515 1.59109,2.88715 0.30189,0.792 1.04171,2.16562 1.64405,3.05248 0.77382,1.13934 1.23092,2.32199 1.55781,4.03052 0.25446,1.32992 0.85088,3.3403 1.32539,4.46752 0.47451,1.12721 1.07096,3.34548 1.32545,4.92948 0.26024,1.61982 0.99601,4.21019 1.68153,5.92 0.8213,2.04849 1.55754,4.81428 2.25733,8.48 0.88434,4.63241 1.07195,6.48512 1.26377,12.48 0.21949,6.8596 0.25054,7.10381 1.21174,9.52996 0.59845,1.51054 1.58877,3.20979 2.51769,4.32 0.84217,1.00652 3.06771,3.34204 4.94564,5.19004 2.93377,2.88701 3.4735,3.58068 3.83408,4.92763 0.3567,1.33251 0.34976,1.69215 -0.0463,2.39774 -0.25625,0.45656 -0.72436,0.87987 -1.04023,0.9407 -0.31587,0.0608 -0.94264,0.0182 -1.39282,-0.0948 -0.46784,-0.11742 -3.05048,-2.44597 -6.02815,-5.43509 -2.8653,-2.87631 -5.55967,-5.78462 -5.98748,-6.46291 -0.4278,-0.67828 -1.41175,-2.30896 -2.18654,-3.62373 l -1.4087,-2.3905 -0.19842,-8.8095 -0.19842,-8.80951 -1.11867,-3.52 c -0.61527,-1.936 -1.21674,-4.312 -1.33659,-5.28 -0.11985,-0.968 -0.92478,-4.424 -1.78873,-7.68 -0.86395,-3.256 -1.713,-7.07487 -1.88678,-8.48637 -0.17378,-1.41151 -0.42278,-2.85151 -0.55332,-3.2 -0.13055,-0.3485 -0.64467,-1.30069 -1.1425,-2.11598 -0.49782,-0.8153 -1.18261,-2.28886 -1.52175,-3.27459 -0.33914,-0.98573 -1.06581,-2.4451 -1.61482,-3.24306 -0.54901,-0.79796 -1.25966,-2.21078 -1.57922,-3.1396 -0.31956,-0.92882 -1.01519,-2.47439 -1.54584,-3.43459 -0.53065,-0.96019 -1.20491,-2.49199 -1.49834,-3.40398 -0.29344,-0.91199 -1.00071,-2.27999 -1.5717,-3.04 -0.571,-0.76001 -1.33817,-2.11729 -1.70484,-3.01619 -0.36666,-0.8989 -1.17596,-2.37475 -1.79843,-3.27968 -0.62248,-0.90492 -1.30309,-2.18546 -1.51247,-2.84563 -0.20938,-0.66018 -0.99461,-2.35233 -1.74494,-3.76033 -0.75033,-1.408 -1.54879,-3.13448 -1.77434,-3.83662 -0.22555,-0.70215 -0.80712,-1.92615 -1.29238,-2.72 -0.48525,-0.79386 -1.12945,-2.30738 -1.43153,-3.36338 -0.30209,-1.056 -1.14114,-3.072 -1.86455,-4.48 l -1.3153,-2.56 -0.10886,-5.67252 c -0.0604,-3.1474 0.0477,-6.68184 0.24292,-7.93988 0.21314,-1.37372 0.7885,-3.13453 1.45982,-4.4676 0.68596,-1.36214 1.24608,-3.09155 1.47044,-4.54013 0.19933,-1.28693 0.72244,-3.33878 1.16245,-4.55967 0.44002,-1.22089 1.27748,-4.33311 1.86101,-6.91604 0.58354,-2.58293 1.41599,-5.54402 1.84989,-6.5802 0.43391,-1.03618 1.1045,-2.96396 1.49021,-4.28396 0.38571,-1.32 0.99488,-2.904 1.35372,-3.52 0.35884,-0.616 1.35762,-3.1738 2.21951,-5.68401 1.5157,-4.41439 1.56017,-4.64686 1.35631,-7.09128 -0.18926,-2.26938 -0.0875,-3.01186 0.99724,-7.27599 0.6644,-2.6118 1.67337,-5.68472 2.24215,-6.82872 0.56878,-1.144 1.28154,-2.944 1.58391,-4 0.30237,-1.056 0.82457,-2.368245 1.16043,-2.916099 0.33587,-0.547855 1.40152,-1.987855 2.36811,-3.2 0.9666,-1.212146 1.97921,-2.851901 2.25025,-3.643901 0.27105,-0.792 0.76604,-2.954221 1.09999,-4.804935 0.33396,-1.850715 0.9179,-4.195368 1.29765,-5.21034 0.37975,-1.014972 1.18298,-2.452751 1.78497,-3.195064 0.60199,-0.742314 1.5619,-1.983211 2.13314,-2.757549 0.57124,-0.774338 1.52267,-1.995169 2.11428,-2.712957 0.59161,-0.717787 1.20361,-1.641612 1.36,-2.052943 0.15639,-0.411332 0.28434,-1.239587 0.28434,-1.840568 0,-0.600981 0.22351,-1.651293 0.49668,-2.334026 0.35369,-0.883962 1.85074,-2.484071 5.2,-5.557998 2.58683,-2.374166 5.71132,-5.187906 6.94332,-6.252757 1.232,-1.064851 3.32778,-3.066666 4.65729,-4.448478 1.32951,-1.381812 3.04598,-3.232385 3.81437,-4.112385 0.76839,-0.88 3.38282,-3.64254 5.80985,-6.138977 2.42703,-2.496437 5.06935,-4.923755 5.87183,-5.394039 1.18392,-0.693825 1.5484,-0.780913 1.93286,-0.461841 0.26059,0.216272 0.47343,0.69959 0.47298,1.074039 -4.6e-4,0.37445 -0.51202,1.528586 -1.13681,2.564747 -0.62479,1.036161 -2.10042,3.119969 -3.27918,4.630684 -1.17875,1.510716 -3.40319,4.069957 -4.94319,5.687203 -2.20178,2.312217 -2.8,3.138928 -2.8,3.869446 0,0.604148 0.30772,1.211675 0.88,1.737386 0.484,0.444612 1.33835,1.122491 1.89856,1.506396 0.56021,0.383905 3.01531,2.891072 5.45578,5.571483 2.44046,2.68041 5.09313,5.737473 5.89483,6.793473 0.80169,1.056 1.68284,2.358116 1.9581,2.893592 0.27527,0.535476 0.64551,1.831476 0.82276,2.88 0.17726,1.048524 0.41427,2.72552 0.52669,3.726656 0.11947,1.063976 9.7e-4,3.324173 -0.28521,5.44 -0.26929,1.990864 -0.65381,5.490101 -0.85449,7.776083 -0.31033,3.535087 -0.50597,4.435838 -1.30884,6.026332 -0.51919,1.028501 -1.21934,3.158566 -1.5559,4.733477 -0.36902,1.72677 -1.04642,3.65352 -1.70646,4.85367 -0.602,1.0946 -1.25846,2.50812 -1.45881,3.14115 -0.20035,0.63303 -0.82538,1.85703 -1.38895,2.72 -0.56357,0.86297 -1.65454,2.79304 -2.42438,4.28904 -0.76985,1.496 -1.90772,3.728 -2.52861,4.96 -0.62089,1.232 -1.55005,2.85359 -2.06479,3.60354 -0.51474,0.74994 -1.1436,1.86066 -1.39747,2.46825 -0.25387,0.60759 -1.02965,1.98362 -1.72395,3.05784 -0.77494,1.19899 -1.40019,2.65533 -1.61932,3.77175 -0.19633,1.00024 -0.48342,2.17862 -0.63798,2.61862 -0.15455,0.44 -0.68211,1.736 -1.17234,2.88 -0.87786,2.04855 -0.89491,2.21304 -1.12792,10.88 -0.13013,4.84 -0.38773,12.04 -0.57245,16 -0.18472,3.96 -0.41751,7.92 -0.51732,8.8 -0.14349,1.26511 0.0327,2.26978 0.84187,4.8 0.56284,1.76 1.42062,3.992 1.90619,4.96 0.48556,0.968 1.18477,2.86475 1.55379,4.21501 0.36902,1.35026 1.09046,3.29426 1.60319,4.32 0.51273,1.02574 1.08785,2.78082 1.27804,3.90016 0.19019,1.11935 0.71011,2.65681 1.15537,3.4166 0.44526,0.75978 1.18909,1.67995 1.65295,2.04483 0.46386,0.36487 1.29592,0.6634 1.84902,0.6634 0.55311,0 1.31827,-0.21897 1.70037,-0.4866 0.3821,-0.26764 1.51237,-1.67164 2.51172,-3.12 0.99935,-1.44837 2.10116,-3.2814 2.44847,-4.0734 0.34731,-0.792 0.97029,-2.088 1.3844,-2.88 0.41412,-0.792 1.29042,-2.52 1.94734,-3.84 0.65692,-1.32 1.74371,-3.2201 2.41508,-4.22244 0.67137,-1.00234 1.22129,-1.93834 1.22204,-2.08 7.5e-4,-0.14166 0.44028,-0.90556 0.97673,-1.69756 0.53644,-0.792 1.25542,-1.97347 1.59772,-2.62548 0.34231,-0.65201 0.77082,-2.23218 0.95226,-3.51148 0.25939,-1.82892 0.59745,-2.73812 1.58195,-4.25452 0.68864,-1.06068 1.39421,-2.30657 1.56794,-2.76864 0.17372,-0.46206 1.38362,-2.11806 2.68865,-3.68 1.30503,-1.56193 3.0899,-3.48788 3.96638,-4.27988 0.87648,-0.792 2.65535,-2.088 3.95306,-2.88 1.29771,-0.792 2.94277,-1.92631 3.65568,-2.52069 0.71292,-0.59437 2.08867,-1.5812 3.05723,-2.19294 0.96857,-0.61174 2.31237,-1.63743 2.98624,-2.27931 0.67386,-0.64188 2.40186,-2.718 3.84,-4.61358 1.43813,-1.89559 3.26279,-4.36903 4.05479,-5.49653 0.792,-1.1275 1.67233,-2.31257 1.95629,-2.63348 0.28396,-0.32091 1.7774,-2.45547 3.31876,-4.74347 1.54136,-2.288 3.30128,-4.71398 3.91094,-5.39106 0.60965,-0.67708 1.89586,-2.45162 2.85824,-3.94343 1.31171,-2.03332 2.02885,-2.82898 2.86447,-3.17813 0.87794,-0.36682 1.38794,-0.39217 2.40114,-0.11935 0.70754,0.19052 1.89027,0.87191 2.6283,1.51419 0.73802,0.64227 2.92586,2.70358 4.86186,4.58067 1.936,1.8771 3.952,3.63417 4.48,3.9046 0.528,0.27044 1.27865,0.83297 1.66812,1.25009 0.38947,0.41711 1.51735,2.69879 2.5064,5.0704 0.98905,2.37161 2.15961,5.39202 2.60123,6.71202 0.66134,1.97671 0.77681,2.82329 0.65466,4.8 -0.0816,1.32 -0.53947,4.2 -1.01757,6.4 -0.4781,2.2 -1.2183,5.44 -1.6449,7.2 -0.42834,1.76719 -1.40381,4.48953 -2.17859,6.08 -0.77162,1.584 -1.58037,3.456 -1.79723,4.16 -0.21685,0.704 -0.86792,2.144 -1.44682,3.2 -0.5789,1.056 -1.21776,2.568 -1.41969,3.36 -0.20193,0.792 -0.84803,2.232 -1.43577,3.2 -0.58773,0.968 -1.44006,2.60066 -1.89406,3.62813 -0.45399,1.02747 -1.54067,2.76697 -2.41483,3.86555 -0.87417,1.09858 -2.1365,2.36113 -2.80517,2.80568 -0.66868,0.44454 -1.86873,1.17692 -2.66679,1.62751 -0.79806,0.45059 -2.11529,1.52941 -2.92718,2.3974 -1.16514,1.24562 -1.55379,1.952 -1.84452,3.35245 -0.22172,1.06799 -0.81161,2.39311 -1.48187,3.32879 -0.61244,0.85497 -1.42041,2.5559 -1.79549,3.77986 -0.37509,1.22395 -1.14334,3.23995 -1.70723,4.48 -0.56389,1.24004 -1.19545,2.95628 -1.40346,3.81385 -0.20801,0.85757 -0.72022,2.22557 -1.13825,3.04 -0.41802,0.81443 -1.48428,2.34478 -2.36947,3.40078 -0.88518,1.056 -2.14302,2.784 -2.79518,3.84 -0.65217,1.056 -1.43454,2.208 -1.73862,2.56 -0.30407,0.352 -0.80174,1.13186 -1.10593,1.73303 -0.37065,0.73252 -0.5027,1.5399 -0.40035,2.44791 0.0919,0.81574 0.54891,1.90885 1.14835,2.74698 0.54761,0.76564 1.27084,2.18408 1.60718,3.15208 0.33634,0.968 1.12126,2.81433 1.74427,4.10295 0.78379,1.62121 1.1965,3.00128 1.33974,4.48 0.11385,1.17538 0.40941,2.8696 0.6568,3.76494 0.2788,1.00901 0.94365,2.18894 1.74879,3.10362 0.71444,0.81165 2.26523,2.17274 3.44621,3.02465 1.18097,0.8519 3.14409,2.17321 4.36249,2.93623 1.21839,0.76303 3.95139,2.25003 6.07333,3.30446 2.87093,1.42661 4.61575,2.06955 6.8194,2.51285 1.62874,0.32764 3.84327,1.0409 4.92117,1.58502 1.07789,0.54412 3.046,1.19714 4.37356,1.45114 1.32756,0.254 3.50804,0.94724 4.84551,1.54053 2.09859,0.93091 2.9039,1.10538 5.87787,1.27348 1.89537,0.10713 5.27937,0.42719 7.52,0.71124 3.24449,0.41131 5.62475,0.47472 11.69141,0.3115 4.18964,-0.11273 8.78823,-0.35176 10.21909,-0.53117 1.95105,-0.24464 3.0869,-0.59613 4.54248,-1.40566 1.0675,-0.5937 3.02091,-1.36327 4.34091,-1.71016 1.32,-0.34689 3.408,-1.06903 4.64,-1.60475 1.232,-0.53572 3.968,-1.49037 6.08,-2.12145 2.112,-0.63107 5.856,-1.55943 8.32,-2.06301 4.23555,-0.86565 4.7961,-1.07469 10.27307,-3.83101 3.18619,-1.60347 5.98452,-2.9154 6.21851,-2.9154 0.23399,0 2.12774,-0.57932 4.20832,-1.28739 2.08057,-0.70806 4.94479,-1.49023 6.36491,-1.73815 1.42013,-0.24792 3.18351,-0.76667 3.91862,-1.15277 0.73511,-0.38611 2.63257,-1.35036 4.21657,-2.14279 1.584,-0.79243 3.528,-1.90861 4.32,-2.48041 0.792,-0.5718 2.16,-1.40379 3.04,-1.84886 0.88,-0.44508 2.46368,-1.33174 3.5193,-1.97035 1.05561,-0.63861 2.48106,-1.32941 3.16765,-1.53512 0.6866,-0.20571 1.70268,-0.84181 2.25795,-1.41356 0.55528,-0.57175 1.66914,-1.32226 2.47526,-1.6678 0.80612,-0.34555 1.82625,-1.10854 2.26696,-1.69553 0.44071,-0.587 1.1923,-1.85927 1.67019,-2.82727 0.4779,-0.968 1.34565,-2.264 1.92835,-2.88 0.58269,-0.616 1.95241,-2.47564 3.04382,-4.13254 1.09141,-1.65689 2.30701,-3.96089 2.70134,-5.12 0.39433,-1.1591 1.09948,-2.86217 1.56701,-3.7846 0.46753,-0.92243 1.07155,-2.63221 1.34227,-3.79952 0.27071,-1.16731 0.98864,-3.07659 1.59538,-4.24286 0.60674,-1.16626 1.24747,-2.89613 1.42385,-3.84416 0.17637,-0.94802 0.32067,-2.17598 0.32067,-2.72879 0,-0.55282 0.252,-1.36117 0.56,-1.79633 0.48329,-0.68282 0.56,-1.58023 0.56,-6.5512 v -5.76 l 1.1077,-2.08 1.10771,-2.08 0.20244,-5.6 c 0.15469,-4.27898 0.36733,-6.2039 0.90142,-8.16 0.67872,-2.48584 0.69786,-3.03277 0.66042,-18.88 -0.0323,-13.69392 -0.13292,-17.09238 -0.625,-21.12 -0.32255,-2.64 -0.74614,-6.168 -0.9413,-7.84 -0.19516,-1.672 -0.49289,-5.10132 -0.66163,-7.62071 -0.26401,-3.94195 -0.43603,-4.87902 -1.23356,-6.72 -0.50972,-1.17661 -1.016,-2.43636 -1.12505,-2.79945 -0.10906,-0.36309 -0.33349,-2.09109 -0.49874,-3.84 -0.26013,-2.753127 -0.46818,-3.501903 -1.55039,-5.57984 -0.68746,-1.32 -1.49239,-3.137082 -1.78873,-4.03796 -0.29634,-0.900878 -1.10951,-2.402885 -1.80704,-3.337794 -0.69754,-0.934908 -1.26825,-1.930445 -1.26825,-2.212303 0,-0.281858 -0.18934,-1.242401 -0.42076,-2.134541 -0.25812,-0.995075 -0.92505,-2.228038 -1.72539,-3.189737 C 447.37631,80.225449 446.4692,78.872 446.07806,78.08 c -0.39114,-0.792 -1.09071,-1.931987 -1.55461,-2.533303 -0.4639,-0.601317 -1.51676,-2.185317 -2.3397,-3.52 -0.82294,-1.334684 -2.15052,-3.528319 -2.95017,-4.874745 -0.79966,-1.346427 -2.14742,-3.362427 -2.99502,-4.48 -0.84761,-1.117574 -2.25161,-3.183952 -3.12001,-4.591952 -0.86839,-1.408 -2.37531,-3.432153 -3.34872,-4.498117 -0.97341,-1.065964 -2.75253,-3.081964 -3.95361,-4.48 -1.20108,-1.398036 -3.50508,-3.741301 -5.12,-5.207256 -1.61492,-1.465956 -4.04218,-3.481956 -5.3939,-4.48 -1.35172,-0.998045 -3.44934,-2.421623 -4.66137,-3.163507 -1.21203,-0.741883 -3.82244,-2.278248 -5.80092,-3.414143 -1.97847,-1.135895 -4.9443,-2.587211 -6.59072,-3.225147 -1.64642,-0.637936 -3.88172,-1.733976 -4.96734,-2.435644 -1.67259,-1.081045 -2.93392,-1.51847 -8.26412,-2.865973 -3.45964,-0.874617 -6.93997,-1.596534 -7.73406,-1.604259 -0.79408,-0.0077 -2.01979,-0.243023 -2.72379,-0.522885 -0.99697,-0.396325 -3.22584,-0.562442 -10.08,-0.751258 -7.95135,-0.219041 -9.11797,-0.32284 -12.09718,-1.076339 -1.81345,-0.458656 -4.04545,-0.921403 -4.96,-1.028328 -1.08896,-0.127315 -3.04328,0.04666 -5.66282,0.504114 -2.2,0.384187 -5.368,0.900522 -7.04,1.147411 -1.672,0.246888 -4.46055,0.451688 -6.19679,0.455109 -2.32743,0.0046 -3.92477,0.212399 -6.08,0.791003 -1.60776,0.43163 -4.14721,0.944653 -5.64321,1.140052 -1.496,0.195399 -3.80451,0.629274 -5.13003,0.964167 -1.32552,0.334894 -3.76518,0.762411 -5.42148,0.950038 -1.65629,0.187627 -4.17178,0.749553 -5.58997,1.248724 -1.41818,0.499171 -3.51452,1.296848 -4.65852,1.772616 -1.144,0.475768 -2.872,1.269468 -3.84,1.76378 -0.968,0.494311 -2.336,1.074128 -3.04,1.288483 -0.704,0.214355 -3.296,1.184011 -5.76,2.154792 -2.464,0.97078 -5.344,2.235439 -6.4,2.810351 -1.056,0.574913 -2.57149,1.285751 -3.36776,1.57964 -0.79626,0.29389 -2.79682,1.526831 -4.44568,2.739869 -1.64887,1.213039 -4.50069,3.602949 -6.33738,5.31091 -2.56714,2.3872 -3.55354,3.547336 -4.26514,5.016354 -0.50913,1.051033 -1.26847,2.361975 -1.68743,2.913206 -0.41897,0.55123 -0.9991,1.463086 -1.28918,2.026346 -0.29009,0.56326 -0.52423,1.64326 -0.52031,2.4 0.004,0.851391 0.23875,1.677336 0.61475,2.166655 0.3342,0.43492 1.303,1.157697 2.15288,1.606171 1.04045,0.549034 1.57894,1.050776 1.64838,1.535901 0.081,0.565558 -0.14048,0.822279 -1.02972,1.193828 -0.62307,0.260335 -1.67748,0.470173 -2.34313,0.466308 -0.66565,-0.0039 -1.78628,-0.270128 -2.49028,-0.591696 -0.704,-0.321568 -1.88107,-1.239329 -2.61571,-2.039469 -0.73464,-0.80014 -1.48983,-2.009877 -1.67821,-2.688303 -0.18838,-0.678427 -0.34331,-2.048573 -0.3443,-3.044769 -0.002,-1.632957 -0.12961,-1.972982 -1.30029,-3.454004 -0.71418,-0.903507 -1.78591,-1.875162 -2.38161,-2.159233 -0.99951,-0.476635 -1.1903,-0.475555 -2.47219,0.014 -0.764,0.291774 -1.49227,0.530498 -1.61839,0.530498 -0.12611,0 -0.2293,-0.363595 -0.2293,-0.807989 0,-0.444393 0.48951,-1.776393 1.0878,-2.96 0.59829,-1.183606 2.03935,-3.264263 3.20235,-4.623682 1.16301,-1.359419 2.88072,-2.961781 3.81714,-3.560803 1.06003,-0.678094 1.90452,-1.514671 2.23765,-2.21669 0.29428,-0.620157 0.5326,-1.681796 0.5296,-2.359197 -0.003,-0.784732 -0.34983,-1.812208 -0.95454,-2.831639 -0.522,-0.88 -0.95154,-1.990934 -0.95454,-2.468741 -0.003,-0.535368 0.23206,-0.99586 0.6135,-1.2 0.34043,-0.182193 0.90959,-0.331259 1.2648,-0.331259 0.35521,0 1.70715,0.558951 3.0043,1.242113 1.29716,0.683162 2.79446,1.337874 3.32735,1.454914 0.60188,0.132197 1.50214,0.01547 2.37673,-0.308157 0.77432,-0.286527 2.55533,-0.888021 3.95779,-1.336654 1.40247,-0.448633 3.05847,-1.146179 3.68,-1.550102 0.62154,-0.403923 1.77807,-0.903577 2.57007,-1.110341 0.792,-0.206765 2.232,-0.851728 3.2,-1.433253 0.968,-0.581524 2.336,-1.151781 3.04,-1.267237 0.704,-0.115457 2.31219,-0.561227 3.57375,-0.990602 1.26156,-0.429375 2.8139,-0.780681 3.44964,-0.780681 0.63574,0 1.97956,-0.34567 2.98625,-0.768156 1.0067,-0.422486 2.47473,-0.940752 3.26229,-1.151702 0.78756,-0.21095 2.22756,-0.784316 3.2,-1.274145 0.97244,-0.48983 2.63207,-1.068401 3.68807,-1.285713 1.056,-0.217312 2.56861,-0.722767 3.36135,-1.123234 0.79274,-0.400466 3.25988,-1.32365 5.48253,-2.051519 3.11145,-1.018929 4.57833,-1.700618 6.37593,-2.963018 1.2841,-0.901791 2.95548,-1.8264381 3.71417,-2.0547716 0.7587,-0.2283335 2.35293,-0.4057282 3.54273,-0.3942105 1.18981,0.011518 3.02729,-0.2275991 4.08329,-0.5313708 1.7404,-0.5006488 3.9704,-0.5490819 23.84,-0.5177782 12.056,0.018994 23.792,0.180359 26.08,0.3585896 2.288,0.1782306 4.808,0.4079293 5.6,0.5104415 0.792,0.1025121 2.376,0.4486424 3.52,0.7691783 1.144,0.3205357 2.86754,0.7443247 3.83008,0.9417537 0.96255,0.197428 2.63076,0.851457 3.70713,1.453397 1.07637,0.601941 2.89439,1.43468 4.04005,1.850533 1.14566,0.415852 3.12233,1.394112 4.3926,2.17391 1.27027,0.779798 4.43986,2.823253 7.04354,4.54101 3.27601,2.161328 6.59539,4.767661 10.77805,8.462792 3.32426,2.936778 6.7651,6.199904 7.64633,7.25139 0.88122,1.051486 2.92381,3.314818 4.5391,5.029626 1.61528,1.714809 3.41528,3.75234 4,4.527847 0.58471,0.775506 2.5707,3.415918 4.4133,5.867581 1.84259,2.451663 4.25885,5.528534 5.36946,6.837492 1.11061,1.308958 2.81755,3.612958 3.7932,5.12 0.97565,1.507042 3.01053,4.684077 4.52196,7.060077 1.51142,2.376 3.16588,5.4 3.67659,6.72 0.5107,1.32 1.28077,3.003703 1.71126,3.741561 0.4305,0.737859 1.1537,2.753859 1.60712,4.48 0.45342,1.726142 1.3125,4.722439 1.90907,6.658439 0.59657,1.936 1.22825,4.70725 1.40373,6.158333 0.25634,2.119741 0.5732,3.101411 1.61202,4.994181 1.16968,2.13121 1.32421,2.68567 1.62071,5.81489 0.18026,1.90247 0.67107,5.05509 1.0907,7.00582 0.41963,1.95073 0.91228,4.26678 1.09478,5.14678 0.18251,0.88 0.48451,4.48 0.67112,8 0.1866,3.52 0.48893,7.0451 0.67183,7.83356 0.1829,0.78846 1.11452,3.02046 2.07027,4.96 0.95575,1.93954 1.88359,4.30209 2.06186,5.25012 0.17828,0.94802 0.32414,3.68065 0.32414,6.0725 0,2.39186 -0.28284,7.2322 -0.62853,10.75633 -0.34569,3.52412 -0.9224,9.40823 -1.28159,13.07581 -0.49375,5.04156 -0.85495,7.26642 -1.48064,9.12 -0.45516,1.34842 -1.02794,3.38768 -1.27285,4.53168 -0.2449,1.144 -0.44778,2.60776 -0.45083,3.25279 -0.004,0.74041 -0.46903,2.04757 -1.26269,3.54554 -0.69141,1.30501 -1.49659,3.2969 -1.78928,4.42642 -0.29269,1.12953 -1.01176,2.84604 -1.59792,3.81447 -0.58617,0.96843 -1.37335,2.91278 -1.7493,4.32078 -0.37594,1.408 -0.95357,3.01995 -1.28361,3.58212 -0.33004,0.56216 -0.97901,2.07416 -1.44214,3.36 -0.46314,1.28583 -1.27451,3.12988 -1.80304,4.09788 -0.52853,0.968 -1.30381,2.59464 -1.72285,3.61476 -0.41904,1.02011 -1.25553,2.53211 -1.85888,3.36 -0.60334,0.82788 -1.48805,2.28274 -1.96602,3.23301 -0.68957,1.37099 -0.80203,1.87482 -0.54458,2.43986 0.17845,0.39165 1.37977,1.27688 2.6696,1.96718 1.77326,0.94903 2.5943,1.62426 3.36686,2.76892 0.59937,0.88806 1.08375,2.07238 1.1718,2.86505 0.0826,0.74317 0.38491,3.15157 0.67191,5.352 0.40702,3.12071 0.44542,4.35694 0.17456,5.61992 -0.22545,1.05124 -1.18729,2.95898 -2.74233,5.43922 -1.3173,2.10104 -2.91039,4.90008 -3.54019,6.22008 -0.62981,1.32 -1.72541,3.15861 -2.43466,4.08579 -0.70926,0.92719 -2.45804,2.70552 -3.88618,3.95186 -1.68182,1.46772 -3.66763,2.8028 -5.63662,3.78956 -1.672,0.83792 -3.616,1.70738 -4.32,1.93212 -0.704,0.22474 -2.144,0.84215 -3.2,1.37202 -1.056,0.52987 -2.928,1.28782 -4.16,1.68434 -1.232,0.39652 -4.328,1.50695 -6.88,2.46762 -2.552,0.96067 -5.64571,2.34293 -6.87492,3.07168 -1.22921,0.72876 -2.40137,1.32501 -2.6048,1.32501 -0.20343,0 -1.21372,0.61529 -2.24508,1.36732 -1.03136,0.75203 -2.61467,1.83643 -3.51846,2.40978 -0.90379,0.57336 -2.05579,1.63721 -2.56,2.36413 -0.91524,1.31949 -0.91701,1.33192 -1.08462,7.59021 -0.14834,5.53893 -0.24572,6.41755 -0.83669,7.54856 -0.36785,0.704 -0.84368,1.82062 -1.0574,2.48138 -0.21372,0.66076 -0.49265,2.96476 -0.61986,5.12 -0.21653,3.66857 -0.31512,4.1024 -1.54502,6.79862 -0.72255,1.584 -1.47452,3.672 -1.67105,4.64 -0.19652,0.968 -0.84866,2.984 -1.44921,4.48 -0.60055,1.496 -1.26543,3.66709 -1.47751,4.82464 -0.3166,1.72803 -0.28836,3.27415 0.1578,8.64 0.29887,3.59445 0.814,8.26336 1.14474,10.37536 0.33074,2.112 0.82905,5.16353 1.10736,6.78117 0.27899,1.62157 0.6332,6.50305 0.78949,10.88 0.27871,7.80576 0.3008,7.9871 1.31787,10.81883 0.88592,2.46658 1.03585,3.31639 1.04448,5.92 0.009,2.59936 -0.13307,3.4424 -0.97752,5.81616 -0.54317,1.52689 -1.08473,3.61489 -1.20345,4.64 -0.11872,1.02511 -0.42138,2.68806 -0.67259,3.69545 -0.2512,1.00739 -1.08697,3.1895 -1.85726,4.84913 -0.77029,1.65964 -2.01607,3.93141 -2.7684,5.04839 -0.75232,1.11698 -2.49368,3.19122 -3.86967,4.60942 -1.6451,1.69558 -3.01078,3.50362 -3.98815,5.28 -0.81749,1.4858 -2.08476,3.78145 -2.81617,5.10145 -0.7314,1.32 -1.79199,3.03361 -2.35686,3.80801 -0.56488,0.77441 -1.02731,1.56641 -1.02762,1.76 -3.2e-4,0.1936 -0.67411,1.64799 -1.49733,3.23199 l -1.49675,2.88 -0.25109,9.92 c -0.1381,5.456 -0.40362,11.456 -0.59003,13.33333 -0.18641,1.87734 -0.50052,3.89334 -0.69801,4.48 -0.19749,0.58667 -0.49982,1.24667 -0.67183,1.46667 -0.17202,0.22 -0.4168,0.4 -0.54398,0.4 -0.12717,0 -0.46574,-0.25915 -0.75239,-0.57589 z M 389.24121,331.12 c 0.25078,-0.396 0.55984,-1.224 0.68681,-1.84 0.12696,-0.616 0.56,-1.768 0.96232,-2.56 0.40232,-0.792 1.5384,-2.36738 2.52462,-3.50084 0.98668,-1.13398 1.92467,-2.57318 2.0856,-3.2 0.16086,-0.62654 0.39191,-4.88316 0.51347,-9.45916 0.21334,-8.03174 0.19871,-8.34747 -0.42235,-9.11273 -0.49145,-0.60555 -0.94718,-0.79272 -1.93016,-0.79272 -0.87715,0 -2.13597,0.42949 -3.95417,1.34912 -1.46704,0.74201 -3.45935,1.57867 -4.42735,1.85924 -0.968,0.28056 -2.78449,1.0672 -4.03664,1.74808 -1.25215,0.68087 -2.98015,1.40594 -3.84,1.61125 -0.85985,0.20531 -2.49936,0.91698 -3.64336,1.58148 -1.144,0.6645 -2.872,1.45977 -3.84,1.76726 -0.968,0.30749 -2.14499,0.82878 -2.61553,1.15842 -0.47055,0.32963 -0.94768,1.01886 -1.0603,1.53161 -0.12775,0.58164 -0.0203,1.289 0.28571,1.88075 0.26976,0.52166 1.53889,1.91103 2.8203,3.08749 1.2814,1.17646 2.97782,2.50561 3.76982,2.95366 0.792,0.44805 2.592,1.49829 4,2.33386 1.408,0.83556 3.15174,1.8187 3.87497,2.18475 0.72324,0.36605 2.43294,1.89696 3.79933,3.40201 1.77648,1.95676 2.69899,2.73647 3.23765,2.73647 0.43276,0 0.94731,-0.30637 1.20926,-0.72 z M 317.75621,278 c 0.9343,-0.47648 1.50857,-1.0211 1.69788,-1.61025 0.21124,-0.65735 0.15146,-1.09571 -0.22846,-1.67555 -0.283,-0.43191 -0.86237,-1.01319 -1.28748,-1.29174 -0.42512,-0.27854 -1.91305,-0.70548 -3.30652,-0.94875 -1.39347,-0.24327 -3.51493,-0.81168 -4.71435,-1.26314 -1.30162,-0.48993 -2.45018,-0.73689 -2.84903,-0.61258 -0.36754,0.11455 -0.77404,0.36886 -0.90335,0.56514 -0.1293,0.19628 -0.2373,0.55341 -0.24,0.79362 -0.003,0.24021 1.1111,1.59101 2.4751,3.00177 1.364,1.41077 3.056,2.83107 3.76,3.15623 0.704,0.32516 1.93349,0.59436 2.7322,0.59822 0.88637,0.004 2.00228,-0.2735 2.86401,-0.71297 z m -21.77198,-7.91156 c 0.32018,-0.17136 0.67485,-0.68089 0.78814,-1.13229 0.12488,-0.49755 0.004,-1.22542 -0.30639,-1.84844 -0.28181,-0.56524 -1.65965,-1.96371 -3.06185,-3.10771 -1.40221,-1.144 -3.00952,-2.332 -3.57181,-2.64 -0.56228,-0.308 -1.30124,-0.56 -1.64213,-0.56 -0.34089,0 -0.88313,0.23832 -1.20499,0.5296 -0.36291,0.32842 -0.5832,0.96658 -0.57994,1.68 0.003,0.63272 0.3269,1.71747 0.72,2.41057 0.52576,0.92697 1.21162,1.50506 2.59396,2.1864 1.03357,0.50943 2.45918,1.34636 3.16801,1.85983 0.70884,0.51348 1.56466,0.9336 1.90182,0.9336 0.33716,0 0.87499,-0.1402 1.19518,-0.31156 z M 263.00539,37.570346 c 0.89904,-0.80831 1.63461,-1.60031 1.63461,-1.76 0,-0.15969 -0.324,-0.287183 -0.72,-0.283318 -0.396,0.0039 -1.32077,0.279799 -2.05505,0.613186 -0.73428,0.333386 -1.5747,0.971891 -1.86759,1.418899 -0.29289,0.447008 -0.43961,0.963075 -0.32606,1.146815 0.11356,0.183739 0.5424,0.334072 0.95298,0.334072 0.43636,0 1.42561,-0.610573 2.38111,-1.469654 z m 9.23123,430.549354 c -0.40996,-0.22942 -0.55662,-0.72202 -0.55662,-1.86951 0,-0.8738 0.47534,-3.08015 1.08241,-5.0241 0.59532,-1.90635 1.18113,-4.11409 1.3018,-4.90609 0.12066,-0.792 0.55371,-2.52 0.96234,-3.84 0.40862,-1.32 1.20772,-4.40182 1.77578,-6.8485 0.91061,-3.92211 1.03785,-5.03913 1.07525,-9.44 l 0.0424,-4.9915 1.2037,-2.48382 c 1.15826,-2.39004 1.21663,-2.67398 1.546,-7.52 0.20534,-3.02131 0.7048,-6.76452 1.2484,-9.35618 0.49836,-2.376 1.05855,-5.904 1.24486,-7.84 0.18632,-1.936 0.49869,-6.2068 0.69415,-9.49066 0.26619,-4.47193 0.26223,-6.76119 -0.0157,-9.12 -0.20414,-1.73214 -0.51378,-3.79734 -0.6881,-4.58934 -0.17432,-0.792 -0.72981,-2.088 -1.23444,-2.88 -0.50462,-0.792 -1.22492,-2.16 -1.60066,-3.04 -0.37574,-0.88 -1.25358,-2.35584 -1.95076,-3.27964 -0.69717,-0.9238 -2.27369,-3.7318 -3.50337,-6.24 -1.22968,-2.5082 -2.84514,-5.65206 -3.58991,-6.98637 -0.74476,-1.3343 -2.47334,-3.88359 -3.84127,-5.66509 -1.67842,-2.18586 -2.8631,-4.13719 -3.64336,-6.00112 -0.63592,-1.51912 -1.64572,-3.47365 -2.244,-4.3434 -0.59829,-0.86975 -1.22273,-1.9363 -1.38766,-2.3701 -0.16493,-0.4338 -0.21651,-1.00597 -0.11462,-1.2715 0.1019,-0.26553 0.52716,-0.48278 0.94503,-0.48278 0.49503,0 1.51448,0.71387 2.92576,2.04877 1.1913,1.12682 2.66936,2.89082 3.28459,3.92 0.61522,1.02918 2.63122,3.90153 4.48,6.383 1.84877,2.48148 3.76221,5.21748 4.25209,6.08 0.48987,0.86253 1.39947,2.43223 2.02133,3.48823 0.62186,1.056 1.53634,2.352 2.03218,2.88 0.49583,0.528 1.71508,2.23253 2.70944,3.78785 0.99435,1.55532 2.4337,4.07532 3.19855,5.6 0.80819,1.61108 1.60457,3.80943 1.90144,5.24876 0.30591,1.48312 1.02741,3.45163 1.7986,4.9072 0.70828,1.33683 1.28778,2.60683 1.28778,2.82222 0,0.21539 0.5259,1.24715 1.16867,2.2928 0.64277,1.04564 1.93877,3.3973 2.88,5.2259 1.34801,2.61887 1.71133,3.64133 1.71133,4.816 0,0.8202 -0.1728,1.66407 -0.384,1.87527 -0.2112,0.2112 -0.63356,0.384 -0.93858,0.384 -0.30501,0 -1.07634,-0.63675 -1.71405,-1.41499 -0.63771,-0.77824 -1.58883,-1.56466 -2.11359,-1.74759 -0.66695,-0.23251 -1.18061,-0.22941 -1.70666,0.0103 -0.4139,0.18859 -0.92849,0.723 -1.14353,1.1876 -0.23684,0.5117 -0.49847,3.55701 -0.66365,7.72471 -0.14998,3.784 -0.41776,7.72886 -0.59508,8.76635 -0.17732,1.03749 -0.5456,2.65414 -0.8184,3.59255 -0.2728,0.93841 -0.70584,3.20104 -0.96231,5.02807 -0.25647,1.82702 -0.69292,4.24238 -0.96989,5.36745 -0.3057,1.24176 -0.57521,4.24613 -0.68586,7.64558 -0.17413,5.34975 -0.22925,5.72155 -1.23357,8.32 -0.57822,1.496 -1.26289,3.9489 -1.5215,5.45089 -0.3269,1.89862 -0.76969,3.21763 -1.45291,4.328 -0.5405,0.87842 -1.31957,2.8975 -1.73128,4.48686 -0.54234,2.09363 -1.25198,3.73337 -2.57589,5.95201 -1.00503,1.68425 -2.00928,3.21329 -2.23167,3.39786 -0.26744,0.22195 -0.59282,0.2301 -0.96096,0.0241 z m 7.37326,-125.73642 c -0.65457,-0.34564 -1.33857,-0.90581 -1.52,-1.24482 -0.18143,-0.33901 -0.32988,-1.03553 -0.32988,-1.54783 0,-0.51229 0.26334,-1.16976 0.5852,-1.46103 0.32186,-0.29128 1.07786,-0.52906 1.68,-0.5284 0.60214,6.5e-4 1.57094,0.29149 2.1529,0.6463 0.58195,0.35481 1.24713,1.09469 1.47817,1.64418 0.23105,0.54949 0.34896,1.27106 0.26202,1.60348 -0.0869,0.33243 -0.46015,0.81601 -0.82937,1.07463 -0.36923,0.25862 -1.03528,0.46385 -1.48012,0.45607 -0.44484,-0.008 -1.34435,-0.29694 -1.99892,-0.64258 z m -27.26471,-10.86396 c -1.57016,-0.69893 -3.20424,-1.5967 -3.63129,-1.99505 -0.42705,-0.39835 -1.06713,-1.13003 -1.42239,-1.62595 -0.35527,-0.49592 -1.11993,-2.04256 -1.69924,-3.43697 -0.57931,-1.3944 -1.57091,-3.24042 -2.20356,-4.10226 -0.63265,-0.86184 -1.2352,-1.99164 -1.339,-2.51066 -0.13012,-0.65057 -0.0234,-1.10902 0.34364,-1.47605 0.29281,-0.29281 0.72872,-0.53238 0.9687,-0.53238 0.23997,0 0.78522,0.13266 1.21167,0.29479 0.42645,0.16214 1.64979,1.10435 2.71852,2.09381 1.06873,0.98946 2.30522,2.41685 2.74776,3.17198 0.44253,0.75512 1.37102,1.88467 2.06331,2.51011 0.69228,0.62544 2.35625,1.87778 3.6977,2.78299 2.10107,1.41778 2.43901,1.7746 2.43901,2.57524 0,0.51118 -0.13194,1.27644 -0.2932,1.70059 -0.16126,0.42415 -0.53155,1.00952 -0.82286,1.30083 -0.29131,0.29131 -0.84337,0.52743 -1.2268,0.52471 -0.38343,-0.003 -1.98181,-0.57681 -3.55197,-1.27573 z M 277.35453,330.64 c -0.27757,-0.308 -0.60015,-0.94266 -0.71685,-1.41035 -0.13367,-0.53571 0.16043,-2.30105 0.79485,-4.7711 0.65302,-2.54243 1.32579,-4.38404 1.91377,-5.23863 0.4987,-0.72484 1.12668,-2.05853 1.3955,-2.96376 0.26882,-0.90523 0.65413,-1.95485 0.85624,-2.3325 0.20211,-0.37764 1.03342,-1.10895 1.84736,-1.62514 0.81395,-0.51618 1.78291,-0.93852 2.15325,-0.93852 0.37034,0 0.84615,0.1728 1.05735,0.384 0.2112,0.2112 0.38259,1.1112 0.38087,2 -0.002,1.07625 -0.28287,2.20385 -0.84067,3.376 -0.46065,0.968 -1.235,3.01457 -1.72077,4.54794 -0.5199,1.64111 -1.35966,3.43698 -2.04143,4.36575 -0.63702,0.86779 -1.3752,2.19278 -1.64039,2.94443 -0.2652,0.75164 -0.64188,1.55906 -0.83708,1.79425 -0.19519,0.2352 -0.74694,0.42763 -1.22612,0.42763 -0.47917,0 -1.09832,-0.252 -1.37588,-0.56 z M 438.39171,97.68 c -0.73848,-0.836 -2.57367,-3.392 -4.0782,-5.68 -1.50453,-2.288 -3.61757,-5.096 -4.69564,-6.24 -1.07808,-1.144 -2.81581,-3.088 -3.86163,-4.32 -1.04583,-1.232 -3.6571,-4.112 -5.80284,-6.4 -2.14574,-2.288 -5.37678,-5.456 -7.18008,-7.04 -1.80331,-1.584 -4.23149,-3.744 -5.39597,-4.8 -1.16447,-1.056 -3.33675,-2.9673 -4.82729,-4.247332 -1.49053,-1.280033 -3.81953,-3.008033 -5.17555,-3.84 -1.35601,-0.831968 -5.24401,-3.193341 -8.64,-5.247497 -3.39598,-2.054156 -7.93359,-4.538156 -10.08358,-5.52 C 376.50094,43.363327 374.59125,42.56 374.40716,42.56 c -0.18408,0 -2.88899,-0.841854 -6.01092,-1.870787 -3.12193,-1.028933 -6.97224,-2.187843 -8.55624,-2.575357 -1.584,-0.387514 -3.63064,-1.04724 -4.54809,-1.466058 -1.2369,-0.564648 -1.72347,-0.982126 -1.88232,-1.615048 -0.16417,-0.654086 -0.036,-1.031824 0.54856,-1.616357 0.47081,-0.470806 1.42242,-0.887891 2.486,-1.089594 C 357.39191,32.147059 359.15303,32 360.35774,32 c 1.20471,0 3.23705,0.15475 4.51632,0.343889 1.27927,0.18914 3.62194,0.567165 5.20594,0.840057 1.584,0.272892 4.68,0.900332 6.88,1.39431 2.2,0.493979 5.8,1.543485 8,2.332235 2.2,0.788751 5.44,2.024371 7.2,2.745823 1.76,0.721451 3.776,1.62234 4.48,2.001975 0.704,0.379635 2.864,1.688204 4.8,2.907931 1.936,1.219728 4.024,2.69098 4.64,3.269449 0.616,0.57847 2.848,2.377283 4.96,3.997364 2.40385,1.843953 5.51591,4.699904 8.32107,7.636284 2.46458,2.579876 4.99541,5.338683 5.62406,6.130683 0.62865,0.792 1.72616,2.304 2.4389,3.36 0.71274,1.056 1.87606,2.620597 2.58515,3.476881 0.70909,0.856285 1.68396,2.296285 2.16638,3.2 0.48241,0.903716 1.91404,3.299119 3.18139,5.323119 1.26735,2.024 2.84338,4.904 3.5023,6.4 0.65891,1.496 1.68914,3.905916 2.28939,5.355369 0.6329,1.528312 1.09136,3.18385 1.09136,3.941037 0,0.718118 -0.14907,1.584202 -0.33126,1.924631 -0.20978,0.391979 -0.6692,0.618963 -1.2528,0.618963 -0.69761,0 -1.24782,-0.369364 -2.26423,-1.52 z M 387.77479,91.6 c -0.26642,-0.308 -0.8433,-1.358571 -1.28195,-2.334602 -0.43865,-0.976031 -1.22987,-2.272031 -1.75827,-2.88 -0.52839,-0.607969 -1.13808,-1.44281 -1.35485,-1.855203 -0.21678,-0.412393 -0.30457,-1.106671 -0.1951,-1.542841 0.14558,-0.580023 0.6862,-1.008481 2.01271,-1.595129 0.99753,-0.441151 2.52301,-1.366873 3.38998,-2.057159 1.0918,-0.869308 1.89054,-1.255066 2.59871,-1.255066 0.6515,0 1.26174,0.261209 1.68209,0.72 0.36281,0.396 0.97453,1.347061 1.35936,2.113468 0.38482,0.766407 1.33708,2.176011 2.11611,3.132452 0.82048,1.007333 1.41642,2.070334 1.41642,2.526532 0,0.433152 -0.28434,1.071885 -0.63186,1.419408 -0.34752,0.347524 -1.03152,0.727733 -1.52,0.844909 -0.48848,0.117177 -1.32014,0.430521 -1.84814,0.696322 -0.528,0.2658 -1.59271,0.965591 -2.36602,1.555091 -0.79262,0.60422 -1.78312,1.071818 -2.2704,1.071818 -0.47541,0 -1.08237,-0.252 -1.34879,-0.56 z M 364.354,89.24957 c -0.46878,-0.368736 -1.4962,-2.024736 -2.28316,-3.68 -0.78696,-1.655263 -2.06509,-4.34157 -2.84028,-5.96957 -0.79676,-1.673279 -1.9368,-3.485667 -2.62259,-4.169256 -0.77809,-0.775592 -1.7971,-1.379016 -2.84149,-1.682626 -1.09284,-0.317698 -3.67683,-0.518018 -7.85741,-0.609133 -3.42599,-0.07467 -6.51707,-0.239375 -6.86907,-0.366013 -0.352,-0.126639 -0.892,-0.446682 -1.2,-0.711208 -0.308,-0.264526 -0.56,-0.875721 -0.56,-1.358211 0,-0.590248 0.34134,-1.176004 1.04333,-1.790403 0.57383,-0.502233 3.05783,-1.818468 5.52,-2.924967 2.46217,-1.106499 5.12166,-2.330499 5.90999,-2.72 0.78833,-0.389501 1.76063,-1.197933 2.16068,-1.796515 0.40005,-0.598583 0.90619,-1.678583 1.12476,-2.4 0.27321,-0.901784 0.36599,-3.173044 0.29688,-7.268248 -0.0802,-4.751645 -0.003,-6.18962 0.38084,-7.108611 0.32491,-0.77762 0.75621,-1.221018 1.32709,-1.364298 0.46713,-0.117244 1.1612,-0.04344 1.55043,0.164871 0.38758,0.207426 1.1648,1.053821 1.72716,1.880878 0.56236,0.827057 2.03778,3.732627 3.27871,6.456821 1.31794,2.89324 2.67337,5.383438 3.25925,5.987913 0.71851,0.741319 1.46502,1.122687 2.63194,1.344586 0.89592,0.170365 4.4317,0.402726 7.85731,0.516358 4.12217,0.136738 6.58374,0.355091 7.27928,0.645705 0.57801,0.241506 1.20926,0.786624 1.40279,1.211374 0.27619,0.606163 0.23895,0.990641 -0.17313,1.787514 -0.3278,0.63389 -1.03066,1.24179 -1.87116,1.618362 -0.74038,0.331716 -3.21815,1.4622 -5.50615,2.512186 -2.288,1.049986 -4.61108,2.080146 -5.16241,2.289244 -0.55132,0.209098 -1.35979,0.765716 -1.79659,1.236928 -0.4368,0.471212 -0.89113,1.216749 -1.00962,1.656749 -0.11848,0.44 -0.34704,4.072424 -0.50789,8.072054 -0.17976,4.469743 -0.44022,7.55257 -0.67588,8 -0.21088,0.40037 -0.54186,0.833741 -0.73552,0.963046 -0.19365,0.129305 -0.58467,0.237305 -0.86894,0.24 -0.28426,0.0027 -0.90038,-0.296793 -1.36915,-0.66553 z"
       id="path1" />
  </g>
</svg>
