<?xml version="1.0" encoding="UTF-8" standalone="no"?>
<!-- Created with Inkscape (http://www.inkscape.org/) -->

<svg
   version="1.1"
   id="svg1"
   width="3333.3333"
   height="1861.3333"
   viewBox="0 0 3333.3333 1861.3333"
   xmlns="http://www.w3.org/2000/svg"
   xmlns:svg="http://www.w3.org/2000/svg">
  <defs
     id="defs1" />
  <g
     id="g1">
    <path
       style="fill:#FFFFFF"
       d="m 1595.3333,1766.5242 c -236.3636,-16.197 -452.0236,-129.403 -599.78482,-314.8438 -22.99346,-28.8569 -51.5485,-69.6949 -51.5485,-73.722 0,-5.0648 5.76663,-0.3807 17.2868,14.0415 124.51092,155.8769 300.82552,261.7224 500.71322,300.5892 65.1306,12.6642 116.6393,17.3882 189.3333,17.3644 51.4855,-0.017 74.0426,-1.1955 116.2966,-6.0765 206.485,-23.8524 389.1112,-113.5188 526.4034,-258.4555 18.2494,-19.2655 39.3371,-43.5254 52.5209,-60.4216 6.7703,-8.6768 9.6468,-10.5773 11.4915,-7.5926 1.6788,2.7164 -37.2053,57.6869 -61.2525,86.5926 -87.2095,104.8294 -195.7331,185.713 -319.9852,238.4877 -84.9095,36.0644 -176.4563,57.6009 -272.5808,64.1251 -23.3761,1.5865 -85.1828,1.5364 -108.8939,-0.088 z m -160.3915,-129.9356 c -14.0872,-4.1649 -21.1559,-7.7804 -34.3766,-17.583 -12.2348,-9.0716 -20.162,-17.8078 -25.8839,-28.5256 -4.516,-8.4591 -4.9045,-10.4801 -2.0147,-10.4801 1.1111,0 2,-1.1852 2,-2.6666 0,-2.1588 -0.8889,-2.6667 -4.6666,-2.6667 -3.605,0 -4.6667,-0.546 -4.6667,-2.4 0,-1.32 0.75,-3.1541 1.6667,-4.0757 0.9419,-0.9471 1.6666,-4.9765 1.6666,-9.2667 0,-4.175 0.6,-7.8327 1.3334,-8.1282 0.7333,-0.2955 2.6762,1.8045 4.3176,4.6667 l 2.9843,5.2039 -0.7633,-10.6667 c -0.9232,-12.9028 -1.2234,-14 -3.8301,-14 -1.5311,0 -2.0419,1.5009 -2.0419,6 0,6.3242 -1.1494,7.3268 -4.5273,3.9489 -1.68,-1.68 -1.9532,-4.8775 -1.5095,-17.6667 0.5317,-15.3287 0.4651,-15.7677 -3.6264,-23.902 -3.8412,-7.6368 -4.0021,-8.4732 -2.0519,-10.6667 2.5257,-2.8406 7.9385,-15.5515 10.9109,-25.6221 2.7177,-9.2075 2.7084,-17.2154 -0.031,-26.98 -1.9501,-6.9502 -1.9638,-8.0435 -0.1353,-10.8342 1.4009,-2.1379 1.8195,-5.0048 1.3453,-9.212 -0.4708,-4.1769 0.191,-8.7886 2.0932,-14.5866 3.8574,-11.7574 5.6855,-24.1108 6.6807,-45.1452 l 0.8517,-18 20.6667,-0.8723 c 11.3667,-0.4798 109.0827,-1.3106 217.1468,-1.8463 l 196.4802,-0.974 -0.978,3.1796 c -4.683,15.2249 -6.5422,18.1566 -24.9434,39.3306 -8.6933,10.0033 -13.6999,14.5405 -19.3937,17.5752 -4.2213,2.2499 -8.9771,5.8519 -10.5685,8.0043 -1.5914,2.1525 -7.3941,6.2304 -12.8949,9.0621 l -10.0015,5.1486 -12.1118,-2.4483 c -13.6484,-2.7588 -19.653,-2.2211 -26.7352,2.3943 -3.2587,2.1237 -7.4826,3.2666 -14,3.7882 -6.2384,0.4993 -13.4121,2.3687 -21.6337,5.6375 -14.7251,5.8546 -19.033,10.0401 -19.033,18.4928 0,7.0947 -2.5747,10.7472 -10.4261,14.7905 -3.4323,1.7676 -10.4405,6.6047 -15.5739,10.7492 -9.9528,8.0356 -14,10.6723 -14,9.1208 0,-0.5285 1.3046,-2.3496 2.8991,-4.0469 l 2.8991,-3.0859 h -4.4129 c -2.8512,0 -5.4115,1.0616 -7.235,3 -1.5522,1.65 -4.321,4.0185 -6.1529,5.2634 l -3.3307,2.2634 4.6667,0.1143 4.6666,0.1143 -3.3333,2.7767 c -1.8333,1.5271 -11.0354,6.6376 -20.449,11.3565 l -17.1157,8.5797 -10.1426,-1.7042 c -6.4496,-1.0837 -11.3836,-2.741 -13.551,-4.5518 -1.8746,-1.5661 -4.9084,-3.2934 -6.7417,-3.8386 -1.8333,-0.5451 -4.2955,-2.2061 -5.4715,-3.6912 -1.6182,-2.0437 -2.7018,-2.3847 -4.4566,-1.4027 -2.019,1.1299 -1.4027,2.0988 4.7682,7.497 6.8655,6.0057 7.0386,6.3273 5.5408,10.2953 -1.3338,3.5336 -1.1914,4.4507 1.0365,6.6786 3.3877,3.3877 3.2851,4.0773 -1.2533,8.4254 -5.9692,5.7189 -12.554,7.0422 -29.1052,5.8492 -7.9157,-0.5706 -15.7003,-0.7338 -17.299,-0.3627 -4.3572,1.0114 -7.0932,4.3926 -7.0932,8.7659 0,2.1596 -0.7449,3.9679 -1.6667,4.0461 -5.2745,0.4471 -15.4788,-1.2846 -21.7501,-3.6911 -1.4027,-0.5383 -1.9166,0.3314 -1.9166,3.2439 0,4.5227 1.6186,6.1935 7.3259,7.5626 4.3299,1.0386 7.3408,3.0511 7.3408,4.9066 0,0.6435 -0.75,1.1734 -1.6667,1.1775 -0.9166,0 -3.9166,0.6323 -6.6666,1.396 -4.0869,1.1349 -5,2.0019 -5,4.7469 0,5.8207 -2.1931,8.1425 -8.5985,9.103 -6.6427,0.9962 -7.9725,2.1806 -6.755,6.0164 0.545,1.7173 3.2474,3.2854 8.086,4.692 6.2275,1.8104 7.2675,2.5763 7.2675,5.3526 0,2.4301 -1.4998,4.1188 -6.0003,6.7563 -3.3002,1.934 -5.6982,4.0052 -5.329,4.6025 1.3676,2.213 -1.0564,5.3268 -4.1467,5.3268 -4.2179,0 -4.0687,2.752 0.4397,8.11 l 3.6305,4.3145 -3.6305,-0.694 c -5.0246,-0.9605 -4.5577,-0.2538 2.0363,3.0821 3.1166,1.5766 8.1107,5.1035 11.0978,7.8374 2.9872,2.734 6.2434,5.2415 7.2361,5.5724 2.9618,0.9873 0.1361,3.7834 -3.746,3.7067 -1.9733,-0.039 -8.5641,-1.5422 -14.6461,-3.3404 z M 510.66665,1313.9198 c -32.43128,-6.9905 -52.90503,-31.558 -57.50707,-69.0057 -5.26485,-42.841 13.77677,-81.7421 48.37,-98.8174 14.99991,-7.4041 26.66237,-10.0427 44.52361,-10.0736 24.14621,-0.042 42.58146,7.1888 56.6364,22.2136 14.99585,16.0306 21.25307,34.1934 21.2779,61.7632 0.0267,29.6015 -7.8229,50.4077 -25.9675,68.8299 -10.51866,10.6797 -15.71767,14.1833 -29.85741,20.1213 -16.17079,6.7909 -39.61842,8.8179 -57.47593,4.9687 z m 47.6021,-39.9228 c 8.21382,-4.0594 10.92129,-6.2728 15.83036,-12.9413 14.90888,-20.2523 15.98467,-54.8354 2.26863,-72.9289 -8.36415,-11.0335 -16.10433,-15.0564 -30.48957,-15.8465 -34.51952,-1.896 -57.00434,23.1373 -54.83772,61.053 1.34992,23.6233 12.19656,39.8424 30.01598,44.8831 3.82336,1.0816 10.38644,1.5611 16.79037,1.2267 8.76783,-0.4579 12.15868,-1.3621 20.42195,-5.4461 z m 2265.73115,38.461 c -2.5666,-0.2466 -8.4166,-0.7984 -13,-1.226 l -8.3333,-0.7776 v -68.3639 -68.3638 l -11,-0.8325 c -6.05,-0.4579 -17.75,-1.2366 -26,-1.7305 l -15,-0.898 v -16.8387 -16.8387 l 40.3333,2.9329 c 22.1834,1.613 52.7658,3.8807 67.9611,5.0391 15.1952,1.1585 29.1452,2.1063 31,2.1063 h 3.3723 v 16.6667 16.6666 l -3.6667,-0.014 c -4.3347,-0.016 -32.9295,-2.2931 -42,-3.3442 l -6.3333,-0.7339 v 68.7126 68.7126 l -6.3334,-0.2134 c -3.4833,-0.1174 -8.4333,-0.4152 -11,-0.6619 z m -108.6666,-7.8023 c -0.7334,-0.2568 -8.9454,-0.8677 -18.249,-1.3574 l -16.9157,-0.8905 -4.1254,-6.8706 c -2.269,-3.7788 -10.8868,-18.5506 -19.1506,-32.8261 -16.5495,-28.5887 -15.5804,-27.683 -29.8685,-27.9116 l -8.3092,-0.1329 -0.3575,31.6667 -0.3575,31.6666 -10.6666,-0.3555 c -5.8667,-0.1956 -14.4167,-0.6933 -19,-1.1061 l -8.3334,-0.7506 v -85.1496 -85.1497 l 9,0.655 c 4.95,0.3603 27,1.7933 49,3.1846 48.6209,3.0747 52.7495,4.1257 65.45,16.6609 9.8126,9.6849 13.6923,18.7583 14.8031,34.6198 0.8913,12.7291 -1.735,24.9169 -7.334,34.0338 -4.2581,6.9336 -14.2433,14.9342 -21.7168,17.4007 -2.8612,0.9443 -5.2023,1.9275 -5.2023,2.1848 0,0.2574 8.7481,15.5376 19.4402,33.956 10.6921,18.4184 19.7563,34.3118 20.1426,35.3186 0.4994,1.3012 -0.3992,1.8002 -3.1068,1.7254 -2.0951,-0.058 -4.4093,-0.3154 -5.1426,-0.5723 z m -47.6248,-104.028 c 6.6081,-2.6441 9.9083,-8.2977 10.1232,-17.3422 0.1254,-5.2746 -0.5416,-8.0378 -2.6183,-10.8481 -5.1865,-7.0183 -12.5074,-8.8589 -41.5468,-10.4456 l -16.3333,-0.8925 v 20.044 20.0439 l 6.3333,0.4994 c 17.9988,1.4192 39.1174,0.9114 44.0419,-1.0589 z m -2007.70852,16.9591 v -85.2019 l 10.33334,-0.7857 c 5.68333,-0.4321 28.12073,-1.8345 49.86088,-3.1164 37.65027,-2.22 39.92993,-2.2198 48,0 20.53609,5.66 30.74107,20.8232 30.67209,45.5748 -0.0373,13.3914 -2.7908,24.0508 -8.54975,33.0981 -4.42652,6.9541 -13.99589,15.279 -20.80483,18.0994 -2.29812,0.9519 -4.1784,2.2843 -4.1784,2.9609 0,0.6766 8.95708,15.4538 19.90461,32.8383 10.94753,17.3844 19.49753,31.9979 19,32.4745 -0.49753,0.4765 -10.55655,1.2904 -22.35338,1.8086 l -21.44877,0.9422 -18.55123,-29.7275 c -10.20317,-16.3501 -18.9239,-30.2743 -19.3794,-30.9426 -0.47691,-0.6998 -5.70805,-0.8087 -12.33333,-0.2568 l -11.50516,0.9584 v 31.7606 31.7605 l -5.66667,0.691 c -3.11666,0.38 -11.81666,1.0442 -19.33333,1.476 l -13.66667,0.7852 z m 66,-16.2955 c 16.96852,-1.5885 25.00665,-4.7919 29.66474,-11.8219 3.54572,-5.3512 4.05518,-15.5651 1.06481,-21.3479 -3.72037,-7.1944 -9.82587,-8.1192 -41.06288,-6.22 l -17,1.0336 v 19.8658 19.8657 h 6.33333 c 3.48334,-6e-4 12.93334,-0.619 21,-1.3742 z m 1706.67572,89.8882 c -31.3553,-7.5796 -55.2205,-31.6118 -63.4025,-63.8462 -3.7529,-14.7853 -3.7661,-39.8911 -0.029,-54.3967 8.623,-33.4671 31.2646,-53.5503 65.8225,-58.3847 20.9619,-2.9324 48.3419,3.1265 64.5968,14.2948 16.5772,11.3895 29.6905,30.2853 35.2214,50.7526 3.985,14.7467 3.9828,42.0624 0,56.8192 -7.6992,28.4937 -27.659,48.4164 -54.9512,54.8492 -10.889,2.5666 -36.4687,2.5188 -47.2537,-0.088 z m 42.6576,-37.4492 c 15.5207,-8.1247 24.6953,-25.6239 24.6469,-47.0105 -0.058,-25.5082 -12.1777,-45.9621 -31.7114,-53.5166 -11.3308,-4.3821 -27.7423,-4.2444 -37.6022,0.3154 -19.2781,8.9153 -29.5589,32.2862 -25.5489,58.0794 3.4741,22.3465 14.4066,37.1337 32.2228,43.5844 8.8069,3.1887 30.728,2.3509 37.9928,-1.4521 z M 838.66665,1206.8692 v -85.1307 l 14.20741,-0.8693 C 860.68814,1120.3911 869.38814,1120 872.2074,1120 h 5.12591 v 68.2062 68.2063 l 23.66667,-0.8966 c 13.01666,-0.4932 29.21666,-1.2746 36,-1.7365 l 12.33333,-0.8397 v 16.8634 c 0,12.5944 -0.42193,16.8671 -1.66667,16.8776 -0.91666,0.01 -24.46666,1.2014 -52.33333,2.6526 -27.86666,1.4512 -52.01666,2.6448 -53.66666,2.6526 l -3,0.014 z m 131.12749,74.1307 c 24.61724,-58.2936 46.96536,-111.2793 53.56566,-127 4.6183,-10.9999 10.421,-24.7999 12.8948,-30.6666 l 4.4979,-10.6667 16.4372,-1.1199 c 9.0405,-0.6159 16.9268,-0.6159 17.5252,0 0.5983,0.616 5.891,12.2199 11.7613,25.7866 5.8704,13.5666 22.0668,50.7646 35.992,82.6621 13.9253,31.8975 25.2166,58.0748 25.0919,58.1718 -0.1247,0.097 -9.2268,0.5839 -20.2268,1.082 l -20,0.9057 -6.8973,-16.4108 -6.8973,-16.4108 -33.0367,0.4752 c -18.1702,0.2613 -34.1889,0.9014 -35.5971,1.4223 -1.6996,0.6287 -4.8925,6.5205 -9.497,17.5248 l -6.9366,16.5777 -9.23565,0.8344 c -5.07962,0.4589 -14.19373,0.9089 -20.25357,1 l -11.01789,0.1656 z m 105.00696,-67.491 3.4677,-0.8423 -10.0263,-23.7651 c -6.9634,-16.5051 -10.3621,-23.1651 -11.1255,-21.801 -0.6046,1.0803 -5.2655,12.2246 -10.3576,24.7651 l -9.2583,22.801 16.9161,-0.1577 c 9.3039,-0.087 18.4766,-0.5368 20.3839,-1 z m 1167.8655,69.1638 c -11.0183,-2.7187 -28.7345,-9.839 -38.0194,-15.2803 l -5.9806,-3.5049 v -19.3558 c 0,-10.6457 0.45,-19.0941 1,-18.7743 19.364,11.2599 28.8365,16.1846 39.1077,20.3316 10.5203,4.2476 14.5308,5.1634 24.7061,5.6417 9.6661,0.4544 13.1504,0.095 17.0588,-1.7597 8.5001,-4.0335 11.2279,-13.4747 6.0104,-20.8021 -3.3246,-4.6689 -9.9498,-8.1561 -32.7554,-17.2407 -33.3136,-13.2704 -45.1666,-21.5759 -52.7369,-36.9534 -4.0501,-8.2269 -4.3871,-9.9036 -4.3443,-21.6135 0.057,-15.6531 3.1833,-23.7384 12.5743,-32.5227 7.9805,-7.4648 15.2665,-11.196 26.5207,-13.5814 21.7448,-4.6089 50.3535,0.4743 76.5253,13.597 l 9,4.5126 v 18.6499 c 0,10.2575 -0.3975,18.6499 -0.8833,18.6499 -0.4858,0 -3.6493,-1.7749 -7.03,-3.9443 -17.3394,-11.1267 -42.8696,-20.0603 -57.3,-20.0507 -18.7315,0.013 -24.2613,14.704 -9.2689,24.6255 2.8126,1.8613 14.2819,7.1511 25.4874,11.7551 33.619,13.813 47.2497,23.0729 54.2966,36.886 5.8735,11.513 5.9294,30.3724 0.1289,43.4854 -5.9174,13.3774 -20.8957,24.2389 -38.6014,27.9919 -12.3378,2.6151 -33.2723,2.2734 -45.496,-0.7428 z m -1071.6765,-90.3394 0.3432,-85 18,-0.2776 18,-0.2776 39.3333,46.9241 39.3334,46.9241 0.3498,-48.1592 0.3498,-48.1592 18.3168,-0.6017 c 10.0743,-0.3309 18.7669,-0.3647 19.3169,-0.075 0.55,0.2895 1,38.5007 1,84.9138 v 84.3876 l -14.898,0.9048 c -8.1939,0.4977 -15.2439,0.3934 -15.6667,-0.2316 -2.1859,-3.2321 -83.1542,-100.3532 -84.2032,-101.0015 -0.7459,-0.461 -1.2321,19.7342 -1.2321,51.1745 0,46.1289 -0.2358,52.0265 -2.109,52.7454 -1.16,0.4451 -9.8645,0.8093 -19.3432,0.8093 h -17.2342 z m 922.3432,83.4185 c -25.3,-0.6192 -49.75,-1.4645 -54.3333,-1.8783 l -8.3334,-0.7525 v -84.8938 -84.8939 l 35.0014,0.8681 c 19.2508,0.4775 48.3514,1.2943 64.6681,1.8151 l 29.6666,0.947 v 16.6615 16.6616 l -23.6666,-0.8244 c -13.0167,-0.4535 -33.4167,-1.1818 -45.3334,-1.6186 l -21.6666,-0.7942 v 17.4753 17.4752 l 18.3333,0.01 c 10.0833,0 24.1833,0.3943 31.3333,0.8678 l 13,0.8609 v 16.4685 16.4686 l -31.3333,-0.8825 -31.3333,-0.8825 v 18.0672 18.0671 l 26.3333,0.8326 c 14.4833,0.4578 35.1833,1.1913 46,1.6299 l 19.6667,0.7975 v 16.5157 16.5157 l -11,-0.2278 c -6.05,-0.1253 -31.7,-0.7344 -57,-1.3537 z M 1614,1272.7614 c -32.4292,-6.419 -53.8567,-25.5552 -63.5579,-56.7615 -2.7428,-8.8227 -3.101,-12.5898 -3.0423,-32 0.061,-20.3063 0.3469,-22.8432 3.7097,-32.9526 11.7635,-35.3648 42.122,-56.3344 81.5571,-56.3344 34.3649,0 61.9208,15.7317 75.2713,42.9725 8.2577,16.8494 10.0492,25.2626 10.004,46.9812 -0.028,13.3238 -0.6967,21.1473 -2.3373,27.3333 -7.952,29.9837 -29.5952,51.7816 -58.938,59.3593 -11.4696,2.962 -31.4663,3.6191 -42.6666,1.4022 z m 37.7201,-38.1285 c 13.464,-5.9558 20.9107,-14.9177 25.8376,-31.0952 2.3048,-7.5676 2.6671,-11.4445 2.1186,-22.6667 -0.8378,-17.1366 -4.1473,-26.2537 -13.077,-36.0242 -9.5994,-10.5033 -17.1084,-13.4916 -33.9327,-13.5038 -11.6125,-0.01 -14.2946,0.4411 -20.7819,3.4834 -14.4186,6.7616 -23.6858,20.4938 -26.5888,39.399 -1.8362,11.9577 0.067,27.3545 4.608,37.2726 3.5622,7.781 12.6771,18.3664 18.3338,21.2915 12.184,6.3006 31.55,7.1216 43.4824,1.8434 z m -284.5014,37.4782 c -0.3036,-0.3056 -0.5521,-38.4676 -0.5521,-84.8044 v -84.2488 l 10.2012,-0.8623 c 20.037,-1.6937 66.6313,-0.9842 77.5217,1.1805 30.36,6.0346 51.8904,25.9539 59.8668,55.3868 3.2244,11.8981 3.2244,41.2426 0,53.1407 -7.7706,28.6735 -27.8141,48.1853 -57.8557,56.321 -9.0373,2.4474 -15.5278,2.9231 -49.5152,3.6293 -21.513,0.447 -39.363,0.5627 -39.6667,0.2572 z m 85.0733,-39.8244 c 16.4659,-8.1114 24.9901,-24.2087 25.0255,-47.2588 0.04,-26.2875 -14.7756,-45.8417 -37.1277,-49.0011 -4.3668,-0.6173 -13.996,-0.7886 -21.3981,-0.3807 l -13.4584,0.7416 v 50.5978 50.5978 l 19.0338,-0.4583 c 18.3875,-0.4428 19.3358,-0.6071 27.9249,-4.8383 z m 510.5047,39.7763 -16.5366,-0.7297 -19.0511,-32 -19.0511,-32 -11.4123,-0.3853 -11.4123,-0.3852 v 32.0519 32.0519 H 1866 1846.6666 V 1185.3333 1100 l 13,0.1048 c 7.15,0.058 30.1,0.5653 51,1.128 34.3144,0.924 38.7215,1.3028 45.4391,3.9059 18.7085,7.2494 29.2208,24.3721 29.1792,47.5279 -0.041,22.8601 -9.3991,39.4162 -26.7243,47.2807 -3.975,1.8043 -7.3935,3.3706 -7.5967,3.4805 -0.3076,0.1664 29.7416,51.2376 38.5813,65.5721 l 2.6722,4.3334 -6.442,-0.2703 c -3.5432,-0.1486 -13.8836,-0.5986 -22.9787,-1 z m -28.8828,-100.7768 c 2.886,-1.4408 6.3326,-4.1196 7.659,-5.9529 3.5676,-4.931 4.4689,-14.39 1.9463,-20.4274 -3.4375,-8.227 -9.1115,-9.8625 -36.1859,-10.4305 l -22.6667,-0.4754 -0.3727,18.6024 c -0.205,10.2314 -0.047,19.4516 0.3514,20.4895 0.5952,1.551 4.5777,1.7914 22.3727,1.3504 18.1345,-0.4495 22.5004,-0.9618 26.8959,-3.1561 z M 190.02687,1119.9358 c -57.43432,-9.0034 -91.26851,-41.6084 -103.343355,-99.5887 -4.463812,-21.43415 -5.48585,-56.97819 -5.070711,-176.34714 l 0.387194,-111.33333 38.666662,-4.11969 c 21.26667,-2.26584 42.08903,-4.46963 46.27191,-4.89733 l 7.60524,-0.77762 0.47626,128.89732 c 0.52338,141.648 0.28409,137.39967 8.75912,155.51039 9.70071,20.7299 24.31404,28.9102 51.55414,28.859 25.67488,-0.048 43.22201,-6.3687 57.31452,-20.6444 8.95275,-9.0692 14.01078,-18.38365 18.40068,-33.88518 2.88833,-10.19924 2.91298,-11.25213 3.30758,-141.26134 l 0.39756,-130.98551 2.9565,-0.59616 c 1.62607,-0.32788 20.95649,-2.14536 42.95649,-4.03884 22,-1.89348 41.65,-3.71673 43.66666,-4.05166 l 3.66667,-0.60897 v 127.35254 c 0,80.15145 -0.52074,132.1513 -1.40499,140.3 -9.27586,85.48022 -55.82024,134.50062 -142.18106,149.74482 -17.86846,3.1541 -60.91081,4.5844 -74.38707,2.4718 z m 3024.63973,-4.0392 c -28.8744,-3.2244 -142.6901,-14.7984 -196.7886,-20.0117 l -16.122,-1.5536 -0.9551,-195.97743 c -0.5254,-107.7876 -0.6815,-196.25115 -0.347,-196.58567 0.4885,-0.48846 83.6947,6.85448 89.9195,7.93539 1.3755,0.23885 1.7011,30.19087 1.6777,154.29637 -0.016,84.7 0.416,154.65184 0.9599,155.44854 0.5439,0.7966 11.4889,2.502 24.3223,3.7895 12.8333,1.2876 48.2333,4.9857 78.6666,8.218 30.4334,3.2323 55.492,5.877 55.686,5.8771 1.1375,7e-4 -0.5433,81.8205 -1.686,82.0696 -0.7333,0.1599 -16.6333,-1.4178 -35.3333,-3.5061 z m -294.6667,-28.5897 c -17.9666,-1.6468 -38.143,-3.4151 -44.8363,-3.9294 l -12.1698,-0.9352 -14.4178,-37.2206 c -7.9299,-20.4713 -14.7577,-37.7702 -15.1729,-38.4421 -0.6634,-1.0734 -29.5144,-3.5308 -134.6314,-11.46745 -14.9755,-1.13069 -27.6286,-1.58849 -28.118,-1.01733 -0.7595,0.8863 -23.8278,56.64718 -27.8718,67.37178 -1.6539,4.386 3.9131,4.3323 -54.1153,0.5218 -37.4714,-2.4606 -45.2586,-3.306 -44.9027,-4.8746 0.5366,-2.3644 48.0767,-110.70216 134.8537,-307.31383 9.3863,-21.26667 20.207,-45.86667 24.046,-54.66667 3.839,-8.8 7.4059,-16.46565 7.9263,-17.03479 1.3882,-1.51807 80.4318,4.46223 82.3155,6.22785 0.8647,0.81048 18.7805,43.17361 39.8129,94.14027 67.9471,164.65245 126.1844,305.92367 127.3816,308.99997 1.4239,3.6594 3.9991,3.6825 -40.1,-0.3597 z m -120,-166.89149 c 0,-1.89795 -47.2702,-123.08211 -48.0105,-123.08211 -1.2957,0 -48.0089,114.88987 -47.2273,116.15444 0.4007,0.64839 4.1431,1.22457 8.3165,1.28041 4.1734,0.0558 24.388,1.47591 44.9213,3.1557 20.5334,1.6798 38.3834,3.13411 39.6667,3.23181 1.2833,0.0977 2.3333,-0.23542 2.3333,-0.74025 z M 485.33332,884.96865 V 688.30723 l 7,-0.7974 c 14.56325,-1.65896 78.39765,-6.34941 80.82461,-5.93886 2.45726,0.41567 22.41324,25.09486 120.56105,149.09566 24.08827,30.43333 44.35579,55.53333 45.03893,55.77778 0.76069,0.27219 1.24207,-41.71401 1.24207,-108.33333 0,-59.82778 0.45,-108.7831 1,-108.7896 0.55,-0.006 19.3,-1.20118 41.66667,-2.65484 22.36666,-1.45366 42.61666,-2.64834 45,-2.65484 L 831.99998,664 v 196.66666 196.66664 h -4.75485 c -2.61517,0 -19.50538,0.9384 -37.53379,2.0852 -27.06985,1.7221 -33.07629,1.7802 -34.48618,0.3334 -0.93899,-0.9636 -23.79878,-29.7314 -50.79955,-63.92859 -27.00076,-34.19717 -66.49229,-84.11013 -87.75896,-110.91768 l -38.66666,-48.74101 -0.34041,118.92774 -0.3404,118.92774 -41.6596,3.0703 c -22.91277,1.6886 -43.60959,3.4009 -45.99293,3.805 l -4.33333,0.7347 z M 2351.5034,1059.2354 c -32.1807,-5.0044 -72.3219,-20.0229 -111.1701,-41.5934 l -13.6667,-7.5885 v -46.43877 c 0,-25.54135 0.45,-46.1763 1,-45.85544 0.55,0.32086 9.5727,5.72617 20.0505,12.0118 47.6871,28.60756 89.0205,45.55774 122.7283,50.3289 15.5832,2.20573 36.2558,1.00066 45.8446,-2.6724 16.9307,-6.48542 25.9213,-26.63887 18.4324,-41.31837 -6.5013,-12.74358 -24.6404,-22.9557 -80.7225,-45.44607 -75.6361,-30.33205 -104.2815,-50.83237 -121.2612,-86.78152 -8.6127,-18.23471 -11.4948,-36.12123 -9.8081,-60.86971 1.6671,-24.46196 10.367,-44.07066 27.0693,-61.01137 15.6315,-15.85457 32.7567,-25.24678 58.9158,-32.31196 12.2422,-3.30644 14.9719,-3.53785 42.4176,-3.59596 32.2066,-0.0682 37.8671,0.69305 68.819,9.25484 27.4543,7.59425 69.6233,24.69328 84.8476,34.40461 l 5.6667,3.61468 v 45.98327 c 0,25.2908 -0.3419,45.98327 -0.7598,45.98327 -0.4178,0 -3.2678,-1.69167 -6.3333,-3.75928 -3.0655,-2.0676 -10.3736,-6.49187 -16.2402,-9.8317 -48.0176,-27.33597 -94.2551,-42.60778 -129.217,-42.6792 -20.0812,-0.041 -29.6947,3.52244 -36.418,13.49909 -9.6805,14.3649 4.7859,32.46353 38.1579,47.73863 5.5791,2.55365 21.8437,9.42751 36.1437,15.27524 58.6824,23.99711 87.9053,40.85534 108.7317,62.72549 13.5862,14.26706 21.2749,27.31622 26.1406,44.36506 2.5791,9.03678 3.0251,13.62083 2.919,30 -0.1051,16.21136 -0.6766,21.42695 -3.5393,32.29843 -3.9646,15.05595 -11.6483,30.60194 -20.6446,41.76894 -17.5763,21.8172 -48.0786,36.8972 -86.0305,42.5325 -17.2419,2.5602 -55.5161,2.5437 -72.0734,-0.031 z M 909.66223,855.66663 l 0.33775,-196.33333 32,-1.53585 c 17.6,-0.84473 38.15,-1.88902 45.66666,-2.32065 l 13.66666,-0.78478 v 196.65397 c 0,156.42231 -0.341,196.65851 -1.66666,196.67631 -0.91666,0.012 -18.46666,0.905 -39,1.9836 -20.53333,1.0786 -40.48532,1.9685 -44.33774,1.9776 L 909.32448,1052 Z M 2116.6973,1039.7583 c -18.3165,-0.64 -33.7246,-1.5975 -34.2402,-2.1277 -0.5156,-0.5302 -16.3379,-27.664 -35.1605,-60.29731 -45.3782,-78.67343 -46.2998,-80.22669 -47.9078,-80.74183 -0.7639,-0.24472 -15.0388,-0.62902 -31.7222,-0.85398 l -30.3333,-0.40904 v 69.66909 69.66907 l -33,-0.01 c -18.15,0 -38.85,-0.3943 -46,-0.8677 l -13,-0.8609 V 836.40449 639.87788 l 13,0.70702 c 7.15,0.38886 38.5,1.04901 69.6667,1.467 79.6944,1.06883 139.2865,2.92464 148.6666,4.62977 47.8661,8.70116 79.6404,40.57521 90.3679,90.65163 3.6246,16.9194 3.8515,48.70558 0.4713,66 -2.8067,14.35993 -9.2298,30.7462 -16.2627,41.48846 -10.5949,16.18302 -30.7055,32.33359 -48.9282,39.29373 l -7.685,2.93529 2.4471,4.14126 c 2.5582,4.32907 82.6531,138.25976 87.198,145.80796 l 2.6091,4.3333 -18.4421,-0.2057 c -10.1431,-0.1131 -33.4283,-0.7293 -51.7447,-1.3693 z m -71.7381,-227.1041 c 11.1443,-3.30949 19.0706,-9.52272 23.6774,-18.55996 3.7317,-7.32052 4.03,-8.94903 4.03,-22 0,-12.75062 -0.3573,-14.82189 -3.7479,-21.7266 -4.5325,-9.23002 -12.1574,-16.05247 -22.1463,-19.8155 -8.8588,-3.33732 -28.5927,-4.76738 -77.7724,-5.63596 l -33,-0.58283 v 44.46014 44.46014 l 17,0.41672 c 53.7217,1.3169 85.2771,0.96821 91.9592,-1.01615 z m -844.2048,223.0292 c -2.2495,-5.4659 -59.496,-142.74297 -70.7606,-169.68344 -4.5993,-11 -19.777,-47.3 -33.7282,-80.66666 -13.9511,-33.36667 -32.0119,-76.52294 -40.135,-95.90284 -8.1232,-19.37989 -14.4924,-35.51314 -14.1539,-35.85166 0.8407,-0.84072 87.7287,-4.42229 95.9241,-3.95406 l 6.5675,0.37523 5.7095,14.66667 c 3.1402,8.06666 23.7781,61.76666 45.862,119.33333 22.0839,57.56666 40.6367,105.16409 41.2284,105.77207 0.5918,0.60798 1.9954,-1.49202 3.1192,-4.66667 8.1447,-23.00794 90.3562,-240.36179 91.2058,-241.13336 1.4794,-1.34358 103.477,-3.04241 102.6703,-1.71003 -0.5758,0.9508 -62.7934,153.21262 -135.5556,331.73798 -14.0477,34.46664 -25.9538,63.04064 -26.4579,63.49774 -0.5042,0.4571 -16.3942,1.2147 -35.3111,1.6834 l -34.3943,0.8524 z M 1473.3333,837.52324 V 641.71319 l 8.1956,-0.85661 c 4.5076,-0.47113 72.0076,-0.85661 150,-0.85661 h 141.8044 v 41.51632 41.51632 l -52,-0.9817 c -28.6,-0.53993 -75.4,-0.53993 -104,0 l -52,0.9817 v 34.48368 34.48368 H 1636 h 70.6666 v 41.33333 41.33333 h -70.524 c -63.0787,0 -70.6094,0.22265 -71.3333,2.10905 -0.4451,1.15998 -0.8093,17.95636 -0.8093,37.3253 v 35.21625 l 105.6666,0.34137 105.6667,0.34136 0.3523,41.66666 0.3523,41.66668 H 1624.6856 1473.3333 Z M 1059.2995,573.86561 c 0.4882,-5.05943 2.4274,-14.18421 4.3092,-20.27728 3.9197,-12.69165 3.7026,-20.80596 -0.915,-34.19527 -3.3078,-9.59157 -3.638,-14.69715 -1.3092,-20.24775 1.4386,-3.42884 1.4531,-6.32918 0.081,-16 -0.9222,-6.4966 -2.18,-12.77529 -2.7951,-13.95266 -0.7519,-1.43897 0.1757,-4.70657 2.83,-9.96861 3.2018,-6.34769 3.8746,-9.2007 3.5576,-15.08733 -0.215,-3.99266 -1.0371,-7.4722 -1.827,-7.73232 -2.0754,-0.68346 -8.195,11.2358 -10.4751,20.40249 -1.0753,4.32287 -2.6142,15.91866 -3.4198,25.76843 -1.0196,12.46592 -2.5096,21.06971 -4.9024,28.30968 -3.2602,9.86436 -3.3233,10.57539 -1.2234,13.78035 1.8214,2.77969 1.9632,4.31171 0.7993,8.63402 -1.716,6.37263 -3.4553,7.75549 -4.5032,3.58029 -0.4282,-1.70604 -3.1922,-5.84396 -6.1422,-9.19538 -2.9501,-3.35142 -5.3528,-6.60142 -5.3395,-7.22223 0.013,-0.6208 1.8134,-3.76902 4,-6.99604 4.7177,-6.9622 5.0919,-12.71776 1.3091,-20.13269 -3.3753,-6.61607 -3.4582,-11.56908 -0.2109,-12.59973 1.3507,-0.42869 3.9007,-2.31755 5.6667,-4.19747 2.8388,-3.02194 3.2174,-4.68028 3.2672,-14.31042 0.054,-10.37361 0.4505,-11.79519 8.3333,-29.84843 7.905,-18.10411 9.8605,-25.90793 6.9437,-27.71061 -3.5253,-2.17876 0.9401,-13.49384 13.4544,-34.0924 4.4824,-7.37799 7.9126,-13.65176 7.6226,-13.9417 -0.9998,-0.99981 -35.1341,30.99945 -57.077,53.50696 -42.06606,43.14846 -78.48816,90.28637 -108.58123,140.52713 -13.45624,22.46535 -14.33575,23.57818 -16.53778,20.9249 -1.94388,-2.34223 8.00955,-23.02177 27.03435,-56.16737 C 1014.8872,355.76862 1154.4534,231.15589 1322,159.39626 c 210.2381,-90.04431 453.1304,-89.331005 662.6666,1.94606 148.5103,64.69328 275.1244,171.18845 365.3837,307.32433 25.3394,38.21885 58.0234,97.74338 56.2322,102.41104 -1.4036,3.65769 -4.1563,1.31657 -9.5487,-8.12092 -12.9112,-22.59672 -26.4989,-42.45502 -31.6731,-46.29013 -2.9682,-2.2 -7.7394,-7.14917 -10.6028,-10.99816 -3.252,-4.37146 -7.5679,-8.20873 -11.4987,-10.22341 -7.4183,-3.80224 -16.6127,-13.08103 -23.5784,-23.79481 -6.0327,-9.27875 -12.7418,-15.20066 -26.032,-22.97755 -5.5086,-3.22336 -16.0155,-10.9682 -23.3489,-17.21077 -15.4461,-13.14869 -18.7538,-15.2414 -20.8218,-13.17344 -2.2979,2.29788 2.5474,10.93514 9.9358,17.71148 3.598,3.3 10.8193,10.35362 16.0473,15.67471 5.228,5.32109 13.804,12.52109 19.0578,16 11.589,7.67385 25.5132,20.46198 24.7553,22.73559 -0.3963,1.18882 -1.8781,0.83662 -5.2513,-1.2481 l -4.6991,-2.90426 0.9362,3.20436 c 0.515,1.7624 2.3076,4.40437 3.9836,5.87103 4.9047,4.29206 6.1635,8.09131 5.8519,17.66198 -0.1612,4.95258 0.1885,11.65508 0.7771,14.89444 l 1.0704,5.88975 -4.4883,-2.65339 c -11.0462,-6.53044 -14.5934,-9.32289 -15.3072,-12.05033 -1.1837,-4.52269 0.423,-5.74245 7.5644,-5.74245 3.6713,0 6.5879,-0.61381 6.5879,-1.38645 0,-2.78273 -5.572,-12.20337 -10.3383,-17.47911 -2.6892,-2.97663 -10.9132,-9.66048 -18.2755,-14.85298 -7.3624,-5.1925 -19.6862,-15.51115 -27.3862,-22.93033 -14.9926,-14.44583 -21.1938,-19.35113 -24.4635,-19.35113 -2.5652,0 -6.1964,5.03526 -6.2235,8.63001 -0.042,5.50232 -1.5166,6.07852 -9.9336,3.88053 -13.5193,-3.53037 -17.7933,1.07413 -10.046,10.8228 4.975,6.26021 5.009,8.74563 0.1955,14.28693 -2.0924,2.40885 -4.4924,5.69029 -5.3333,7.29208 -2.1882,4.16823 -1.9877,18.68416 0.2765,20.0214 3.5869,2.11845 4.8613,7.10963 4.8613,19.0392 0,10.88909 -0.317,12.46526 -3.0584,15.20661 -1.6833,1.68338 -5.5513,3.45698 -8.6035,3.94505 -3.6894,0.58997 -8.4903,3.11588 -14.3456,7.54772 -4.8402,3.66355 -9.0867,6.661 -9.4366,6.661 -0.3499,0 -4.5262,-3.3 -9.2807,-7.33333 -4.7544,-4.03333 -9.1709,-7.33333 -9.8142,-7.33333 -0.6434,0 -3.7853,1.18682 -6.9821,2.63738 -3.1967,1.45056 -7.4157,2.65056 -9.3755,2.66667 -2.9552,0.0243 -3.8353,-0.82402 -5.1575,-4.97072 -3.3182,-10.40717 -5.4562,-13.63639 -9.7652,-14.74899 -4.1153,-1.06259 -4.1936,-1.23635 -5.0028,-11.10611 -0.4521,-5.51465 -1.569,-12.37825 -2.4818,-15.25243 -2.6127,-8.22618 -10.3654,-21.43249 -16.1539,-27.51752 -5.3506,-5.62468 -5.9445,-9.04161 -1.5715,-9.04161 1.3133,0 3.0795,-1.10749 3.9248,-2.46109 1.3048,-2.08924 4.1232,-2.6126 18.6541,-3.46391 22.7086,-1.33041 41.137,-3.75937 41.0327,-5.40834 -0.046,-0.73333 -3.2006,-7.76387 -7.0094,-15.62342 -6.3822,-13.16964 -7.5256,-14.69654 -14.5824,-19.47395 -11.9059,-8.06025 -16.21,-9.86558 -26.1116,-10.9525 -6.6244,-0.72718 -9.9806,-1.79256 -11.996,-3.80793 -2.6677,-2.6677 -2.6891,-2.90741 -0.459,-5.1369 1.6654,-1.665 4.1496,-2.26343 8.6243,-2.07756 3.4568,0.14359 7.7209,-0.0394 9.4757,-0.40657 l 3.1906,-0.66763 -4.1906,-4.32358 c -2.3048,-2.37796 -4.1906,-4.82351 -4.1906,-5.43455 0,-1.0675 5.5756,-0.43891 11.4903,1.29543 2.2423,0.65748 3.4503,-0.18588 5.8668,-4.09597 2.8786,-4.65765 2.9267,-5.12113 0.889,-8.57064 -2.0926,-3.54254 -2.0381,-3.75733 1.9073,-7.5188 3.5993,-3.43155 3.9668,-4.47034 3.2303,-9.13038 -0.8017,-5.07224 -0.7428,-5.17838 1.6642,-3 3.3782,3.05724 4.2854,2.84566 4.2854,-0.99944 0,-1.85495 -1.2918,-4.17989 -3,-5.39931 -2.8135,-2.0085 -2.8549,-2.2502 -0.6666,-3.88926 1.2833,-0.96123 2.3333,-2.43153 2.3333,-3.26735 0,-0.83583 1.4646,-1.51968 3.2547,-1.51968 1.79,0 3.5584,-0.4916 3.9298,-1.09244 0.3713,-0.60084 -3.9091,-4.95084 -9.512,-9.66667 -5.6029,-4.71582 -12.4713,-10.59404 -15.2631,-13.06271 -4.9377,-4.36615 -6.4558,-8.50142 -3.7376,-10.18136 2.2806,-1.4095 15.1793,6.40765 17.0558,10.33651 1.7694,3.70462 2.7706,4.19234 7.6057,3.70493 5.4362,-0.548 5.2615,-2.66415 -0.7278,-8.81687 -6.719,-6.90233 -14.5866,-11.87284 -20.8616,-13.17965 -2.3409,-0.4875 -6.6191,-2.5981 -9.5072,-4.69021 -5.1623,-3.73956 -8.2367,-3.47511 -8.2367,0.70849 0,2.63925 -4.7258,5.93998 -8.5045,5.93998 -4.4757,0 -10.9024,-3.19796 -11.9587,-5.95069 -0.4325,-1.12712 -1.9007,-2.04931 -3.2625,-2.04931 -1.3619,0 -3.9307,-1.55939 -5.7085,-3.46531 -1.7779,-1.90592 -6.0825,-4.91603 -9.5658,-6.68913 -5.1403,-2.61653 -6.3333,-3.88639 -6.3333,-6.74113 0,-2.36216 -1.7312,-5.16413 -5.2711,-8.53162 l -5.2712,-5.0143 3.116,-2.04166 c 1.7138,-1.12291 3.7577,-3.88264 4.5421,-6.13272 l 1.4262,-4.09105 -14.271,-7.15344 c -27.7908,-13.93033 -69.6102,-31.15414 -102.7367,-42.31329 -21.2416,-7.15557 -23.7267,-7.20869 -38.201,-0.81656 -5.6127,2.47867 -9.1145,2.94777 -22.1502,2.96717 l -15.4835,0.023 -3.8766,4.1462 c -2.1321,2.2804 -5.2654,4.58697 -6.9628,5.12571 -2.518,0.79917 -2.9284,1.60822 -2.2292,4.39415 0.7742,3.0844 -1.2142,7.03436 -8.1368,16.16406 -0.2072,0.27324 -5.6531,-1.60445 -12.1021,-4.17263 -6.449,-2.56819 -14.8953,-5.33966 -18.7695,-6.15883 -10.4354,-2.20648 -16.7174,-5.92948 -28.3307,-16.79007 -5.7468,-5.37439 -12.4505,-11.29839 -14.897,-13.16443 -13.9103,-10.60991 -14.7824,-23.54415 -1.5874,-23.54415 3.1424,0 6.1377,-1.11929 8.648,-3.23151 l 3.8404,-3.2315 -3.648,-0.74853 c -4.2695,-0.87607 -47.4126,-5.56119 -60.9812,-6.62224 -7.2043,-0.56337 -8.7251,-0.39592 -6.6667,0.73405 3.6159,1.98502 8.6667,6.64655 8.6667,7.99881 0,0.6055 -2.22,1.10092 -4.9334,1.10092 -2.7483,0 -4.3723,0.49091 -3.6666,1.10836 0.6966,0.60961 10.4844,4.91833 21.7506,9.57493 11.2662,4.65661 21.7662,9.51327 23.3333,10.79258 3.2855,2.68205 3.4872,2.54491 -9.4163,6.40393 l -7.7343,2.31309 -12.5534,-6.42978 c -13.8582,-7.09807 -17.4466,-7.86866 -17.4466,-3.74655 0,2.55844 1.8893,4.0101 18.6667,14.34273 l 4.6666,2.87405 -4.3333,1.51376 c -3.3195,1.15958 -4.3333,2.2886 -4.3333,4.82541 v 3.31164 l -4.3334,-2.59896 c -2.3833,-1.42943 -8.5333,-4.83364 -13.6666,-7.56491 l -9.3334,-4.96594 7.0265,6.45616 c 3.8645,3.55089 7.0145,6.91759 7,7.48156 -0.038,1.46101 -4.9292,0.19058 -25.3598,-6.58647 -15.5806,-5.16825 -18.8065,-6.74539 -24,-11.73369 -7.9564,-7.64198 -15.154,-11.05796 -26.9325,-12.78224 -20.0719,-2.93835 -21.7342,-3.28693 -21.7342,-4.55756 0,-3.88029 17.9682,-3.76673 35,0.22121 2.3629,0.55326 3,0.12278 3,-2.02707 0,-2.2503 1.112,-2.87596 6.3334,-3.56366 12.6677,-1.66843 13.4281,-1.9534 12.6948,-4.75762 -0.9115,-3.48536 -2.4782,-4.2931 -5.3481,-2.75718 -1.3063,0.69911 -4.032,0.95437 -6.0572,0.56724 -2.8215,-0.53936 -3.3486,-1.10562 -2.2554,-2.42284 1.0952,-1.31965 0.504,-1.92162 -2.545,-2.59129 -2.1843,-0.47977 -4.6865,-1.73374 -5.5603,-2.7866 -1.1808,-1.42277 -4.8847,-1.91098 -14.4254,-1.9014 -14.7442,0.0148 -55.9967,2.2491 -62.6528,3.39336 l -4.4827,0.77061 3.1494,3.37159 c 1.7321,1.85437 4.6493,4.16366 6.4827,5.13175 4.1982,2.21688 9.7249,7.37265 8.8456,8.25195 -0.3652,0.36521 -5.5954,-0.40148 -11.6227,-1.70375 -9.1563,-1.97833 -12.3741,-2.12532 -19.5643,-0.8937 -9.9063,1.69688 -11.4293,1.359 -13.4033,-2.97347 -1.7045,-3.74086 -0.275,-5.32982 7.3987,-8.224 l 5.0126,-1.89056 -8,0.78967 c -50.5848,4.99316 -87.8883,16.11144 -104.9973,31.29433 l -5.5922,4.96266 3.9614,2.13788 c 7.996,4.3152 7.9403,4.20951 4.8489,9.21154 l -2.831,4.58068 12.9718,4.39662 c 15.89,5.38571 19.9764,7.41269 24.3218,12.06446 4.6441,4.97158 12.8926,8.95266 23.6215,11.40077 4.9657,1.13306 11.2468,2.642 13.9581,3.3532 l 4.9297,1.29309 -3.8935,8.67793 -3.8935,8.67793 3.2926,7.44523 3.2926,7.44523 8.6282,-0.5494 c 10.7616,-0.68525 14.5079,-3.72312 16.731,-13.56725 2.7217,-12.05208 2.3391,-11.52703 8.4064,-11.53799 16.6775,-0.0301 33.5968,-5.61538 35.0951,-11.58535 1.1513,-4.58691 -2.4368,-11.61501 -7.4382,-14.56937 -4.3276,-2.55639 -5.1487,-4.27915 -2.4134,-5.06343 0.9167,-0.26283 4.5743,-1.51562 8.128,-2.78397 6.0519,-2.15999 6.4239,-2.56076 5.8714,-6.32532 -0.453,-3.08666 -0.019,-4.1686 1.872,-4.66303 2.3702,-0.6198 2.9973,-1.88927 2.5846,-5.23224 -0.5032,-4.07572 5.0611,-4.3057 23.8774,-0.98692 16.6129,2.93017 23.0006,5.37339 29.3333,11.21971 3.2009,2.95507 8.6359,6.19937 12.4986,7.46082 3.7591,1.22761 7.0015,2.36793 7.2054,2.53402 0.2038,0.16609 -0.2733,1.99553 -1.0602,4.0654 -2.0676,5.4382 0.5016,10.54899 7.8787,15.67249 5.6631,3.93318 6.9793,4.26727 16.8108,4.26727 9.2883,0 11.8601,-0.56516 19.9019,-4.37334 l 9.2352,-4.37335 12.3649,13.04001 c 6.8006,7.17201 12.3948,14.10995 12.4314,15.41767 0.1224,4.36834 6.6431,15.41852 11.0472,18.7207 5.4063,4.05363 13.7451,8.27934 24.2721,12.29989 4.4444,1.69741 7.9096,3.79035 7.7005,4.65098 -0.6233,2.56586 2.4366,5.27422 10.6337,9.4121 4.4304,2.23643 7.7465,4.79585 7.7465,5.97885 0,7.98306 -9.1601,11.69235 -25.8594,10.47154 -9.3488,-0.68344 -13.806,-0.39207 -19.3826,1.26703 -11.7871,3.50677 -18.9734,2.71055 -52.758,-5.84542 -34.2413,-8.67162 -41.5598,-9.47788 -48.3656,-5.32835 -2.4011,1.46393 -6.5218,2.66168 -9.1571,2.66168 -4.4914,0 -38.4788,10.44297 -37.4232,11.49862 0.2672,0.26717 5.8393,-0.68811 12.3825,-2.12283 16.3016,-3.57445 41.0208,-5.97002 49.9846,-4.84408 8.795,1.10474 16.2905,5.17635 15.6552,8.50397 -0.3622,1.89699 -2.2381,2.36556 -10.7576,2.68707 -10.3581,0.3909 -14.6851,2.86208 -5.3188,3.03763 2.75,0.0515 6.1406,0.5412 7.5348,1.08812 2.2251,0.87294 2.0215,1.207 -1.6667,2.73472 -5.1691,2.14109 -5.3691,5.15785 -0.7093,10.6957 4.4598,5.30022 8.5875,7.39118 22.6154,11.45631 l 11.3619,3.29255 10.2126,-5.28875 c 10.3096,-5.33897 12.8024,-5.86923 9.6317,-2.04883 -1.4516,1.74905 -1.2469,2.7452 1.2608,6.13703 1.6465,2.22699 2.772,4.2706 2.5013,4.54136 -0.2708,0.27077 -4.22,0.6736 -8.776,0.89519 -4.556,0.22159 -8.2873,0.85289 -8.2918,1.40289 0,0.55 -10.082,1 -22.3946,1 -15.5976,0 -24.7151,0.60652 -30.0651,2 -11.1931,2.91543 -14.8361,2.61903 -17.4842,-1.42257 -3.1776,-4.84962 -1.1781,-6.58027 10.6404,-9.20964 15.7478,-3.50354 14.0419,-5.14518 -4.2003,-4.04209 -8.7107,0.52673 -24.5376,1.06229 -35.1709,1.19012 -21.4795,0.25822 -29.5199,2.10639 -37.2541,8.56316 -5.3249,4.4454 -4.8182,8.60444 1.3085,10.74022 2.1701,0.75647 3.9456,1.78938 3.9456,2.29535 0,1.15804 -16.9295,-0.31537 -32.6667,-2.84307 -14.7862,-2.37494 -15.3333,-2.37814 -15.3333,-0.0895 0,1.20935 2.6513,2.3029 7.6666,3.16219 l 7.6667,1.31354 -11.6075,0.17115 c -12.8627,0.18964 -17.2805,2.16837 -26.1039,11.69174 l -4.378,4.72538 -2.7187,-3.45633 c -4.0625,-5.16461 -6.5252,-4.48037 -6.5252,1.81296 0,4.79009 -0.576,5.66269 -6.3334,9.59539 -3.4833,2.37937 -6.9997,5.21004 -7.8142,6.29039 -1.1113,1.47395 -1.3172,-0.58841 -0.8247,-8.26206 0.7909,-12.3236 -1.2727,-13.71401 -4.398,-2.96333 -1.4899,5.12525 -1.8478,9.59284 -1.2159,15.17861 0.7859,6.94598 0.5541,8.25707 -1.8919,10.70309 -1.5331,1.5331 -4.4527,3.1778 -6.488,3.65487 -2.0353,0.47708 -4.6541,2.05983 -5.8195,3.51722 -1.5352,1.91991 -4.4734,2.89663 -10.6666,3.54583 -4.7013,0.49281 -10.3478,1.89135 -12.5478,3.10786 -2.2,1.21652 -6.7888,2.57341 -10.1973,3.01531 -3.4085,0.4419 -11.0513,3.15081 -16.984,6.0198 -5.9327,2.86899 -13.1383,5.84956 -16.0125,6.62349 -8.1741,2.20106 -17.7081,9.32759 -21.4554,16.03758 -3.1637,5.66483 -3.3564,7.16113 -3.4498,26.78607 l -0.099,20.78607 -5.1196,9.21393 c -2.8158,5.06766 -5.7713,9.65474 -6.5678,10.19351 -0.7964,0.53877 -3.6981,0.98877 -6.4481,1 -4.6222,0.0189 -5,-0.26899 -5,-3.81009 0,-2.10678 -1.1858,-6.51137 -2.6352,-9.78798 -4.3193,-9.76445 -5.6941,-18.40854 -3.9993,-25.14522 0.8168,-3.24663 1.7937,-7.14875 2.171,-8.67139 0.7477,-3.01817 -6.4466,-14.89704 -9.8021,-16.18468 -1.064,-0.40829 -4.3633,-0.0147 -7.3317,0.8747 -5.1626,1.54674 -5.5785,1.44518 -9.5666,-2.33634 -5.8931,-5.58776 -11.7948,-8.24442 -18.4365,-8.29916 -3.1531,-0.026 -7.1012,-0.80691 -8.7736,-1.73538 -4.4937,-2.49478 -20.2926,-0.0243 -20.2926,3.17311 0,1.25565 -0.8381,2.97852 -1.8624,3.82861 -1.0243,0.85009 -1.5543,2.72356 -1.1778,4.16326 0.8152,3.1175 -1.2794,3.44575 -3.6627,0.57401 -1.3344,-1.60784 -3.331,-1.85867 -9.3629,-1.17624 -7.271,0.82262 -7.7872,0.68372 -9.9978,-2.68999 -1.282,-1.95657 -3.0839,-3.26846 -4.0042,-2.9153 -0.9203,0.35316 -4.5816,-0.24649 -8.1361,-1.33255 -9.4228,-2.87907 -24.4785,-1.84043 -28.5694,1.97091 -1.7117,1.59464 -5.5379,3.52277 -8.5028,4.28474 -11.3212,2.90957 -14.3952,4.30442 -17.7269,8.04373 -1.8908,2.12209 -4.2349,3.85834 -5.2091,3.85834 -2.7257,0 -9.6322,10.39994 -10.5086,15.82408 -1.2238,7.574 -2.8614,10.55796 -6.9564,12.67557 -2.7946,1.44515 -5.9676,6.20168 -12.0578,18.07522 -6.9041,13.46045 -8.2651,17.21973 -8.2651,22.82886 0,3.69319 -0.9533,10.50992 -2.1184,15.14828 l -2.1184,8.4334 -14.8816,0.82694 c -8.1849,0.45482 -26.489,1.22264 -40.6757,1.70626 l -25.7941,0.87933 z M 2164.8511,329.99999 c 0.9987,-2.60242 5.0203,-2.56479 7.2048,0.0674 0.9548,1.15047 3.2448,1.88967 5.1633,1.66666 2.9639,-0.34453 3.4474,-1.04577 3.4474,-4.99957 0,-3.85648 -0.9314,-5.30928 -5.7703,-9 -3.9369,-3.0028 -7.2237,-4.40117 -10.3446,-4.40117 -4.2708,0 -4.463,0.18184 -2.8964,2.74064 1.4099,2.30278 1.325,2.94133 -0.5313,3.99685 -1.4234,0.80929 -1.947,2.25948 -1.472,4.07613 0.6909,2.6418 0.3672,2.76616 -5.124,1.9688 l -5.8614,-0.85111 6,3.30743 c 7.0185,3.86886 9.134,4.16546 10.1845,1.42793 z m 99.8731,170.42122 c -0.4941,-1.96832 -3.3517,-7.07642 -6.3504,-11.35133 -4.9284,-7.02585 -5.2998,-8.1069 -3.8666,-11.25254 1.51,-3.31401 1.7057,-3.3713 4.1036,-1.20122 4.0008,3.62067 9.5024,12.13418 11.4045,17.64784 1.5742,4.56329 1.4999,5.30228 -0.7442,7.40268 -3.2523,3.04406 -3.4864,2.97993 -4.5469,-1.24543 z m -14.3993,-32.39743 c -5.507,-4.34139 -6.9397,-7.71703 -4.8962,-11.53536 1.681,-3.14107 1.7454,-3.09676 5.5114,3.78976 4.7879,8.75533 4.5449,11.81365 -0.6152,7.7456 z m -415.3916,-84.29046 c -0.88,-0.88 -1.6,-2.34228 -1.6,-3.24951 0,-1.14051 -1.44,-1.41582 -4.6667,-0.89221 -4.4719,0.72569 -6.4424,-1.00343 -3.3333,-2.92495 0.7333,-0.45322 1.3333,-1.44637 1.3333,-2.207 0,-0.92782 -4.6073,-1.06891 -14,-0.42871 -10.0086,0.68219 -14,0.52871 -14,-0.53835 0,-0.82094 1.751,-1.49261 3.891,-1.49261 2.14,0 4.9335,-0.40006 6.2077,-0.88902 3.3269,-1.27668 -25.4874,-9.36241 -39.2712,-11.02009 -11.3837,-1.36903 -17.4941,-3.9574 -17.4941,-7.41051 0,-5.86299 22.0005,-21.44358 35.1565,-24.89758 11.8603,-3.11382 14.1768,-3.10557 14.1768,0.0505 0,1.70526 -1.2583,2.75167 -3.9583,3.29167 -4.5536,0.9107 -9.375,5.21205 -9.375,8.36366 0,1.85901 1.1914,2.02773 8.6666,1.22721 8.3297,-0.89204 10.2462,-0.16203 7.3025,2.78166 -0.9301,0.93005 3.4978,2.81285 13.9133,5.91616 l 15.2776,4.55195 -2.7491,4.44811 c -3.0812,4.98553 -2.3177,6.50658 3.5891,7.15031 l 4,0.43593 -4.3334,2.62081 c -5.8041,3.51033 -5.4839,4.79491 0.6667,2.67476 6.0516,-2.08602 6.91,-1.55459 3.5474,2.19619 l -2.5474,2.84143 4.3333,-0.9392 c 4.9568,-1.07432 5.3836,0.0408 2.2991,6.00556 -2.1648,4.1862 -4.4287,4.93751 -7.0324,2.33379 z m 235.7229,-10.09642 c 1.6366,-2.91199 4.8585,-6.18842 7.1597,-7.28094 l 4.184,-1.98641 -9.6135,-1.72216 -9.6135,-1.72215 3.2245,-3.83206 c 3.5228,-4.18656 3.251,-7.12237 -0.7564,-8.17031 -1.4159,-0.37028 -2.5744,-1.6294 -2.5744,-2.79806 0,-1.53948 1.2856,-2.12483 4.6667,-2.12483 2.5666,0 4.6666,-0.6134 4.6666,-1.36312 0,-0.74972 -2.5383,-4.11691 -5.6407,-7.48264 -5.4634,-5.92709 -5.835,-6.09652 -11.8178,-5.38795 -6.9097,0.81835 -9.2081,-0.55673 -9.2081,-5.50894 0,-2.53354 -0.4913,-3.00705 -2.3333,-2.24872 -5.4677,2.25093 -7,2.28309 -7,0.14688 0,-1.40301 -1.1491,-2.1555 -3.2915,-2.1555 -2.2947,0 -3.0716,-0.57306 -2.5654,-1.89229 1.0212,-2.66108 -2.9497,-8.23134 -8.1662,-11.45528 l -4.4137,-2.72785 3.3323,-5.96229 c 3.3109,-5.92381 3.3793,-5.96229 10.5987,-5.96229 6.9441,0 7.2005,0.12282 5.7833,2.77085 -2.6075,4.87227 -0.6241,7.01202 5.5801,6.01993 7.5447,-1.20645 11.809,1.6299 11.809,7.85468 0,5.85312 2.3168,7.97749 17.6287,16.16445 7.2363,3.86907 15.7778,9.86709 20.992,14.74094 7.2276,6.75585 9.2166,7.97955 11.1819,6.87969 6.2251,-3.48372 12.8641,3.56164 12.8641,13.65146 0,3.04631 0.7175,4.35527 2.6666,4.865 3.1332,0.81933 3.3815,2.13329 0.8069,4.26999 -2.6773,2.22194 -32.2001,7.32482 -40.5104,7.00203 -3.8704,-0.15033 -8.2922,0.39847 -9.8264,1.21955 -2.7618,1.47804 -2.7599,1.44027 0.1862,-3.80166 z m -57.7382,-0.45623 c -2.021,-1.17558 -2.2859,-2.52921 -1.6227,-8.29279 0.8812,-7.65877 0.558,-8.38857 -5.6287,-12.70959 -5.3984,-3.77047 -5.4349,-5.52904 -0.1951,-9.40302 3.4307,-2.53637 4.0084,-3.70899 3.3786,-6.85766 -0.639,-3.19503 0.012,-4.43429 4.1007,-7.80442 7.1976,-5.93281 11.4747,-6.44914 16.7277,-2.01934 2.3768,2.00436 4.3408,4.68584 4.3644,5.95884 0.024,1.27301 2.2584,4.7668 4.9661,7.76398 8.3886,9.28516 8.1747,11.31878 -2.2273,21.17368 -13.5252,12.81384 -18.4589,15.33414 -23.8637,12.19032 z m -317.7722,-19.89783 c -7.1884,-3.58133 -10.806,-7.48933 -8.7948,-9.50058 1.0952,-1.09517 2.5296,-0.61166 5.433,1.83136 2.4199,2.03629 7.1986,3.95956 12.3623,4.97545 8.6023,1.69239 8.7375,2.88976 0.5203,4.60791 -2.7303,0.5709 -5.7524,-0.0367 -9.5208,-1.91414 z m 13.5208,-27.17281 c -5.1333,-2.45347 -10.5333,-5.41284 -12,-6.57638 -2.5773,-2.04462 -2.52,-2.11694 1.7095,-2.15793 5.1834,-0.0502 12.3761,2.75888 19.2905,7.53396 10.1309,6.99631 4.6549,7.72665 -9,1.20035 z m -74,-164.61889 -4.6666,-0.82448 3.2966,-2.33333 c 5.8109,-4.11281 17.4015,-2.47979 15.6062,2.19876 -0.857,2.23323 -5.3217,2.534 -14.2362,0.95905 z"
       id="path1" />
  </g>
</svg>
