<?xml version="1.0" encoding="UTF-8" standalone="no"?><!DOCTYPE svg PUBLIC "-//W3C//DTD SVG 1.1//EN" "http://www.w3.org/Graphics/SVG/1.1/DTD/svg11.dtd"><svg width="100%" height="100%" viewBox="0 0 1000 529" version="1.1" xmlns="http://www.w3.org/2000/svg" xmlns:xlink="http://www.w3.org/1999/xlink" xml:space="preserve" xmlns:serif="http://www.serif.com/" style="fill-rule:evenodd;clip-rule:evenodd;stroke-linejoin:round;stroke-miterlimit:2;"><g id="g12424"><path id="path1072" d="M494.096,528.613c-118.748,-0 -219.158,-78.26 -252.567,-186.006c-0.104,-0.519 0.104,-1.039 0.624,-1.133c0.519,-0.104 1.039,0.104 1.133,0.624c34.949,97.917 134.003,168.512 250.77,168.512c116.767,0 215.82,-70.595 250.77,-168.512c0.104,-0.52 0.624,-0.728 1.175,-0.624c0.519,0.104 0.727,0.624 0.623,1.133c-33.409,107.746 -133.82,186.006 -252.567,186.006" style="fill:#fff;fill-rule:nonzero;"/><path id="path1102" d="M375.422,125.246c-0.104,-0.187 -0.728,-0.811 -0.936,-0.956c-0.727,-0.509 -1.06,-0.478 -1.653,-0.333c-0.623,0.146 -0.727,0.333 -1.174,0.478c-0.52,0.146 -1.061,0.146 -1.58,-0.036c-1.061,-0.333 -1.757,-1.687 -2.568,-2.604c-0.208,0.26 -0.624,0.769 -0.624,0.769c-2.859,-1.246 -5.759,-1.797 -8.878,-0.842c-0.311,0.073 -0.831,-0.291 -1.174,-0.405c-1.133,2.273 -3.524,2.64 -5.645,3.08c-0.936,0.187 -1.871,0.624 -2.828,1.137c-0.519,0.364 -1.039,1.503 -1.58,1.907c-0.519,0.478 -1.102,0.259 -1.58,0.769c-1.58,1.723 -2.682,3.704 -2.713,5.538c-0.036,1.43 -0.52,2.566 -2.017,3.226c-0.623,0.291 -1.32,0.915 -1.611,1.541c-1.611,3.154 -3.264,6.381 -4.584,9.719c-0.52,1.356 -0.728,3.227 -1.435,4.474c-1.133,2.09 -0.624,3.961 -0.208,6.015c0.416,2.127 1.611,6.968 1.611,6.968c-6.642,0.145 -17.163,0.509 -25.524,0.915c-0.074,-1.064 -2.162,-4.438 -2.567,-5.061c-0.416,-0.582 -1.466,-3.778 0.623,-5.977c0.728,-0.842 3.046,-4.181 3.046,-6.345c0.073,-5.354 -2.131,-11.222 -2.64,-15.586c2.64,-3.814 -0.104,-7.664 0.104,-11.552c-0,-0.114 -0.52,-0.582 -0.728,-0.842c2.713,-3.447 3.701,-9.167 1.83,-10.232c-6.165,7.592 -2.568,17.713 -6.342,26.075c-0.311,1.137 -0.831,2.2 0.312,3.447c1.061,1.1 -0.831,5.537 -1.538,4.841c1.039,-2.091 -1.871,-3.924 -3.264,-5.831c-0.416,-0.551 -0,-1.21 -0,-1.797c2.38,-2.42 3.524,-4.951 1.247,-8.105c-0.624,-0.883 -0.416,-2.311 -0.624,-3.447c2.713,-1.063 4.221,-3.007 3.597,-5.427c-0.624,-2.494 0.104,-4.695 1.04,-6.895c1.133,-2.714 2.349,-5.427 3.524,-8.214c0.727,-1.798 1.247,-3.521 -0.037,-5.098c-0.208,-0.26 -0.312,-0.738 -0.208,-0.915c1.435,-3.924 3.369,-7.592 5.687,-11.185c1.466,-2.751 3.15,-5.281 5.021,-7.739c-25.929,21.491 -47.199,47.492 -62.418,76.72c-0.208,0.333 -0.52,0.51 -0.832,0.51c-0.519,-0 -0.935,-0.437 -0.935,-0.957l0.074,-0.364c20.61,-46.024 53.762,-85.081 95.899,-112.952c43.201,-28.569 93.553,-43.678 145.556,-43.678c52.002,0 102.354,15.109 145.554,43.678c42.138,27.871 75.29,66.928 95.901,112.952l0.073,0.364c-0,0.51 -0.416,0.957 -0.936,0.957c-0.312,-0 -0.624,-0.187 -0.831,-0.479c-3.306,-6.454 -6.965,-12.652 -10.856,-18.703c-1.83,-1.43 -3.628,-2.75 -4.658,-5.024c-0.831,-1.908 -4.22,-2.53 -5.717,-4.217c-1.539,-1.724 -3.41,-3.337 -4.439,-5.355c-2.09,-4.181 -5.645,-6.527 -9.751,-8.692c-4.106,-2.75 -7.37,-6.711 -11.698,-9.535c-0.416,-0.218 -0.728,0.364 -1.04,0.77c0.624,3.007 2.932,5.537 5.718,7.444c2.64,2.384 4.252,5.648 7.776,7.334c3.264,1.98 5.832,4.988 8.69,7.554l-0.104,0.187l-0.519,0.697c-0.832,-0.624 -1.726,-1.246 -2.568,-1.87l-0.208,0.114c0.416,0.957 0.52,2.201 1.206,2.604c2.089,1.393 2.453,3.594 2.162,5.207c-0.036,0.26 -0.073,0.479 -0.104,0.697c-0.073,0.291 -0.104,0.582 -0.104,0.883l0,0.115c-0.036,0.218 -0.036,0.364 -0.036,0.624c-0,1.137 0.208,2.2 0.52,3.264c0.104,0.582 0.208,1.173 0.415,1.797c-1.975,-1.32 -3.991,-2.53 -5.904,-3.924c-0.416,-0.333 -0.416,-1.21 -0.624,-1.87l0.036,-0.037l-0.036,-0.26c0.832,-1.32 3.004,-0.478 4.803,-0.769c-1.799,-6.784 -7.922,-9.535 -13.018,-13.753c-2.381,-1.943 -4.554,-4.107 -6.643,-6.307c-1.653,-1.798 -3.41,-3.815 -5.863,-4.401c-0.52,0.655 -1.04,1.174 -1.393,1.944c-0.416,0.811 -0.208,2.934 -1.061,2.751c-1.944,-0.406 -4.802,-1.944 -6.528,-0.655c-0.416,0.956 -0.036,2.787 0.936,3.483c2.422,2.017 0.935,3.961 -0.936,5.502c-1.351,1.283 -1.279,3.483 -1.279,5.207c0,0.696 -0.104,1.76 0.208,2.054c2.786,1.797 1.279,4.547 1.757,6.858c-0.037,1.906 -0.208,4.877 -2.495,5.134c-6.05,0.509 -8.399,5.941 -9.46,4.401c-1.684,-1.504 -2.204,-1.981 -3.305,-3.044c-1.362,-1.357 -2.527,-2.017 -4.47,-0.582c-0.936,0.696 -2.599,0.551 -4.034,0.769c-0.416,-1.32 -0.624,-2.458 -1.039,-3.411c-0.52,-1.284 -0.624,-2.677 -2.641,-3.007c-0.624,-0.074 -1.58,-0.26 -1.435,-2.091c0.52,-6.015 -2.016,-10.598 -5.54,-15.256c-0.312,-0.478 -1.653,-0.956 -1.757,-1.54c-0.312,-1.467 1.133,-0.551 2.131,-1.247c0.935,-0.655 -0.073,-1.87 3.337,-1.613c5.281,0.405 10.635,-0.655 16.613,-1.137c-3.264,-4.768 -3.774,-8.399 -4.917,-9.682c-0.936,-1.137 -4.397,-3.337 -7.267,-4.841c-0.727,-0.364 -1.756,-0.509 -2.64,-0.478c-2.162,0.073 -3.992,-0.406 -5.239,-2.311c1.871,-2.861 5.062,-0.364 7.63,-1.687c-0.936,-0.988 -2.755,-2.31 -2.786,-3.08c1.206,-0.551 3.337,0.582 4.584,0.842c0.728,-1.21 1.393,-2.091 2.09,-3.227c-0.312,-0.582 -1.539,-1.907 -1.279,-2.384c2.828,-2.897 3.119,-1.723 1.757,-5.611c0.52,-0.406 1.206,1.137 1.944,1.98c0.208,-0.988 1.757,-1.98 -1.466,-3.814c-0.208,-0.187 0.728,-0.551 1.279,-0.957c0.416,-0.291 -0.037,-0.769 0.416,-0.956c1.039,-0.405 2.349,-0.218 2.682,-0.582c-2.755,-2.201 -4.876,-4.511 -7.558,-6.527c-1.944,-1.321 -2.9,-2.824 -1.58,-4.328c1.507,0.842 3.046,1.613 4.512,2.457c0.935,1.03 0.208,2.164 1.944,2.788c0.415,-0.292 2.599,-0.437 2.713,-0.884c0.208,-0.509 -1.466,-1.541 -1.653,-1.907c-0.832,-1.43 -4.584,-4.29 -5.863,-4.327c-1.611,-0.074 -4.397,-1.981 -5.614,-3.118c0.416,0.364 -0.727,0.842 -0.727,1.21c-0.936,3.74 -5.396,2.31 -6.82,-0.187c-0.312,-0.478 -1.362,-0.114 -1.725,-0.551c-2.527,-2.861 -2.423,-2.201 -5.5,-3.924c-0.208,-0.187 -0.073,-0.697 -0.208,-1.541c-0.207,-2.201 -3.149,-3.447 -3.149,-3.997c-0,-0.582 2.453,-0.26 2.754,-4.033c-14.925,-7.996 -30.622,-14.596 -46.831,-19.731c-2.131,0.292 -4.221,0.77 -5.978,1.577c-3.004,1.577 -6.642,1.431 -10.052,0.77c-1.653,-0.291 -2.35,0.405 -3.077,1.76c-0.624,1.137 -2.308,1.21 -3.337,2.163l0.728,1.541c-0.832,1.54 -1.872,2.457 -2.974,4.474c-3.149,-1.21 -5.831,-2.751 -9.096,-3.301c-3.596,-0.582 -6.414,-2.127 -8.763,-4.803c-2.526,-2.788 -6.196,-4.842 -8.431,-7.922c-0.624,-0.842 -0.727,-2.201 -0.52,-3.154c0.208,-0.738 1.217,-1.173 2.204,-1.43c0.624,-0.074 1.393,0.218 2.017,0.187c0.624,-0.074 2.235,-1.798 2.9,-2.091c-8.035,-1.137 -16.136,-1.98 -24.277,-2.494c2.089,0.51 3.597,1.614 4.553,3.558c-1.102,-0.037 -2.09,-0.115 -3.046,-0.187l-0.074,0.436c5.281,2.31 13.276,5.135 15.073,6.895c0.104,0.478 -1.757,0.956 -5.978,2.163c-1.039,0.218 -2.567,-1.87 -8.836,-4.107c-0.208,-0.074 -1.06,0.478 -1.039,0.509c0.207,0.665 0.519,1.43 1.06,1.834c2.017,1.32 4.179,2.567 6.559,3.96c-1.32,0.988 -3.919,0.219 -2.682,3.008c-3.004,-1.651 -5.644,-3.08 -8.285,-4.511l-0.208,0.291c1.466,1.21 2.901,2.348 4.366,3.521c-0.104,0.219 -0.208,0.406 -0.415,0.655c-4.585,-0.915 -8.909,-2.75 -13.35,-4.254c-0.52,-0.218 -1.726,-1.76 -2.131,-2.2c-0,-0 -4.179,-2.311 -6.165,-2.898c-1.975,-0.582 -4.439,-0.956 -6.934,-0.842c-2.495,0.115 -3.046,-0.842 -3.046,-0.842c0,0 0.832,-1.54 2.059,-1.649c1.206,-0 4.397,0.842 6.31,0.956c1.944,0.218 4.802,0.478 4.802,0.478c-0.207,-0.842 -0.311,-1.174 -0.415,-1.723c2.089,-0.26 4.179,-0.551 6.455,-0.842c-0.52,-1.138 -0.104,-3.044 -2.453,-1.431c-0.416,0.291 -1.507,-0.291 -2.755,-0.509c0.728,-0.478 1.06,-0.655 1.393,-0.915c-0.728,-0.114 -1.611,-0.187 -2.235,-0.478c-0.728,-0.364 -1.289,-0.842 -1.83,-1.431c-8.358,0.074 -16.686,0.479 -24.975,1.247c1.061,2.75 4.512,2.861 6.269,5.72c-2.786,-0.405 -5.572,-1.173 -8.285,-1.466c-1.539,0.036 -3.525,0.956 -4.99,0.81c-1.04,-0.114 -1.726,-2.457 -1.83,-2.383c1.206,-1.174 3.451,-1.724 5.79,-2.384c-5.395,0.551 -10.744,1.284 -16.062,2.091c-15.842,3.226 -20.501,7.921 -22.737,10.194c0,0 2.828,1.541 3.743,2.127c-0.728,1.21 -1.321,2.274 -1.83,3.118c2.453,0.769 8.951,2.897 10.819,4.107c3.222,5.061 9.46,4.695 14.595,6.418c-1.133,1.614 -1.393,3.337 -2.381,4.842c-0.208,0.332 -0.208,0.987 0,1.394c0.624,1.32 0.728,2.273 1.539,3.593c0.208,0.291 0.728,0.77 1.06,0.738c7.298,-0.187 6.82,-2.383 7.922,-8.214c3.555,-0.478 12.359,-0.187 13.276,-4.438c0.104,-2.384 -2.422,-4.584 -4.252,-5.171c0.104,-0.218 0.312,-0.509 0.416,-0.769c1.351,-0.073 4.802,-1.43 5.239,-1.906c-0.624,-0.842 0.208,-0.957 -0.935,-2.311c1.247,-0.26 1.871,-0.26 2.162,-1.1c0.073,-0.219 -0,-0.811 -0.104,-1.174c-0.074,-0.218 -0.038,-0.478 0.073,-0.655c0.207,-0.218 0.415,-0.364 0.831,-0.332c3.67,0.405 7.485,0.987 11.112,1.87c1.653,0.478 3.67,1.284 4.584,2.567c1.872,2.677 4.47,2.567 6.82,3.521c-2.235,2.384 -0.832,4.804 1.466,6.308c5.021,3.631 10.343,1.03 14.853,-1.466c1.58,2.347 6.019,6.418 7.776,8.545c-0,-0 -0.52,1.43 1.58,4.95c2.203,3.631 8.254,5.245 12.432,7.041c-1.289,1.356 -0.624,1.87 5.395,4.694c-0.104,0.988 -0.037,2.017 -0.728,2.605c-1.039,0.956 -2.609,1.356 -3.628,1.613c-1.58,0.478 -3.077,0.114 -4.324,-0.073c-1.83,-0.292 -3.628,-0.406 -5.427,0.291c-3.597,1.394 -6.965,0.987 -10.562,-0.037c-5.395,-1.541 -10.818,-2.861 -16.283,-4.107c-2.235,-0.551 -4.543,-0.655 -6.601,1.029c-0.624,0.509 -2.09,0.291 -3.192,0.478c-2.827,0.437 -9.979,3.007 -12.432,4.254c6.456,-1.577 13.056,-3.154 21.124,-2.861c1.362,0.073 2.64,0.364 4.47,1.43c0.52,0.291 1.102,0.957 0.936,1.504c-0.074,0.405 -1.04,0.883 -1.539,0.883c-1.798,0.146 -3.597,0.073 -5.395,0.073c-0.038,0.219 -0.104,0.406 -0.104,0.583c1.653,0.187 3.264,0.405 5.322,0.623c-1.174,0.624 -2.162,1.1 -3.191,1.688c0.832,3.814 3.919,5.353 7.807,6.087c1.206,0.218 3.046,0.957 4.293,1.393c2.131,-1.1 4.148,-2.163 6.165,-3.3c0.52,-0.291 1.206,-0.074 0.624,0.655c-1.217,1.21 -0.208,1.137 -0.52,1.723c0.52,0.478 1.174,1.029 1.757,1.541c0.208,0.187 0.208,0.364 -0.104,0.551c-2.599,-0.406 -2.526,0.696 -5.687,0.218c-0.208,0.333 0.832,0.956 -0.831,0.842c-5.863,-0.037 -11.772,-0.956 -17.456,1.063c-1.206,0.437 -2.527,0.739 -3.337,-0.696c-0.312,-0.478 -0.832,-1.137 -0.728,-1.503c0.208,-0.582 0.936,-1.174 1.507,-1.284c1.944,-0.437 3.961,-0.655 6.019,-1.503c-0.104,-1.21 -4.251,-0.551 -7.963,-0.582c-1.507,1.173 -6.705,0.987 -10.011,0.696c-4.033,-0.509 -9.054,1.029 -11.075,4.071c-0.312,0.509 0.104,1.357 0.624,1.724c0.52,0.478 2.38,0.623 2.276,1.283c-8.617,0.074 -10.927,-1.87 -15.622,-1.43c0,0.145 0.624,0.333 0.416,0.811c0.624,0.114 1.279,0.218 1.871,0.436c0.52,0.188 1.799,0.26 2.682,0.364c0.208,0.115 0.208,0.26 0,0.364c-1.32,0 -3.337,0.114 -3.846,0c-1.175,-0.405 -2.308,0 -3.15,0c-0.936,1.247 -2.495,1.247 -3.264,2.017c-0.832,0.655 -1.612,3.264 -3.046,2.971c-0.036,-1.284 -1.352,-1.614 -1.83,-2.201c-0.208,0.146 -0.519,0.26 -0.727,0.364c1.465,4.584 -3.306,4.328 -4.585,6.968c-0.52,0.364 -0.416,-0.364 -0.624,-0.478c0.52,-0.655 0.52,-1.174 0.832,-1.503c-0.728,-0.884 0,-2.861 0,-4.144c-0.208,-0.364 -0.935,-0.26 -1.133,0.478c-0.624,2.127 -1.466,3.851 -1.04,6.051c1.175,2.384 0.038,4.768 -2.64,5.428c-0.728,0.218 -2.131,-0 -1.757,1.503c0,0.037 -1.039,0.51 -1.653,0.51c-3.482,-0.037 -5.166,0.55 -6.934,2.09c-4.917,-0.478 -8.212,3.264 -12.578,4.29c-2.349,0.551 -4.657,2.384 -6.123,4.218c-3.004,4.584 -0.728,11.002 -1.684,16.136c-0.416,2.311 -2.9,4.877 -3.119,6.675c0,-0 -0.416,0.036 -0.727,0.073c-0.728,0.037 -2.682,0.697 -3.337,-0.187c0.831,-1.613 -1.279,-4.474 -1.903,-6.932c-0.623,-2.31 -0.623,-5.391 0.416,-7.592c0.624,-1.283 0.624,-1.576 -0.624,-2.676c-0.312,-0.26 -0.519,-0.624 -0.623,-0.915c-0.832,-2.311 -1.684,-2.971 -4.221,-1.907c-1.206,0.582 -2.235,0.364 -3.077,-1.063c-0.624,-1.029 -2.349,-1.687 -3.67,-2.274c-1.507,-0.582 -3.409,0.915 -4.917,-1.063c-0.519,-0.655 -4.844,0.582 -6.383,0.738c-0.207,0.114 0.52,1.43 -0.415,1.944c-0.208,0.187 -0.624,0.291 -0.52,0.624c-0,0.114 0.52,0.987 0.312,1.21c-0.416,0.364 -0.624,0.364 -0.624,0.364l-0.422,0.003Zm289.387,-46.904c1.434,-2.787 -1.799,-4.291 -3.816,-5.574c-0.623,-0.364 -1.611,-0.146 -2.785,-0.26c0.623,0.883 0.831,1.356 1.278,1.906c-0.52,0.218 -1.039,0.406 -1.507,0.582c0.208,0.655 0.312,1.247 0.624,2.201c-1.393,-0.364 -2.35,-0.655 -3.337,-0.884l-0.208,0.406c1.393,0.665 2.786,1.356 4.366,2.09c0.624,-1.687 1.538,-2.163 3.077,-0.478c0.312,0.406 2.162,0.291 2.308,0" style="fill:#fff;fill-rule:nonzero;"/><path id="path1148" d="M493.326,19.591c0.623,2.971 -4.294,1.357 -6.238,1.174c2.09,-2.311 4.294,-1.063 6.238,-1.174" style="fill:#fff;"/><path id="path1154" d="M542.064,76.728c-4.543,0.624 -4.366,2.347 -4.876,3.521c1.58,0.218 4.107,-0.291 5.541,-0.114l0.208,0.509c-0.312,0.145 -0.52,0.291 -1.289,0.655c3.524,1.137 6.674,2.09 9.938,3.044c-0.312,0.956 -1.611,2.2 -1.902,2.971c1.798,1.029 3.264,0.436 3.368,0.738c0.208,0.291 -2.058,1.284 -2.9,1.87l0.207,0.364c0.936,-0.291 3.005,-1.138 3.306,-0.957c0.832,0.624 -1.039,0.842 -1.466,2.054c1.04,-0.145 2.017,-0.509 2.527,-0.623c0.207,0.291 -0.208,0.551 0.311,0.956c-1.684,3.118 -1.507,3.154 -3.482,1.614c-0.208,-0.188 0.728,-0.843 -0.073,-1.357c-0.312,-0.187 -0.52,0.509 -1.247,0.811c-0.52,-0.219 -1.04,-0.333 -1.684,-0.478c0.208,-0.624 1.611,-1.21 0.727,-2.127c-2.786,0.436 -5.686,0.696 -8.212,0.582c-0.624,-0.146 -0.416,-0.582 -0.037,-0.697c1.508,0.037 3.701,-0.364 3.597,-0.582c-3.409,-1.029 -6.268,-1.687 -9.387,-2.64c-2.931,-0.957 -7.921,-0.219 -9.054,-2.201c-1.04,-1.834 3.628,-5.281 8.576,-8.032c1.06,-0.655 3.992,-1.21 6.861,-1.32c0.312,0.146 -0.312,1.137 0.416,1.431" style="fill:#fff;fill-rule:nonzero;"/><path id="path1200" d="M685.565,117.068c1.04,2.787 2.714,4.438 2.682,6.051c-2.307,-1.137 -3.524,-2.42 -3.482,-3.96c0.036,-0.655 0.832,-0.624 0.832,-2.091" style="fill:#fff;"/><path id="path1206" d="M504.034,81.752c0.416,-0.145 1.04,-0.915 1.393,-1.21c1.435,3.447 5.167,2.127 7.703,3.814c-1.279,0.291 -2.422,0.582 -3.597,0.884c-3.118,-1.357 -3.41,-1.577 -5.499,-3.484" style="fill:#fff;fill-rule:nonzero;"/><path id="path1236" d="M507.004,72.694c3.046,-0.551 6.788,1.137 9.574,3.85l-0.312,0.655c-4.22,-1.137 -7.266,-3.154 -9.241,-4.51" style="fill:#fff;fill-rule:nonzero;"/><path id="path1266" d="M611.155,88.28c0.416,-1.247 0.208,-2.567 -0.208,-3.154c-1.392,-0.842 -1.247,-0.884 -2.64,-1.724c0.074,-0.218 -0.208,-1.173 -0.208,-1.43c1.206,-0.582 1.507,-0.988 2.308,-1.65c1.247,-1.577 -0.52,-1.723 -0.208,-2.163c1.507,-1.907 3.555,-3.044 5.499,-3.521c0.936,0.842 1.871,1.687 3.077,2.751c-0.036,0.073 -0.312,0.842 -0.519,1.21c1.247,1.173 3.191,2.53 3.846,5.867c-3.119,2.75 -5.832,5.317 -7.662,6.308c-0.935,0.582 -2.276,0.551 -2.931,0.073c-0.416,-0.364 -0.832,-1.029 -0.416,-2.568" style="fill:#fff;fill-rule:nonzero;"/><path id="path1296" d="M619.518,75.591c-0.208,-0.582 -0.312,-1.1 -0.52,-1.65c-0.624,0.187 -0.832,-0.187 -2.017,0.219c0.624,-1.1 0.728,-1.138 1.102,-1.724l-0.624,0.333c-0.52,-0.738 -0.831,-1.614 -1.434,-2.164c-0.832,-0.769 -1.944,-1.246 -2.599,-1.613c0.727,-1.32 1.466,-2.494 2.235,-3.704c1.102,0 2.609,0 4.511,-0.037c-1.652,2.567 -0.831,3.191 1.726,2.787c2.204,-0.332 3.555,0.479 3.41,2.861c-0.073,0.738 0.104,1.503 0.104,1.724c4.99,3.631 11.039,5.427 14.229,10.782c2.235,-2.091 5.79,-0.364 4.772,4.951c0.623,0.218 1.247,0.509 1.871,0.811c-0.037,0.26 -0.037,0.509 -0.037,0.551c-0.935,1.687 -8.576,1.393 -11.735,2.751c-1.684,0.696 -0.624,-2.054 -5.614,0.363c2.204,-4.841 3.223,-3.41 4.398,-4.437c-1.653,-0.333 -3.556,-0.77 -6.05,-1.357c1.798,-0.988 3.337,-3.337 0.727,-3.521c-0.416,-0.037 -0.416,-0.956 -0.727,-1.613l2.786,-0c0.207,-0.187 0.311,-0.406 0.519,-0.51c-1.247,-2.09 -2.058,-2.75 -3.96,-4.4c-1.799,-0.074 -5.136,2.127 -4.658,-2.567c-1.039,0.478 -1.725,0.769 -2.453,1.174l0.037,0.073l-0.104,-0.073" style="fill:#fff;fill-rule:nonzero;"/><path id="path1326" d="M691.286,133.571c-0.624,-3.557 -2.755,-4.694 -3.888,-7.115c-0.208,-0.436 0.728,-1.32 1.248,-2.163c2.38,2.53 4.22,5.831 4.47,7.739c0.104,1.137 -0.624,0.187 -1.206,1.797c-0.208,-0.073 -0.624,-0.073 -0.624,-0.26" style="fill:#fff;fill-rule:nonzero;"/><path id="path1356" d="M482.104,425.965c-0,-0.936 -1.944,-0.416 -3.265,-0.208c-0.415,0.037 1.102,0.831 -3.887,4.002c0.727,0 4.22,0.073 3.045,0.624c-4.002,3.222 -7.963,5.353 -12.285,7.994c-0.416,0.208 -1.06,0.312 -1.393,0.208c-2.131,-1.393 -4.844,-0 -6.965,-2.859c-0.832,-1.206 -2.204,-1.039 -2.744,-1.393c-0.208,-0.073 -1.133,-2.204 -1.466,-2.017c-0.104,0.104 -1.102,0.624 -1.04,0.936c0.104,0.416 0.728,1.175 0.728,1.175c1.04,1.133 2.682,2.38 3.524,3.482c0.104,0.208 -0.074,1.133 -0.624,2.017c-0.208,0.416 -0.208,1.466 0.312,2.422c0.208,0.52 1.248,0.312 1.102,1.247c-0.312,1.903 -3.992,4.585 -6.164,4.471c-2.755,-0.037 -5.5,-0.312 -8.213,-0.624c-2.308,-0.312 -4.293,1.393 -3.669,3.701c0.415,1.32 -0.074,1.725 -1.04,1.653c-2.495,-0.208 -4.772,-0.728 -7.007,-2.059c-0.311,3.815 0.037,4.221 3.192,4.803c0.52,0.104 0.935,1.175 1.611,1.975c-2.235,0.728 -5.239,0.208 -4.615,3.191c0.207,0.728 -0.312,1.612 -0.52,2.381c-1.32,0.52 -3.847,0.52 -4.325,1.393c-0.623,3.15 2.682,2.713 4.949,4.221c0.103,0.935 0.103,1.829 -0.104,2.203c-0.728,0.832 -2.568,2.09 -3.452,2.755c0.073,1.061 0.208,1.871 -0.208,2.308c-0.623,0.104 -1.58,0.52 -2.235,0.624c0.416,2.089 1.799,3.451 2.308,4.293c-0.074,0.416 -1.653,-0.416 -2.682,-0.52l3.306,2.163c1.902,1.102 1.102,1.465 2.9,3.118c1.684,1.508 2.526,1.799 2.454,1.986c-0.104,0.312 0.311,1.902 -4.845,0.208c-6.123,-1.986 -7.703,-2.755 -14.889,-9.72c-0,-0 -3.847,-3.451 -6.456,-10.708c-0.208,-0.52 -0.832,-1.175 -0.52,-1.612c0.208,-0.312 0.624,-0.416 1.435,-0.312c-0.073,-0.727 0.074,-1.871 -0.312,-2.162c-0.624,-0.52 -2.755,0.624 -2.859,-0.832c0.832,-2.162 1.206,-1.684 1.58,-3.773c0.104,-0.624 -0.623,-1.362 -0.623,-4.397c-0,-0.52 0.831,-0.728 1.206,-0.416c0.623,1.32 1.133,3.15 2.058,3.992c-1.04,-6.31 -0.208,-4.47 -0.832,-9.096c-0.727,-0.936 -1.039,-0.416 -1.278,-0.416l-0,4.511c-1.83,-0.207 -2.495,-0.831 -2.09,-3.628c0.074,-0.415 0.728,-0.104 0.036,-1.434c-0.623,-1.133 -0.415,-2.901 -0.415,-3.847c1.216,-3.264 0.104,-6.268 -1.248,-9.054c-1.798,-3.451 0.037,-2.381 0.416,-3.815c1.83,-6.019 4.699,-11.919 3.004,-18.63c-0.519,-1.902 -1.538,-4.106 0.312,-6.05c0.208,-0.208 0.104,-0.832 0,-1.206c-1.102,-3.223 0.416,-6.05 1.102,-9.054c0.416,-2.017 0.624,-4.107 0.832,-6.165c0.416,-3.379 0.831,-6.819 0.52,-10.198c0.072,-2.381 -0.074,-3.524 0.207,-5.322c0.208,-1.581 1.435,-3.078 1.508,-4.699c0.074,-3.67 -0.208,-7.339 -0.416,-11.002c-0.036,-0.624 -0.208,-1.434 -0.624,-1.902c-4.511,-5.427 -9.023,-10.782 -15.146,-14.376c-4.397,-2.599 -6.414,-7.079 -8.805,-12.432c-0.416,-0.832 -0.832,-2.017 -1.393,-3.264c37.076,-1.174 74.079,-1.834 111.008,-1.798c27.763,0 60.108,0.187 87.906,0.842c-0.208,3.815 -0.416,8.215 -0.416,8.949c-0.416,5.281 -1.32,5.572 -3.628,10.415c-1.986,3.846 -5.281,5.572 -8.181,7.776c-4.512,3.451 -9.793,5.79 -13.9,9.792c-1.466,1.175 -2.786,3.005 -4.439,3.483c-6.934,1.798 -5.905,8.358 -8.431,13.349c-2.349,5.322 -5.395,7.661 -8.576,13.093c-1.393,1.902 -4.034,3.077 -6.019,4.512c-1.393,3.409 -4.543,4.657 -7.298,6.455c-2.526,0.728 -5.312,-0.935 -7.921,-1.216c-2.453,-0.416 -5.499,1.32 -6.383,3.119c-4.948,-0.832 -7.994,1.351 -12.175,3.264c-3.192,1.351 -3.961,4.22 -3.888,7.079c0.074,2.204 -0.832,3.451 -2.381,4.293c-3.264,1.799 -5.613,4.398 -8.212,7.08c-1.102,1.133 -1.986,1.247 -2.131,1.247c-0.038,0.037 -0.832,0.104 2.131,-2.599l-0.059,0.01Z" style="fill:#fff;fill-rule:nonzero;"/><path id="path1386" d="M877.438,320.53c-3.077,-8.104 -6.196,-16.136 -9.314,-24.167c-17.09,-1.394 -34.216,-2.677 -51.306,-3.888l-9.356,22.774c-10.375,-0.697 -20.757,-1.394 -31.136,-1.981c17.714,-40.267 35.391,-80.497 53.104,-120.544c4.324,0.333 8.69,0.624 13.018,0.957c4.366,0.332 8.691,0.623 13.056,0.987c17.676,42.761 35.353,85.632 53.029,128.539c-10.343,-0.956 -20.72,-1.797 -31.099,-2.677l0.004,0Zm-50.315,-53.176c10.229,0.769 20.463,1.541 30.696,2.347c-5.136,-13.238 -10.229,-26.441 -15.367,-39.68c-5.094,12.469 -10.229,24.901 -15.329,37.333" style="fill:#fff;fill-rule:nonzero;"/><path id="path1416" d="M353.602,307.254c-17.017,-40.853 -34.033,-81.524 -51.049,-122.157c10.855,-0.478 21.747,-0.915 32.602,-1.321c9.824,25.598 19.657,51.196 29.485,76.794c9.834,-26.185 19.657,-52.369 29.484,-78.517c10.893,-0.26 21.748,-0.478 32.64,-0.666c-17.053,41.624 -34.069,83.358 -51.085,125.202c-3.67,0.115 -7.371,0.187 -11.039,0.291c-3.67,0.115 -7.329,0.26 -11.038,0.364" style="fill:#fff;fill-rule:nonzero;"/><path id="path1446" d="M29.376,279.64c-0,17.676 6.601,25.964 22.04,24.387c15.476,-1.54 22.077,-11.075 22.077,-28.751l0,-74.483c9.793,-0.957 19.619,-1.834 29.412,-2.677l0,74.96c0,34.472 -17.2,54.129 -51.489,57.503c-34.253,3.409 -51.416,-12.836 -51.416,-47.308l0,-74.96c9.793,-1.063 19.584,-2.127 29.376,-3.118" style="fill:#fff;fill-rule:nonzero;"/><path id="path1476" d="M728.473,232.588c19.143,7.885 45.327,17.493 45.327,43.054c0,26.148 -18.666,39.937 -51.305,38.324c-19.253,-0.957 -39.387,-12.433 -45.108,-15.88c-0.208,-0.114 -0.416,-0.218 -0.624,-0.364l0,-29.338c0.624,0.364 1.175,0.696 1.757,1.137c17.567,11.112 32.089,17.383 43.935,18.85c14.119,1.798 20.683,-2.42 20.683,-10.892c-0,-3.521 -2.932,-7.004 -9.284,-10.122c-3.628,-1.834 -7.994,-3.631 -12.614,-5.537c-20.538,-8.325 -46.062,-16.467 -46.062,-44.888c0,-25.121 22.15,-35.463 44.118,-34.4c16.796,0.77 36.819,9.242 46.208,14.706c0.207,0.115 0.415,0.26 0.623,0.364l0,29.339c-0.623,-0.364 -1.174,-0.739 -1.757,-1.138c-5.79,-3.704 -26.184,-15.952 -45.07,-16.833c-9.502,-0.436 -13.606,3.008 -13.606,7.445c0,3.154 3.046,6.894 9.314,10.158c3.701,1.98 8.431,3.924 13.423,6.015" style="fill:#fff;fill-rule:nonzero;"/><path id="path1506" d="M635.066,258.956c9.751,16.283 19.474,32.566 29.229,48.885c-11.001,-0.405 -22.04,-0.769 -33.042,-1.063c-8.618,-14.999 -17.237,-29.962 -25.892,-44.851c-6.716,-0.146 -13.422,-0.291 -20.133,-0.406l-0,44.118c-9.647,-0.187 -19.29,-0.291 -28.935,-0.406l0,-124.064c22.151,0.218 44.301,0.696 66.451,1.284c23.068,0.623 36.196,16.392 36.196,40.12c0,23.177 -12.688,32.565 -23.874,36.379l0,0.004Zm-49.985,-23.324c9.024,0.218 18.08,0.406 27.101,0.582c13.533,0.364 16.247,-7.187 16.247,-13.569c-0,-6.381 -2.755,-14.119 -16.247,-14.449c-9.023,-0.26 -18.079,-0.436 -27.101,-0.624" style="fill:#fff;fill-rule:nonzero;"/><path id="path1536" d="M261.076,311.178c-0.074,-41.367 -0.104,-82.697 -0.104,-124.064c9.751,-0.551 19.546,-1.029 29.301,-1.431l0,124.028c-9.719,0.479 -19.437,0.957 -29.155,1.467" style="fill:#fff;fill-rule:nonzero;"/><path id="path1566" d="M467.838,255.032l-0,23.764c22.187,-0.187 44.338,-0.187 66.525,0l-0,26.185c-31.723,-0.219 -63.445,-0.115 -95.13,0.291c-0.073,-41.367 -0.104,-82.698 -0.104,-124.065c31.502,-0.406 63.041,-0.509 94.543,-0.291l-0,26.038c-21.931,-0.146 -43.861,-0.146 -65.791,-0l-0,21.93c14.889,-0.114 29.777,-0.145 44.667,-0.114l-0,26.221c-14.89,-0.037 -29.778,-0 -44.667,0.037" style="fill:#fff;fill-rule:nonzero;"/><path id="path1596" d="M207.46,190.194c9.72,-0.582 19.436,-1.173 29.154,-1.723l-0,124.065c-7.953,0.436 -15.879,0.914 -23.837,1.43l-0.312,-0.478c-18.702,-23.691 -37.406,-47.272 -56.072,-70.779l-0,75.179c-9.72,0.739 -19.438,1.504 -29.155,2.274l-0,-124.065c9.428,-0.738 18.85,-1.503 28.274,-2.201l0.312,0.406c17.201,21.564 34.4,43.274 51.637,65.021" style="fill:#fff;fill-rule:nonzero;"/><path id="path1626" d="M920.859,200.279c9.72,0.884 19.4,1.834 29.119,2.787l-0,98.064c16.686,1.651 33.373,3.373 50.022,5.245l0,26c-26.295,-2.9 -52.626,-5.61 -78.994,-8.031c-0.037,-41.331 -0.104,-82.698 -0.104,-124.065" style="fill:#fff;fill-rule:nonzero;"/></g></svg>